<svg id="Layer_1" data-name="Layer 1" xmlns="http://www.w3.org/2000/svg" viewBox="0 0 500 500"><defs><style>.cls-1{fill:#eff6f9;}.cls-2{fill:#cfa153;}.cls-3{fill:#f4d6b0;}.cls-4{fill:#e0bb94;}.cls-5{fill:#ef4136;}.cls-6{fill:#ff6864;}.cls-7{fill:#facfaf;}.cls-8{fill:#fae0bb;}.cls-9{fill:#272223;}.cls-10{fill:#facdab;}.cls-11{fill:#726658;}.cls-12{fill:#dc9b80;}</style></defs><title>Tawk_Avatar-Female</title><path class="cls-1" d="M250,477.72a177,177,0,1,1,177-177,177,177,0,0,1-177,177"/><path class="cls-2" d="M91.29,242.41V181A158.71,158.71,0,0,1,250,22.28h0A158.71,158.71,0,0,1,408.71,181v61.42"/><rect class="cls-2" x="142.33" y="288.73" width="208" height="76.41" rx="12.57" ry="12.57"/><path class="cls-3" d="M294.86,355.57v-32l-44.86,32-44.86-32v32c0,13.86-14.11,13.86-14.11,13.86l59,58.72,59-58.72S294.86,369.43,294.86,355.57Z"/><path class="cls-4" d="M294.86,323.56l-44.86,32-44.86-32v32c0,.45,0,.85-.08,1.27,24.59,11,44.94,12,44.94,12s20.35-.93,44.94-12c0-.42-.08-.82-.08-1.27Z"/><path class="cls-5" d="M250,477.72a176.7,176.7,0,0,0,142.66-72.25L316,372.21h-7.14l-19.05,21.52a53.21,53.21,0,0,1-79.68,0l-19-21.52H184l-77.25,32.41A176.71,176.71,0,0,0,250,477.72"/><path class="cls-6" d="M305.44,365.14l-19,17.87a53.2,53.2,0,0,1-72.92,0l-19-17.87L184,372.21l21.41,21.57a62.87,62.87,0,0,0,89.24,0L316,372.21Z"/><path class="cls-2" d="M163.51,400.08h0V175.71H91.33V328.37C91.79,368,123.9,400.08,163.51,400.08Z"/><ellipse class="cls-7" cx="136.59" cy="208.08" rx="30.72" ry="35.62"/><ellipse class="cls-7" cx="363.41" cy="208.08" rx="30.72" ry="35.62"/><path class="cls-8" d="M217.85,76.67c-44.88,0-81.26,44.73-81.26,89.61v82.38c0,62.63,51.53,105.74,111.64,110.48,44.48,3.51,115.18-47.85,115.18-110.48v-97a75,75,0,0,0-75-75Z"/><path class="cls-9" d="M218.68,212.94a4,4,0,0,1-4-3.35c-.69-4-5.15-11.61-17.06-11.61-15.06,0-18.14,10.35-18.26,10.8a4,4,0,0,1-7.8-2.05c1.5-5.82,8.87-16.81,26.06-16.81,15,0,23.49,9.48,25,18.3a4,4,0,0,1-3.28,4.66A4.23,4.23,0,0,1,218.68,212.94Z"/><path class="cls-9" d="M191.65,198.52a4,4,0,0,1-3.9-3.11l-2.25-9.9a4,4,0,0,1,7.8-1.77l2.25,9.89a4,4,0,0,1-3,4.79A3.92,3.92,0,0,1,191.65,198.52Z"/><path class="cls-9" d="M202.53,197.76a3.92,3.92,0,0,1-.89-.1,4,4,0,0,1-3-4.79l2.25-9.89a4,4,0,0,1,7.81,1.77l-2.26,9.9A4,4,0,0,1,202.53,197.76Z"/><path class="cls-9" d="M281.32,212.94a4,4,0,0,0,4-3.35c.69-4,5.15-11.61,17.06-11.61,15.06,0,18.14,10.35,18.26,10.8a4,4,0,0,0,7.8-2.05c-1.5-5.82-8.87-16.81-26.06-16.81-15,0-23.49,9.48-25,18.3a4,4,0,0,0,4,4.72Z"/><path class="cls-9" d="M308.35,198.52a4,4,0,0,0,3.9-3.11l2.25-9.9a4,4,0,0,0-7.8-1.77l-2.25,9.89a4,4,0,0,0,3,4.79A3.92,3.92,0,0,0,308.35,198.52Z"/><path class="cls-9" d="M297.47,197.76a3.92,3.92,0,0,0,.89-.1,4,4,0,0,0,3-4.79L299.12,183a4,4,0,0,0-7.8,1.77l2.25,9.9A4,4,0,0,0,297.47,197.76Z"/><path class="cls-10" d="M273.49,242.17c0-2.57-3.59-4.9-7.56-6.63a36.41,36.41,0,0,1-12.66-9.79c-2.57-2.95-5-2.59-7.4.45a33.4,33.4,0,0,1-12.42,9.51c-3.7,1.71-6.94,4-6.94,6.46a9.65,9.65,0,0,0,9.12,9.63,15.75,15.75,0,0,0,28.74,0A9.65,9.65,0,0,0,273.49,242.17Z"/><path class="cls-11" d="M220.64,171.3a3.08,3.08,0,0,1-1-.06c-.29-.08-30-7.16-47.39,3.51-2,1.23-4.45-.24-5.5-3.28s-.28-6.48,1.71-7.7c19.41-12,50.42-4.54,51.73-4.21,2.24.55,3.94,3.61,3.79,6.83C223.81,169.1,222.42,171.07,220.64,171.3Z"/><path class="cls-11" d="M278.12,171.3a3.07,3.07,0,0,0,1-.06c.3-.08,30-7.16,47.4,3.51,2,1.23,4.45-.24,5.5-3.28s.28-6.48-1.71-7.7c-19.42-12-50.42-4.54-51.74-4.21-2.24.55-3.93,3.61-3.78,6.83C275,169.1,276.35,171.07,278.12,171.3Z"/><path class="cls-12" d="M250.47,297.1a57.46,57.46,0,0,1-31.18-9.47,4,4,0,0,1,4.78-6.49c1.07.78,24.88,17.69,52-.12a4,4,0,1,1,4.42,6.74A54,54,0,0,1,250.47,297.1Z"/><rect class="cls-10" x="238.28" y="201.1" width="23.43" height="42.76" rx="11.31" ry="11.31"/><path class="cls-2" d="M337.49,143.31h36.75a34.46,34.46,0,0,1,34.46,34.46V328.87a71.22,71.22,0,0,1-71.22,71.22h0a0,0,0,0,1,0,0V143.31A0,0,0,0,1,337.49,143.31Z"/><path class="cls-2" d="M208.79,72s37.86,101.42,176.84,89.28L341.5,69.19Z"/><path class="cls-2" d="M249.69,72s-29.11,101.42-135.94,89.28l39.92-87.93Z"/></svg>