<svg id="Layer_1" data-name="Layer 1" xmlns="http://www.w3.org/2000/svg" viewBox="0 0 500 500"><defs><style>.cls-1{fill:#eff6f9;}.cls-2{fill:#f4d6b0;}.cls-3{fill:#e0bb94;}.cls-4{fill:#29abe2;}.cls-5{fill:#3090c0;}.cls-6{fill:#facfaf;}.cls-7{fill:#fae0bb;}.cls-8{fill:#5c5d64;}.cls-9{fill:#e5ceb7;}.cls-10{opacity:0.37;}.cls-11{fill:#bbf2ff;}.cls-12{fill:#facdab;}.cls-13{fill:#3a4251;}.cls-14{fill:#dc9b80;}</style></defs><title>Tawk_Avatar-Male</title><path class="cls-1" d="M250,481.61a177,177,0,1,1,177-177,177,177,0,0,1-177,177"/><path class="cls-2" d="M294.86,359.46v-32l-44.86,32-44.86-32v32c0,13.87-14.11,13.87-14.11,13.87l59,58.72,59-58.72S294.86,373.33,294.86,359.46Z"/><path class="cls-3" d="M294.86,327.46l-44.86,32-44.86-32v32c0,.45,0,.85-.08,1.27,24.59,11,44.94,12,44.94,12s20.35-.94,44.94-12c0-.42-.08-.82-.08-1.27Z"/><path class="cls-4" d="M250,481.61a176.7,176.7,0,0,0,142.66-72.25L316,376.1h-7.14l-19.05,21.53a53.21,53.21,0,0,1-79.68,0l-19-21.53H184l-77.25,32.41A176.71,176.71,0,0,0,250,481.61"/><path class="cls-5" d="M305.44,369l-19,17.86a53.2,53.2,0,0,1-72.92,0l-19-17.86L184,376.1l21.41,21.57a62.86,62.86,0,0,0,89.24,0L316,376.1Z"/><ellipse class="cls-6" cx="136.59" cy="211.98" rx="30.72" ry="35.62"/><ellipse class="cls-6" cx="363.41" cy="211.98" rx="30.72" ry="35.62"/><path class="cls-7" d="M136.59,101.51v151c0,62.63,51.53,105.75,111.64,110.49,44.48,3.51,115.18-47.86,115.18-110.49v-151Z"/><path class="cls-8" d="M218.68,216.83a4,4,0,0,1-4-3.34c-.69-4-5.15-11.61-17.06-11.61-15.06,0-18.14,10.35-18.26,10.79a4,4,0,0,1-7.8-2c1.5-5.81,8.87-16.81,26.06-16.81,15,0,23.49,9.49,25,18.3a4,4,0,0,1-3.28,4.66A4.23,4.23,0,0,1,218.68,216.83Z"/><path class="cls-8" d="M281.32,216.83a4,4,0,0,1-4-4.72c1.52-8.81,10-18.3,25-18.3,17.19,0,24.56,11,26.06,16.81a4,4,0,0,1-7.8,2c-.15-.52-3.26-10.78-18.26-10.78-11.91,0-16.37,7.59-17.06,11.61A4,4,0,0,1,281.32,216.83Z"/><path class="cls-9" d="M340.59,276.49c-15.73,6.55-41.18-.75-61.34-1.76s-29.25-.51-29.25-.51-9.09-.5-29.25.51-45.61,8.31-61.34,1.76-22.82-20.66-22.82-20.66-.17,30.8,16.14,55.06C191.27,368.23,250,366,250,366s58.73,2.27,97.27-55.07c16.31-24.26,16.14-55.06,16.14-55.06S356.32,269.94,340.59,276.49Z"/><g class="cls-10"><path class="cls-11" d="M163.86,184.52s-2.65,5.26-2.4,20.14c.12,6.86.64,14.2,1.16,20.12a12.77,12.77,0,0,0,13,11.63l46.73-1a12.79,12.79,0,0,0,12.5-12.78v-24.1s-1.08-13.59-23.26-15.2S163.86,184.52,163.86,184.52Z"/></g><g class="cls-10"><path class="cls-11" d="M335.75,184.52s2.65,5.26,2.4,20.14c-.12,6.86-.64,14.2-1.16,20.12a12.77,12.77,0,0,1-13,11.63l-46.73-1a12.79,12.79,0,0,1-12.5-12.78v-24.1s1.08-13.59,23.26-15.2S335.75,184.52,335.75,184.52Z"/></g><rect class="cls-12" x="235.36" y="195.3" width="28.66" height="52.29" rx="11.31" ry="11.31"/><path class="cls-12" d="M278.73,245.54c0-3.14-4.39-6-9.24-8.11-6.07-2.65-11.14-7-15.49-12-3.14-3.6-6.15-3.17-9.06.56a40.68,40.68,0,0,1-15.18,11.62c-4.52,2.09-8.49,4.86-8.49,7.91a11.79,11.79,0,0,0,11.16,11.77,19.26,19.26,0,0,0,35.14,0A11.79,11.79,0,0,0,278.73,245.54Z"/><path class="cls-8" d="M235.31,206.68a2,2,0,0,1-2-2c0-.51-.13-12.39-9.56-16.23-10-4.1-25.8-4.71-34.3-4.71-10.06,0-22.45.92-25.86,2.93l-.53.31-.27.56a2,2,0,0,1-1.81,1.15,1.9,1.9,0,0,1-.41,0,2,2,0,0,1-1.28-.86,2,2,0,0,1-.3-1.52,4.76,4.76,0,0,1,2.76-3.17c4-2.17,13.69-3.46,25.82-3.46,15.33,0,30.13,2,37.7,5.08,12,4.9,12.07,19.37,12.07,20a2,2,0,0,1-2,2Z"/><path class="cls-8" d="M263.79,206.68a2,2,0,0,1-2-2c0-.61.05-15.08,12.06-20,7.58-3.09,22.38-5.08,37.71-5.08,12.12,0,21.77,1.29,25.81,3.46a4.72,4.72,0,0,1,2.76,3.18,2,2,0,0,1-1.57,2.37,2.71,2.71,0,0,1-.4,0,2,2,0,0,1-1.82-1.15l-.27-.55-.53-.32c-3.42-2-15.8-2.93-25.86-2.93-8.5,0-24.25.61-34.3,4.71-9.56,3.9-9.56,16.11-9.56,16.23a2,2,0,0,1-.58,1.43,2,2,0,0,1-1.42.6Z"/><path class="cls-13" d="M359.28,186.54,332.87,124.7A16.7,16.7,0,0,0,314,117.23c-24.73,7-82.83,19.54-130.69.9a16.9,16.9,0,0,0-18.6,4.12l-23.87,63.9a5.93,5.93,0,0,1-5.06,3.86,5.86,5.86,0,0,1-5.65-2.88c-6.93-11.64-15.48-35.06-7.62-73.67h0a4,4,0,0,1-4.26-.16,3.92,3.92,0,0,1-1.71-3.89c1.89-12.54,7.77-36.42,25.54-45.71,0,0,1.23-8,3.08-15.59a3.53,3.53,0,0,1,2.88-2.7,3.59,3.59,0,0,1,4.09,2.37A10.15,10.15,0,0,0,154.39,52S195.2-4.52,314.85,29c0,0,6.9,1.43,14.34,2.42a2.82,2.82,0,0,1,.7,5.39L327.15,38S352.38,68.44,378.68,74a5.8,5.8,0,0,1,4,3.15,6,6,0,0,1,.09,5.14c-2.06,4.61-5.52,10-10.89,12.13a27.5,27.5,0,0,0,4,4,8.17,8.17,0,0,1,2.74,8.87,7.48,7.48,0,0,1-3.76,4.41l-.2.11a17,17,0,0,0,5.51,2.18,6.29,6.29,0,0,1,3.74,2.31,6.63,6.63,0,0,1,1.4,4.2c-.22,13.38-2.24,44.74-15.51,66.88a5.82,5.82,0,0,1-6.38,2.67A6,6,0,0,1,359.28,186.54Z"/><path class="cls-8" d="M236.09,201.09a2,2,0,0,1-2-2,1.94,1.94,0,0,1,1.88-2l27.84.26a2,2,0,0,1,2,2,2,2,0,0,1-2,2Z"/><path class="cls-13" d="M220.64,175.19a2.64,2.64,0,0,1-1-.06c-.29-.07-30-7.16-47.39,3.52-2,1.23-4.45-.24-5.5-3.28s-.28-6.49,1.7-7.71c19.42-11.95,50.43-4.53,51.74-4.21,2.24.55,3.94,3.61,3.79,6.84C223.81,173,222.42,175,220.64,175.19Z"/><path class="cls-13" d="M278.12,175.19a2.62,2.62,0,0,0,1-.06c.3-.07,30-7.16,47.4,3.52,2,1.23,4.45-.24,5.5-3.28s.28-6.49-1.71-7.71c-19.42-11.95-50.42-4.53-51.74-4.21-2.24.55-3.93,3.61-3.78,6.84C275,173,276.35,175,278.12,175.19Z"/><path class="cls-14" d="M250.47,301a57.6,57.6,0,0,1-31.18-9.46,4,4,0,0,1,4.78-6.49c1.07.78,24.88,17.69,52-.13a4,4,0,0,1,4.42,6.75A54,54,0,0,1,250.47,301Z"/></svg>