<svg id="Layer_1" data-name="Layer 1" xmlns="http://www.w3.org/2000/svg" viewBox="0 0 500 500"><defs><style>.cls-1{fill:#eff6f9;}.cls-2{fill:#facdab;}.cls-3{fill:#f2bd99;}.cls-4{fill:#2bb673;}.cls-5{fill:#009444;}.cls-6{fill:#726658;}.cls-7{fill:#dc9b80;}.cls-8{fill:#3c2415;}.cls-9{opacity:0.37;}.cls-10{fill:#bbf2ff;}.cls-11{fill:#5c5d64;}</style></defs><title>Tawk_Avatar-Female</title><path class="cls-1" d="M250,486.91A177,177,0,1,1,427,310a177,177,0,0,1-177,177"/><path class="cls-2" d="M294.86,364.76v-32l-44.86,32-44.86-32v32c0,13.86-14.11,13.86-14.11,13.86l59,58.72,59-58.72S294.86,378.62,294.86,364.76Z"/><path class="cls-3" d="M294.86,332.75l-44.86,32-44.86-32v32c0,.45,0,.85-.08,1.27,24.59,11,44.94,12,44.94,12s20.35-.93,44.94-12c0-.42-.08-.82-.08-1.27Z"/><path class="cls-4" d="M250,486.91a176.7,176.7,0,0,0,142.66-72.25L316,381.4h-7.14l-19.05,21.52a53.21,53.21,0,0,1-79.68,0l-19-21.52H184l-77.25,32.41A176.71,176.71,0,0,0,250,486.91"/><path class="cls-5" d="M305.44,374.33l-19,17.87a53.2,53.2,0,0,1-72.92,0l-19-17.87L184,381.4,205.38,403a62.86,62.86,0,0,0,89.24,0L316,381.4Z"/><path class="cls-6" d="M88.4,161.59H411.6a0,0,0,0,1,0,0v0a54.1,54.1,0,0,1-54.1,54.1h-215a54.1,54.1,0,0,1-54.1-54.1v0A0,0,0,0,1,88.4,161.59Z"/><path class="cls-6" d="M79.5,214h341a0,0,0,0,1,0,0v0a58.62,58.62,0,0,1-58.62,58.62H138.12A58.62,58.62,0,0,1,79.5,214v0A0,0,0,0,1,79.5,214Z"/><path class="cls-6" d="M379.83,198.59H118.23l-2.81-32C108.1,111.64,134.51,57.2,183,30.2A135.32,135.32,0,0,1,249,13.09h0A135.35,135.35,0,0,1,315.11,30.2c48.44,27,74.84,81.44,67.53,136.41Z"/><ellipse class="cls-3" cx="136.59" cy="217.27" rx="30.72" ry="35.62"/><ellipse class="cls-3" cx="363.41" cy="217.27" rx="30.72" ry="35.62"/><path class="cls-2" d="M136.59,111.76V257.85c0,62.63,51.53,105.75,111.64,110.49,44.48,3.5,115.18-47.86,115.18-110.49V111.76Z"/><path class="cls-7" d="M250.47,306.29a57.46,57.46,0,0,1-31.18-9.47,4,4,0,0,1,4.78-6.48c1.07.77,24.88,17.68,52-.13a4,4,0,1,1,4.42,6.74A54,54,0,0,1,250.47,306.29Z"/><path class="cls-6" d="M220.64,180.49a3.08,3.08,0,0,1-1-.06c-.29-.07-30-7.16-47.39,3.51-2,1.23-4.45-.24-5.5-3.27s-.28-6.49,1.71-7.71c19.41-12,50.42-4.53,51.73-4.21,2.25.55,3.94,3.61,3.79,6.83C223.81,178.29,222.42,180.26,220.64,180.49Z"/><path class="cls-6" d="M278.12,180.49a3.06,3.06,0,0,0,1-.06c.3-.07,30-7.16,47.4,3.51,2,1.23,4.45-.24,5.5-3.27s.28-6.49-1.71-7.71c-19.42-12-50.42-4.53-51.74-4.21-2.24.55-3.93,3.61-3.78,6.83C275,178.29,276.35,180.26,278.12,180.49Z"/><path class="cls-3" d="M273.18,257.52c0-2.57-3.59-4.9-7.56-6.63a36.32,36.32,0,0,1-12.66-9.8c-2.57-2.94-5-2.58-7.41.46a33.29,33.29,0,0,1-12.41,9.51c-3.7,1.71-6.94,4-6.94,6.46a9.65,9.65,0,0,0,9.12,9.63,15.75,15.75,0,0,0,28.74,0A9.65,9.65,0,0,0,273.18,257.52Z"/><rect class="cls-3" x="237.97" y="216.45" width="23.43" height="42.76" rx="11.31" ry="11.31"/><path class="cls-6" d="M136.59,172.25S268,161.59,328.67,112.55c0,0-4.7,33.37-24.08,43,0,0,48.5.31,67.25-38L343,70.92l-91.66-4.67L136.59,89.59l-10.28,29.66Z"/><path class="cls-8" d="M218.68,221.58a4,4,0,0,1-4-3.35c-.69-4-5.15-11.61-17.06-11.61-15.06,0-18.14,10.36-18.26,10.8a4,4,0,0,1-7.8-2c1.5-5.82,8.87-16.81,26.06-16.81,15,0,23.49,9.49,25,18.3a4,4,0,0,1-3.28,4.66A4.23,4.23,0,0,1,218.68,221.58Z"/><path class="cls-8" d="M191.65,207.16a4,4,0,0,1-3.9-3.11l-2.25-9.9a4,4,0,0,1,7.8-1.77l2.25,9.89a4,4,0,0,1-3,4.79A3.92,3.92,0,0,1,191.65,207.16Z"/><path class="cls-8" d="M202.53,206.4a3.92,3.92,0,0,1-.89-.1,4,4,0,0,1-3-4.79l2.25-9.89a4,4,0,0,1,7.81,1.78l-2.26,9.89A4,4,0,0,1,202.53,206.4Z"/><path class="cls-8" d="M281.32,221.58a4,4,0,0,0,4-3.35c.69-4,5.15-11.61,17.06-11.61,15.06,0,18.14,10.36,18.26,10.8a4,4,0,0,0,7.8-2c-1.5-5.82-8.87-16.81-26.06-16.81-15,0-23.49,9.49-25,18.3a4,4,0,0,0,4,4.72Z"/><path class="cls-8" d="M308.35,207.16a4,4,0,0,0,3.9-3.11l2.25-9.9a4,4,0,0,0-7.8-1.77l-2.25,9.89a4,4,0,0,0,3,4.79A3.92,3.92,0,0,0,308.35,207.16Z"/><path class="cls-8" d="M297.47,206.4a3.92,3.92,0,0,0,.89-.1,4,4,0,0,0,3-4.79l-2.25-9.89a4,4,0,0,0-7.8,1.78l2.25,9.89A4,4,0,0,0,297.47,206.4Z"/><circle class="cls-3" cx="316.6" cy="252.89" r="12.01"/><circle class="cls-3" cx="183.4" cy="252.89" r="12.01"/><path class="cls-6" d="M122.32,175.47,126,219h10.56s-4.57-83.21,30.27-99.79H136.59Z"/><path class="cls-6" d="M377.68,175.47,374,219H363.41s4.57-83.21-30.27-99.79h30.27Z"/><g class="cls-9"><path class="cls-10" d="M163.32,189.82s-2.64,5.26-2.39,20.14c.12,6.86.63,14.2,1.16,20.12a12.75,12.75,0,0,0,13,11.62l46.73-1a12.78,12.78,0,0,0,12.49-12.78V203.78s-1.08-13.59-23.25-15.21S163.32,189.82,163.32,189.82Z"/></g><g class="cls-9"><path class="cls-10" d="M335.22,189.82s2.64,5.26,2.39,20.14c-.11,6.86-.63,14.2-1.16,20.12a12.75,12.75,0,0,1-13,11.62l-46.73-1a12.78,12.78,0,0,1-12.49-12.78V203.78s1.08-13.59,23.26-15.21S335.22,189.82,335.22,189.82Z"/></g><path class="cls-11" d="M234.77,212a2,2,0,0,1-2-2c0-.51-.13-12.39-9.56-16.23-10.05-4.1-25.8-4.71-34.29-4.71-10.07,0-22.45.91-25.87,2.93l-.53.31-.27.56a2,2,0,0,1-1.81,1.15,1.83,1.83,0,0,1-.4-.05,2,2,0,0,1-1.28-.85,2,2,0,0,1-.3-1.52,4.79,4.79,0,0,1,2.76-3.18c4-2.16,13.69-3.46,25.82-3.46,15.33,0,30.12,2,37.7,5.08,12,4.91,12.07,19.38,12.07,20a2,2,0,0,1-2,2Z"/><path class="cls-11" d="M263.26,212a2,2,0,0,1-2-2c0-.61.05-15.08,12.07-20,7.57-3.08,22.37-5.08,37.7-5.08,12.13,0,21.78,1.3,25.82,3.46a4.79,4.79,0,0,1,2.76,3.18,2,2,0,0,1-1.58,2.37,1.81,1.81,0,0,1-.4,0,2,2,0,0,1-1.82-1.14l-.26-.56-.54-.31c-3.41-2-15.8-2.93-25.86-2.93-8.49,0-24.24.61-34.3,4.71-9.56,3.9-9.56,16.11-9.56,16.23a2,2,0,0,1-.58,1.42,2,2,0,0,1-1.42.6Z"/><path class="cls-11" d="M235.55,206.38a2,2,0,0,1-2-2,1.93,1.93,0,0,1,1.87-2l27.85.26a2.06,2.06,0,0,1,1.42.6,2,2,0,0,1-1.44,3.43Z"/></svg>