<svg id="Layer_1" data-name="Layer 1" xmlns="http://www.w3.org/2000/svg" xmlns:xlink="http://www.w3.org/1999/xlink" viewBox="0 0 500 500"><defs><style>.cls-1{fill:none;}.cls-2{fill:#231f20;}.cls-3{fill:#eff6f9;}.cls-4{fill:#f9d4c5;}.cls-5{fill:#edbfae;}.cls-6{fill:#f15a29;}.cls-7{fill:url(#_10_dpi_30_);}.cls-8{fill:#ef4136;}.cls-9{fill:#e5a900;}.cls-10{fill:#f7bda9;}.cls-11{fill:#00aeef;}.cls-12{fill:#6d4b22;}.cls-13{fill:#dc9b80;}.cls-14{fill:#272223;}</style><pattern id="_10_dpi_30_" data-name="10 dpi 30%" width="28.8" height="28.8" patternTransform="translate(0.03 22.48)" patternUnits="userSpaceOnUse" viewBox="0 0 28.8 28.8"><rect class="cls-1" width="28.8" height="28.8"/><path class="cls-2" d="M28.8,31a2.16,2.16,0,1,0-2.16-2.16A2.16,2.16,0,0,0,28.8,31Z"/><path class="cls-2" d="M14.4,31a2.16,2.16,0,1,0-2.16-2.16A2.16,2.16,0,0,0,14.4,31Z"/><path class="cls-2" d="M28.8,16.56a2.16,2.16,0,1,0-2.16-2.16A2.16,2.16,0,0,0,28.8,16.56Z"/><path class="cls-2" d="M14.4,16.56a2.16,2.16,0,1,0-2.16-2.16A2.16,2.16,0,0,0,14.4,16.56Z"/><path class="cls-2" d="M7.2,23.76A2.16,2.16,0,1,0,5,21.6,2.16,2.16,0,0,0,7.2,23.76Z"/><path class="cls-2" d="M21.6,23.76a2.16,2.16,0,1,0-2.16-2.16A2.16,2.16,0,0,0,21.6,23.76Z"/><path class="cls-2" d="M7.2,9.36A2.16,2.16,0,1,0,5,7.2,2.16,2.16,0,0,0,7.2,9.36Z"/><path class="cls-2" d="M21.6,9.36A2.16,2.16,0,1,0,19.44,7.2,2.16,2.16,0,0,0,21.6,9.36Z"/><path class="cls-2" d="M0,31A2.16,2.16,0,0,0,2.16,28.8,2.16,2.16,0,0,0,0,26.64,2.16,2.16,0,0,0,0,31Z"/><path class="cls-2" d="M0,16.56A2.16,2.16,0,0,0,2.16,14.4,2.16,2.16,0,0,0,0,12.24a2.16,2.16,0,1,0,0,4.32Z"/><path class="cls-2" d="M28.8,2.16A2.16,2.16,0,0,0,31,0a2.16,2.16,0,0,0-4.32,0A2.16,2.16,0,0,0,28.8,2.16Z"/><path class="cls-2" d="M14.4,2.16A2.16,2.16,0,0,0,16.56,0a2.16,2.16,0,1,0-4.32,0A2.16,2.16,0,0,0,14.4,2.16Z"/><path class="cls-2" d="M0,2.16A2.16,2.16,0,0,0,2.16,0,2.16,2.16,0,0,0,0-2.16,2.16,2.16,0,0,0-2.16,0,2.16,2.16,0,0,0,0,2.16Z"/></pattern></defs><title>Tawk_Avatar-Female</title><path class="cls-3" d="M252.22,489.15a177,177,0,1,1,177-177,177,177,0,0,1-177,177"/><path class="cls-4" d="M297.08,367V335l-44.86,32-44.86-32v32c0,13.86-14.11,13.86-14.11,13.86l59,58.72,59-58.72S297.08,380.86,297.08,367Z"/><path class="cls-5" d="M297.08,335l-44.86,32-44.86-32v32c0,.45-.05.85-.08,1.27,24.59,11,44.94,12,44.94,12s20.35-.94,44.94-12c0-.42-.08-.82-.08-1.27Z"/><path class="cls-6" d="M252.22,489.15A176.72,176.72,0,0,0,394.88,416.9l-76.63-33.26h-7.14l-19.05,21.52a53.21,53.21,0,0,1-79.68,0l-19-21.52h-7.14l-77.25,32.41a176.71,176.71,0,0,0,143.28,73.1"/><path class="cls-7" d="M252.22,489.15A176.72,176.72,0,0,0,394.88,416.9l-76.63-33.26h-7.14l-19.05,21.52a53.21,53.21,0,0,1-79.68,0l-19-21.52h-7.14l-77.25,32.41a176.71,176.71,0,0,0,143.28,73.1"/><path class="cls-8" d="M307.66,376.57l-19,17.87a53.2,53.2,0,0,1-72.92,0l-19-17.87-10.59,7.07,21.41,21.57a62.86,62.86,0,0,0,89.24,0l21.41-21.57Z"/><path class="cls-9" d="M440.8,196.6a49.71,49.71,0,0,0-34.11-47.19,49,49,0,0,0-39.57-77.9,49.28,49.28,0,0,0-9.15.86,48.13,48.13,0,0,0-68.9-37.09,48.16,48.16,0,0,0-84.26.81,48.15,48.15,0,0,0-70.67,37.8,48.13,48.13,0,0,0-44.06,79.3,48.16,48.16,0,0,0-7.87,86,48.14,48.14,0,0,0,80.4,51.07,48.11,48.11,0,0,0,72.83,0,48.1,48.1,0,0,0,72.82,0A48.09,48.09,0,0,0,358.12,305a48.17,48.17,0,0,0,57.67-65.31A49.67,49.67,0,0,0,440.8,196.6Z"/><ellipse class="cls-10" cx="136.59" cy="234.67" rx="30.72" ry="35.62"/><ellipse class="cls-10" cx="363.41" cy="234.67" rx="30.72" ry="35.62"/><circle class="cls-11" cx="365.95" cy="268.92" r="10.25"/><circle class="cls-11" cx="365.95" cy="301.73" r="14.81" transform="translate(-87.61 163.01) rotate(-22.5)"/><rect class="cls-11" x="362.77" y="275.1" width="6.36" height="16.62"/><circle class="cls-11" cx="134.05" cy="268.92" r="10.25"/><circle class="cls-11" cx="134.05" cy="301.73" r="14.81" transform="translate(-105.26 74.27) rotate(-22.5)"/><rect class="cls-11" x="130.87" y="275.1" width="6.36" height="16.62"/><path class="cls-4" d="M173.27,124.2a36.68,36.68,0,0,0-36.68,36.68V275.24c0,17.7,51.53,94,111.64,98.72,44.48,3.51,115.18-70.35,115.18-98.72V160.88c0-37.29.29-36.68-36.68-36.68Z"/><path class="cls-12" d="M220.64,197.89a2.86,2.86,0,0,1-1-.07c-.29-.07-30-7.15-47.39,3.52-2,1.23-4.45-.24-5.5-3.28s-.28-6.48,1.71-7.7c19.41-12,50.42-4.54,51.73-4.21,2.24.55,3.94,3.6,3.79,6.83C223.81,195.69,222.42,197.66,220.64,197.89Z"/><path class="cls-12" d="M278.12,197.89a2.83,2.83,0,0,0,1-.07c.3-.07,30-7.15,47.4,3.52,2,1.23,4.45-.24,5.5-3.28s.28-6.48-1.71-7.7c-19.42-12-50.42-4.54-51.74-4.21-2.24.55-3.93,3.6-3.78,6.83C275,195.69,276.35,197.66,278.12,197.89Z"/><path class="cls-13" d="M250.47,323.69a57.56,57.56,0,0,1-31.18-9.47,4,4,0,0,1,4.78-6.49c1.07.78,24.88,17.69,52-.12a4,4,0,1,1,4.42,6.74A54,54,0,0,1,250.47,323.69Z"/><path class="cls-14" d="M221.09,237.81a3.72,3.72,0,0,1-3.66-3.09C216.79,231,212.67,224,201.67,224c-13.9,0-16.74,9.56-16.85,10a3.72,3.72,0,0,1-7.2-1.89c1.38-5.36,8.18-15.51,24-15.51,13.86,0,21.69,8.75,23.09,16.89a3.72,3.72,0,0,1-3,4.3A3.55,3.55,0,0,1,221.09,237.81Z"/><path class="cls-14" d="M196.13,224.5a3.69,3.69,0,0,1-3.59-2.87l-2.08-9.14a3.69,3.69,0,1,1,7.2-1.64l2.08,9.14a3.7,3.7,0,0,1-2.78,4.42A3.91,3.91,0,0,1,196.13,224.5Z"/><path class="cls-14" d="M206.18,223.8a3.34,3.34,0,0,1-.82-.1,3.69,3.69,0,0,1-2.78-4.42l2.08-9.13a3.69,3.69,0,1,1,7.2,1.64l-2.08,9.13A3.69,3.69,0,0,1,206.18,223.8Z"/><path class="cls-14" d="M278.91,237.81a3.72,3.72,0,0,0,3.66-3.09c.64-3.71,4.76-10.72,15.76-10.72,13.9,0,16.74,9.56,16.85,10a3.72,3.72,0,0,0,7.2-1.89c-1.38-5.36-8.18-15.51-24.05-15.51-13.86,0-21.69,8.75-23.09,16.89a3.72,3.72,0,0,0,3,4.3A3.55,3.55,0,0,0,278.91,237.81Z"/><path class="cls-14" d="M303.87,224.5a3.69,3.69,0,0,0,3.59-2.87l2.08-9.14a3.69,3.69,0,1,0-7.2-1.64L300.26,220a3.7,3.7,0,0,0,2.78,4.42A3.91,3.91,0,0,0,303.87,224.5Z"/><path class="cls-14" d="M293.82,223.8a3.34,3.34,0,0,0,.82-.1,3.69,3.69,0,0,0,2.78-4.42l-2.08-9.13a3.69,3.69,0,1,0-7.2,1.64l2.08,9.13A3.69,3.69,0,0,0,293.82,223.8Z"/><circle class="cls-9" cx="158.94" cy="152.96" r="36.49" transform="matrix(0.93, -0.36, 0.36, 0.93, -44.82, 68.46)"/><circle class="cls-9" cx="206.16" cy="124.53" r="36.49" transform="translate(-27.67 182.25) rotate(-45)"/><circle class="cls-9" cx="271.09" cy="121.13" r="48.99" transform="translate(-6.26 227.17) rotate(-45)"/><circle class="cls-9" cx="334.23" cy="117.68" r="36.49" transform="translate(0.56 236.94) rotate(-39.06)"/><path class="cls-5" d="M272.66,262.56c0-2.57-3.59-4.9-7.56-6.63a36.32,36.32,0,0,1-12.66-9.8c-2.57-2.94-5-2.58-7.4.46a33.27,33.27,0,0,1-12.42,9.5c-3.7,1.71-6.94,4-6.94,6.47a9.64,9.64,0,0,0,9.12,9.62,15.75,15.75,0,0,0,28.74,0A9.64,9.64,0,0,0,272.66,262.56Z"/><rect class="cls-5" x="237.45" y="221.48" width="23.43" height="42.76" rx="11.31" ry="11.31"/></svg>