<svg id="Layer_1" data-name="Layer 1" xmlns="http://www.w3.org/2000/svg" viewBox="0 0 500 500"><defs><style>.cls-1{fill:#eff6f9;}.cls-2{fill:#eaba8f;}.cls-3{fill:#dba375;}.cls-4{fill:#f15a29;}.cls-5{fill:#f7941d;}.cls-6{fill:#d8a173;}.cls-7{fill:#272223;}.cls-8{fill:#5c5d64;}.cls-9{fill:#dda373;}.cls-10{fill:#dc9b80;}.cls-11{fill:#414042;}.cls-12{fill:#fff;opacity:0.4;}</style></defs><title>Tawk_Avatar-Male</title><path class="cls-1" d="M250,468.27a177,177,0,1,1,177-177,177,177,0,0,1-177,177"/><path class="cls-2" d="M294.86,346.12v-32l-44.86,32-44.86-32v32C205.14,360,191,360,191,360l59,58.72L309,360S294.86,360,294.86,346.12Z"/><path class="cls-3" d="M294.86,314.12l-44.86,32-44.86-32v32c0,.45,0,.85-.08,1.27,24.59,11,44.94,12,44.94,12s20.35-.94,44.94-12c0-.42-.08-.82-.08-1.27Z"/><path class="cls-4" d="M359.12,430.59c-9.48-19.23-7.13-41.51-5.36-51.45L316,362.76h-7.14l-19.05,21.52a53.21,53.21,0,0,1-79.68,0l-19-21.52H184l-37.82,15.87c1.78,9.67,4.38,32.39-5.27,52a176.84,176.84,0,0,0,218.24,0Z"/><path class="cls-5" d="M305.44,355.69l-19,17.87a53.2,53.2,0,0,1-72.92,0l-19-17.87L184,362.76l21.41,21.57a62.86,62.86,0,0,0,89.24,0L316,362.76Z"/><ellipse class="cls-6" cx="136.59" cy="200.13" rx="30.72" ry="35.62"/><ellipse class="cls-6" cx="363.41" cy="200.13" rx="30.72" ry="35.62"/><path class="cls-2" d="M173.27,89.66a36.68,36.68,0,0,0-36.68,36.67V240.7c0,62.63,71.56,110.66,111.64,110.49,38.92-.17,115.18-47.86,115.18-110.49V126.33a36.68,36.68,0,0,0-36.68-36.67Z"/><path class="cls-7" d="M294.26,262.86c-8.24-4.47-80.28-4.47-88.52,0-5.9,3.19-5,8.66-4.46,13.16v52a15.08,15.08,0,0,0,7.17,12.88c26,15.85,41.76,14.15,41.76,14.15s16.88-1.06,40.91-14.74a15.12,15.12,0,0,0,7.61-13.14V275.92C299.25,271.44,300.11,266,294.26,262.86ZM287.77,292c0,1.42-.06,2.74-.09,3.86l.09-.05v0A13.29,13.29,0,0,1,274.37,309h-4.22s-1.16-7.33-19.94-7.33S230.27,309,230.27,309h-4.22a13.29,13.29,0,0,1-13.4-13.18V270.39c3-2.9,33.26,0,37.35-.41,4.28.46,37.15-2.77,37.61.83.07.53.12,1.19.16,1.94Z"/><path class="cls-8" d="M219.58,204a4,4,0,0,1-4-3.35c-.69-4-5.15-11.61-17.06-11.61-15.07,0-18.14,10.35-18.26,10.79a4.05,4.05,0,0,1-4.94,2.83,4,4,0,0,1-2.86-4.87C174,192,181.35,181,198.55,181c15,0,23.48,9.48,25,18.3a4,4,0,0,1-4,4.72Z"/><path class="cls-8" d="M282.21,204a4,4,0,0,1-4-4.72c1.53-8.82,10-18.3,25-18.3,17.2,0,24.57,11,26.06,16.81a4,4,0,0,1-7.8,2c-.15-.52-3.25-10.79-18.26-10.79-11.91,0-16.37,7.6-17.06,11.61A4,4,0,0,1,282.21,204Z"/><path class="cls-9" d="M278.73,233.69c0-3.15-4.39-6-9.24-8.11-6.07-2.65-11.14-7-15.49-12-3.14-3.6-6.15-3.17-9.06.56a40.68,40.68,0,0,1-15.18,11.62c-4.52,2.09-8.49,4.86-8.49,7.91a11.79,11.79,0,0,0,11.16,11.77,19.26,19.26,0,0,0,35.14,0A11.79,11.79,0,0,0,278.73,233.69Z"/><path class="cls-10" d="M250.47,289.14a57.6,57.6,0,0,1-31.18-9.46,4,4,0,0,1,4.78-6.49c1.07.78,24.88,17.69,52-.13a4,4,0,0,1,4.42,6.75A54.08,54.08,0,0,1,250.47,289.14Z"/><rect class="cls-9" x="235.67" y="184.51" width="28.66" height="52.29" rx="11.31" ry="11.31"/><path class="cls-7" d="M162.48,84.2c-8,0-15.46,8.21-17.5,11-10.08,13.94-10.58,31.06-10.58,51.25,0,14.41-2.51,30.89,2.19,43.67,10.53,2.47,9.87-20.14,13-51.17A106.28,106.28,0,0,1,165.47,95,54.33,54.33,0,0,0,162.48,84.2Z"/><path class="cls-7" d="M335.65,83c8,0,17.33,9.43,19.37,12.25,10.08,13.94,10.58,31.06,10.58,51.25,0,14.41,2.51,30.89-2.19,43.67-10.53,2.47-9.87-20.14-13-51.17-.87-8.56-7.42-36.43-23.67-49.32C327.91,84.21,333.75,88.12,335.65,83Z"/><path class="cls-11" d="M139.28,176.85l17.82-7.72-2.56,16.38-19.21,3.81-.73-3.3A8.09,8.09,0,0,1,139.28,176.85Z"/><path class="cls-11" d="M360.72,176.85l-17.82-7.72,2.53,15.07,19.24,5.12.73-3.3A8.09,8.09,0,0,0,360.72,176.85Z"/><path class="cls-11" d="M232,179.28a37,37,0,0,1,.41,10.35c6.6-1,21.88-2.54,35.84.83a22.68,22.68,0,0,1,1.82-9.44C263.1,177.85,250,174.2,232,179.28Z"/><path class="cls-11" d="M236.53,185.13v-2l0-.3c0-.67-1.71-16.59-28.11-18.39-23.74-1.62-50.54,1.14-51.67,1.25h0a3.5,3.5,0,0,0-2.71,1.83h0c-.23.42-1.68,3.38-2.48,10.17l-.27,0,.15,1.09q-.07.82-.15,1.71l.36-.2,3.87,28.25c1.32,9.63,10.23,16.9,20.72,16.9h33.6c9.48,0,17.79-5.93,20.2-14.42l7.29-25.69Zm-14.17,24c-1.49,5.27-6.65,8.95-12.54,8.95h-33.6c-6.52,0-12.05-4.51-12.87-10.49l-4.23-30.85-.41,0a35.86,35.86,0,0,1,.92-4.4c6.88-.62,29-2.35,48.29-1s21.43,10.86,21.61,11.92v.63Z"/><path class="cls-11" d="M262.87,185.32l7.3,25.69c2.41,8.49,10.72,14.42,20.2,14.42H324c10.49,0,19.4-7.27,20.72-16.9l3.87-28.25.36.2q-.07-.89-.15-1.71l.15-1.09-.27,0c-.8-6.79-2.25-9.75-2.48-10.17h0a3.5,3.5,0,0,0-2.72-1.83h0c-1.12-.11-27.92-2.87-51.66-1.25-26.4,1.8-28.06,17.72-28.12,18.39v2.35Zm7.79-1.4v-.63c.18-1.06,2.28-10.6,21.61-11.92s41.41.41,48.29,1a35.86,35.86,0,0,1,.92,4.4l-.42,0-4.22,30.85c-.82,6-6.35,10.49-12.87,10.49h-33.6c-5.89,0-11.05-3.68-12.54-8.95Z"/><path class="cls-12" d="M222.36,209.15c-1.49,5.27-6.65,8.95-12.54,8.95h-33.6c-6.52,0-12.05-4.51-12.87-10.49l-4.23-30.85-.41,0a35.86,35.86,0,0,1,.92-4.4c6.88-.62,29-2.35,48.29-1s21.43,10.86,21.61,11.92v.63Z"/><path class="cls-12" d="M270.66,183.92v-.63c.18-1.06,2.28-10.6,21.61-11.92s41.41.41,48.29,1a35.86,35.86,0,0,1,.92,4.4l-.42,0-4.22,30.85c-.82,6-6.35,10.49-12.87,10.49h-33.6c-5.89,0-11.05-3.68-12.54-8.95Z"/><path class="cls-7" d="M324.65,35c-5.48,12.33-29.49,11.53-44.08,9.81Q275,43.65,269.15,43h0A171.19,171.19,0,0,0,250,42c-36.64,0-74.81,11.2-93.46,43.61,1.67,5.14-1,18.45,0,23.89,15.09-14.1,62-9.39,94.26-9.39l50.35-3.94c9.8,0,33.31-2.46,36.32-11.79l0-.16c-.13-.23,6.51,5.68,6.38,5.46C353.59,67.72,331.88,18.7,324.65,35Z"/><path class="cls-2" d="M146.15,378.63l-39.43,16.54a177.82,177.82,0,0,0,34.16,35.42C150.53,411,147.93,388.3,146.15,378.63Z"/><path class="cls-2" d="M392.66,396l-38.9-16.88c-1.77,9.94-4.12,32.22,5.36,51.45A178.06,178.06,0,0,0,392.66,396Z"/></svg>