<svg id="Layer_1" data-name="Layer 1" xmlns="http://www.w3.org/2000/svg" viewBox="0 0 500 500"><defs><style>.cls-1{fill:#eff6f9;}.cls-2{fill:#42281b;}.cls-3{fill:#ae8162;}.cls-4{fill:#9b6b4b;}.cls-5{fill:#e6e7e8;}.cls-6{fill:#ff6864;}.cls-7{fill:#9b6c4c;}.cls-8{fill:#fbb040;}.cls-9{fill:#dc9b80;}.cls-10{fill:#272223;}.cls-11{fill:#afbdc9;}</style></defs><title>Tawk_Avatar-Female</title><path class="cls-1" d="M250,488a177,177,0,1,1,177-177A177,177,0,0,1,250,488"/><path class="cls-2" d="M412.36,180.2c16.35-9.82,23.53-29.82,16.07-47.64-6.63-15.81-22.82-25.14-39.56-24.31a38,38,0,0,0-9-49.32,41.66,41.66,0,0,0-46.77-3.58c.7-18.55-12.49-35.48-32-39.47a41,41,0,0,0-43,18c-8.42-16.71-28.31-25.68-47.47-20.38-17,4.7-28.33,19.24-29.22,35.37a41.59,41.59,0,0,0-51.85,3.48A37.94,37.94,0,0,0,121,96.81C101.87,94.2,83,105.08,76.87,123.35c-5.47,16.22.71,33.39,14.08,43.12-18.12,6.33-29.45,24.46-26,43.38C68,226.65,81.85,239,98.4,241.55a37.9,37.9,0,0,0-1.82,50.06c10.9,13.44,29.12,18.11,45,12.86-4.69,18,4.56,37.21,22.77,45a41.69,41.69,0,0,0,38.16-2.73,40.53,40.53,0,0,0,36.8,22.85c17.7,0,32.74-11,38.21-26.24,11.84,14.65,33.23,19.44,50.83,10.42a38.57,38.57,0,0,0,21-40.45c17.59,7.58,38.81,2.13,50-13.8a37.81,37.81,0,0,0-1.2-45.19c19.22-1.27,35.3-15.69,37.39-34.79C437.29,202.59,427.54,187,412.36,180.2Z"/><path class="cls-3" d="M294.86,365.86v-32l-44.86,32-44.86-32v32c0,13.86-14.11,13.86-14.11,13.86l59,58.72,59-58.72S294.86,379.72,294.86,365.86Z"/><path class="cls-4" d="M294.86,333.86l-44.86,32-44.86-32v32c0,.45,0,.85-.08,1.27,24.59,11,44.94,12,44.94,12s20.35-.94,44.94-12c0-.42-.08-.82-.08-1.27Z"/><path class="cls-5" d="M250,488a176.7,176.7,0,0,0,142.66-72.25L316,382.5h-7.14L289.84,404a53.21,53.21,0,0,1-79.68,0l-19-21.53H184l-77.25,32.41A176.71,176.71,0,0,0,250,488"/><path class="cls-6" d="M305.44,375.43l-19,17.87a53.2,53.2,0,0,1-72.92,0l-19-17.87L184,382.5l21.41,21.57a62.86,62.86,0,0,0,89.24,0L316,382.5Z"/><ellipse class="cls-7" cx="136.59" cy="224.75" rx="30.72" ry="35.62"/><ellipse class="cls-7" cx="363.41" cy="224.75" rx="30.72" ry="35.62"/><path class="cls-8" d="M136.59,313a32.11,32.11,0,1,1,32.11-32.11A32.14,32.14,0,0,1,136.59,313Zm0-56.21a24.11,24.11,0,1,0,24.11,24.1A24.13,24.13,0,0,0,136.59,256.75Z"/><path class="cls-8" d="M361.74,313a32.11,32.11,0,1,1,32.1-32.11A32.15,32.15,0,0,1,361.74,313Zm0-56.21a24.11,24.11,0,1,0,24.1,24.1A24.13,24.13,0,0,0,361.74,256.75Z"/><path class="cls-3" d="M173.27,114.28A36.68,36.68,0,0,0,136.59,151V265.32c0,55.78,63.86,104.18,111.64,104.29,47.51.1,115.18-54.26,115.18-104.29V151a36.68,36.68,0,0,0-36.68-36.68Z"/><circle class="cls-2" cx="249.17" cy="120.4" r="46.03"/><circle class="cls-2" cx="324.16" cy="111.95" r="37.58" transform="translate(141.81 402.4) rotate(-76.93)"/><circle class="cls-2" cx="175.84" cy="111.95" r="37.58" transform="translate(27.03 257.93) rotate(-76.93)"/><circle class="cls-2" cx="123" cy="151.86" r="37.58" transform="translate(-71.36 131.45) rotate(-45)"/><circle class="cls-2" cx="377" cy="151.86" r="37.58" transform="translate(3.04 311.06) rotate(-45)"/><path class="cls-4" d="M273.84,256.09c0-2.61-3.65-5-7.67-6.73a36.76,36.76,0,0,1-12.85-9.94c-2.61-3-5.11-2.62-7.52.47a33.57,33.57,0,0,1-12.59,9.64c-3.75,1.74-7.05,4-7.05,6.56a9.79,9.79,0,0,0,9.26,9.77,16,16,0,0,0,29.16,0A9.79,9.79,0,0,0,273.84,256.09Z"/><path class="cls-2" d="M220.64,188a2.86,2.86,0,0,1-1-.07c-.29-.07-30-7.15-47.39,3.52-2,1.23-4.45-.24-5.5-3.28s-.28-6.48,1.7-7.71c19.42-11.94,50.43-4.53,51.74-4.21,2.24.55,3.94,3.61,3.79,6.84C223.81,185.77,222.42,187.74,220.64,188Z"/><path class="cls-2" d="M278.12,188a2.83,2.83,0,0,0,1-.07c.3-.07,30-7.15,47.4,3.52,2,1.23,4.45-.24,5.5-3.28s.28-6.48-1.71-7.71c-19.42-11.94-50.42-4.53-51.74-4.21-2.24.55-3.93,3.61-3.78,6.84C275,185.77,276.35,187.74,278.12,188Z"/><path class="cls-9" d="M250.47,313.77a57.56,57.56,0,0,1-31.18-9.47,4,4,0,0,1,4.78-6.49c1.07.78,24.88,17.69,52-.12a4,4,0,1,1,4.42,6.74A54,54,0,0,1,250.47,313.77Z"/><path class="cls-10" d="M218.68,229.61a4,4,0,0,1-4-3.35c-.7-4-5.16-11.61-17.07-11.61-15.06,0-18.14,10.35-18.26,10.79a4,4,0,0,1-7.8-2.05c1.5-5.81,8.87-16.8,26.06-16.8,15,0,23.49,9.48,25,18.29a4,4,0,0,1-3.28,4.66A3.39,3.39,0,0,1,218.68,229.61Z"/><path class="cls-10" d="M191.65,215.19a4,4,0,0,1-3.9-3.11l-2.25-9.9a4,4,0,0,1,7.8-1.78l2.25,9.9a4,4,0,0,1-3,4.79A3.92,3.92,0,0,1,191.65,215.19Z"/><path class="cls-10" d="M202.53,214.43a3.92,3.92,0,0,1-.89-.1,4,4,0,0,1-3-4.79l2.25-9.89a4,4,0,1,1,7.81,1.77l-2.26,9.9A4,4,0,0,1,202.53,214.43Z"/><path class="cls-10" d="M281.32,229.61a4,4,0,0,0,4-3.35c.69-4,5.15-11.61,17.06-11.61,15.06,0,18.14,10.35,18.26,10.79a4,4,0,0,0,7.8-2.05c-1.5-5.81-8.87-16.8-26.06-16.8-15,0-23.49,9.48-25,18.29a4,4,0,0,0,3.29,4.66A3.23,3.23,0,0,0,281.32,229.61Z"/><path class="cls-10" d="M308.35,215.19a4,4,0,0,0,3.9-3.11l2.25-9.9a4,4,0,1,0-7.8-1.78l-2.25,9.9a4,4,0,0,0,3,4.79A3.92,3.92,0,0,0,308.35,215.19Z"/><path class="cls-10" d="M297.47,214.43a3.92,3.92,0,0,0,.89-.1,4,4,0,0,0,3-4.79l-2.25-9.89a4,4,0,1,0-7.8,1.77l2.25,9.9A4,4,0,0,0,297.47,214.43Z"/><rect class="cls-4" x="237.28" y="215.29" width="23.77" height="43.38" rx="11.31" ry="11.31"/><path class="cls-11" d="M263.75,487.5l-6-65.13-7.67-7.15v-.16l-.09.08-.08-.08v.16l-7.66,7.15-6,65.13C236.27,488.18,263.75,488.18,263.75,487.5Z"/><polygon class="cls-11" points="250.06 405.12 249.97 405.12 233.48 405.12 242.27 427.66 250.01 427.66 250.03 427.66 257.77 427.66 265.9 405.12 250.06 405.12"/></svg>