<svg id="Layer_1" data-name="Layer 1" xmlns="http://www.w3.org/2000/svg" xmlns:xlink="http://www.w3.org/1999/xlink" viewBox="0 0 500 500"><defs><style>.cls-1{fill:none;}.cls-2{fill:#eff6f9;}.cls-3{fill:#ffe1cc;}.cls-4{fill:#efd1bd;}.cls-5{fill:#58595b;}.cls-6{fill:#f1f2f2;}.cls-7{fill:#a7a9ac;}.cls-8{fill:#ffc7b6;}.cls-9{fill:#fbb040;}.cls-10{fill:#353d42;}.cls-11{fill:#5c5d64;}.cls-12{fill:#272223;}.cls-13{fill:#dc9b80;}.cls-14{fill:#acc4dd;}.cls-15{fill:#9097a0;}.cls-16{clip-path:url(#clip-path);}.cls-17{fill:#fff;}</style><clipPath id="clip-path"><path class="cls-1" d="M351.53,121.91c-4.07-1.55-43.88-15.49-119-1.19S129.17,161.94,126.34,164.8a2.26,2.26,0,0,1-2.23-1.62l-8.46-30.08c-.27-1-.53-1.94-.78-2.9a10.61,10.61,0,0,1,4.85-12C137.17,108.08,174,89.64,224.5,80A357.05,357.05,0,0,1,332,76.11a13.14,13.14,0,0,1,10.89,9.09c.32,1,.62,2.06.92,3.1l8.82,31.35A1.81,1.81,0,0,1,351.53,121.91Z"/></clipPath></defs><title>Tawk_Avatar-Female</title><path class="cls-2" d="M250,488.68a177,177,0,1,0-177-177,177,177,0,0,0,177,177"/><path class="cls-3" d="M205.14,366.53v-32l44.86,32,44.86-32v32c0,13.86,14.11,13.86,14.11,13.86l-59,58.72-59-58.72S205.14,380.39,205.14,366.53Z"/><path class="cls-4" d="M205.14,334.52l44.86,32,44.86-32v32c0,.45.05.84.08,1.26-24.59,11-44.94,12-44.94,12s-20.35-.94-44.94-12c0-.42.08-.81.08-1.26Z"/><path class="cls-5" d="M250,488.68a176.7,176.7,0,0,1-142.66-72.25L184,383.16h7.14l19,21.53a53.21,53.21,0,0,0,79.68,0l19.05-21.53H316l77.25,32.41A176.69,176.69,0,0,1,250,488.68"/><path class="cls-6" d="M328.2,470.49s-70-66.82-156.41,0C171.79,470.49,243.67,511.67,328.2,470.49Z"/><path class="cls-7" d="M194.56,376.1l19,17.86a53.2,53.2,0,0,0,72.92,0l19-17.86L316,383.16l-21.41,21.58a62.87,62.87,0,0,1-89.24,0L184,383.16Z"/><ellipse class="cls-8" cx="363.72" cy="241.14" rx="30.72" ry="35.62"/><ellipse class="cls-8" cx="136.9" cy="241.14" rx="30.72" ry="35.62"/><rect class="cls-9" x="125.74" y="260.3" width="9" height="48.86" rx="4.5" ry="4.5"/><path class="cls-10" d="M404.33,108.8c-7.34,4.66-28.1-2.3-28.1-2.3,12.67-6.33,4.39-37.56,4.39-37.56-13,18-37.25,37.06-73.86,34.56-7-1.16-52.66-34.1-60-34.1h0a129.36,129.36,0,0,0-63.14,16.35c-46.29,25.8-71.52,77.82-64.54,130.35l2.69,30.56h250l2.68-30.56A131.2,131.2,0,0,0,363.63,144C402.83,137.12,404.33,108.8,404.33,108.8Z"/><path class="cls-3" d="M323.8,149.93a38.92,38.92,0,0,1,38.92,38.48l1,88.34c0,17.7-51.53,92.21-111.64,96.95-44.48,3.51-115.18-68.58-115.18-96.95l-1-87.46a38.93,38.93,0,0,1,38.93-39.36Z"/><path class="cls-10" d="M150.45,144.56s17.33,33.54,60.67,36.81l-14-27.39s45.37,34,83.37,30.67l-27-28.67s54.44,21,95.39,19.19l4.29-29.94-36-20.86-133.17,3Z"/><path class="cls-11" d="M325.05,237.85c1.37,1.2,3.11,1.6,4.16.86l5.62-4c1.22-.86,1.05-2.93-.37-4.62s-3.57-2.36-4.8-1.5l-5.61,4c-1.23.86-1.06,2.93.36,4.62A5.53,5.53,0,0,0,325.05,237.85Z"/><path class="cls-11" d="M280.7,239.91a3.49,3.49,0,0,0,2.5-1c.82-.83,19.94-19.74,42-.53a3.5,3.5,0,0,0,4.6-5.28c-27.12-23.61-51.38.67-51.62.92a3.49,3.49,0,0,0,2.51,5.94Z"/><path class="cls-11" d="M177.23,237.85c-1.37,1.2-3.11,1.6-4.16.86l-5.62-4c-1.22-.86-1-2.93.37-4.62s3.57-2.36,4.8-1.5l5.61,4c1.23.86,1.06,2.93-.36,4.62A5.53,5.53,0,0,1,177.23,237.85Z"/><path class="cls-11" d="M177.23,237.85c-1.37,1.2-3.11,1.6-4.16.86l-5.62-4c-1.22-.86-1-2.93.37-4.62s3.57-2.36,4.8-1.5l5.61,4c1.23.86,1.06,2.93-.36,4.62A5.53,5.53,0,0,1,177.23,237.85Z"/><path class="cls-11" d="M221.58,239.91a3.49,3.49,0,0,1-2.5-1c-.81-.83-19.94-19.74-42-.53a3.5,3.5,0,1,1-4.6-5.28c27.12-23.61,51.38.67,51.62.92a3.49,3.49,0,0,1-2.51,5.94Z"/><path class="cls-8" d="M226.48,274.66c0-2.61,3.64-5,7.67-6.73A36.81,36.81,0,0,0,247,258c2.61-3,5.11-2.62,7.52.47a33.57,33.57,0,0,0,12.59,9.64c3.75,1.74,7,4,7,6.56a9.79,9.79,0,0,1-9.26,9.77,16,16,0,0,1-29.16,0A9.79,9.79,0,0,1,226.48,274.66Z"/><path class="cls-12" d="M279.67,204.36a2.86,2.86,0,0,0,1-.07c.29-.07,30-7.15,47.39,3.52,2,1.23,4.45-.24,5.5-3.28s.29-6.48-1.7-7.71c-19.42-11.94-50.43-4.53-51.74-4.21-2.24.55-3.94,3.61-3.79,6.84C276.5,202.16,277.89,204.13,279.67,204.36Z"/><path class="cls-12" d="M222.19,204.36a2.84,2.84,0,0,1-1-.07c-.3-.07-30-7.15-47.4,3.52-2,1.23-4.45-.24-5.5-3.28s-.28-6.48,1.71-7.71c19.42-11.94,50.43-4.53,51.74-4.21,2.24.55,3.93,3.61,3.78,6.84C225.36,202.16,224,204.13,222.19,204.36Z"/><path class="cls-13" d="M249.84,330.16A57.52,57.52,0,0,0,281,320.69a4,4,0,0,0-4.78-6.49c-1.07.78-24.88,17.69-52-.12a4,4,0,0,0-4.42,6.74A54,54,0,0,0,249.84,330.16Z"/><path class="cls-8" d="M251.14,277.24h0a10,10,0,0,0,10-10V243.86a10,10,0,0,0-10-10h0a10,10,0,0,0-10,10v23.38A10,10,0,0,0,251.14,277.24Z"/><circle class="cls-8" cx="183" cy="276.68" r="12.01"/><circle class="cls-8" cx="316.19" cy="276.68" r="12.01"/><path class="cls-14" d="M340.86,89.08C323.58,49.29,314.63,3.3,222.62,19.6c-96,17-109.19,73.95-103.06,116.23C141,124.79,227.07,84.68,340.86,89.08Z"/><path class="cls-15" d="M119.15,117.35a11.51,11.51,0,0,0-5.26,13c.25,1,.51,1.95.78,2.92l8.47,30.08a3.34,3.34,0,0,0,3.74,2.4s26.38-28.9,106-44S351.55,123,351.55,123a2.72,2.72,0,0,0,2.08-3.51l-8.82-31.35c-.29-1-.6-2.09-.92-3.12a14.31,14.31,0,0,0-11.84-9.88C226.4,63,148.16,100.49,119.15,117.35Z"/><g class="cls-16"><polygon class="cls-17" points="132.54 167.13 131.57 167.31 111.15 94.76 112.13 94.58 132.54 167.13"/><polygon class="cls-17" points="141.88 165.35 140.91 165.54 120.49 92.98 121.47 92.8 141.88 165.35"/><polygon class="cls-17" points="151.23 163.57 150.25 163.76 129.84 91.2 130.81 91.02 151.23 163.57"/><polygon class="cls-17" points="160.57 161.79 159.59 161.98 139.18 89.43 140.15 89.24 160.57 161.79"/><polygon class="cls-17" points="169.91 160.01 168.93 160.2 148.52 87.65 149.49 87.46 169.91 160.01"/><polygon class="cls-17" points="179.25 158.23 178.27 158.42 157.86 85.87 158.84 85.68 179.25 158.23"/><polygon class="cls-17" points="188.59 156.46 187.61 156.64 167.2 84.09 168.18 83.9 188.59 156.46"/><polygon class="cls-17" points="197.93 154.68 196.95 154.86 176.54 82.31 177.52 82.12 197.93 154.68"/><polygon class="cls-17" points="207.27 152.9 206.29 153.08 185.88 80.53 186.86 80.34 207.27 152.9"/><polygon class="cls-17" points="216.61 151.12 215.63 151.3 195.22 78.75 196.2 78.57 216.61 151.12"/><polygon class="cls-17" points="225.95 149.34 224.97 149.52 204.56 76.97 205.54 76.79 225.95 149.34"/><polygon class="cls-17" points="235.29 147.56 234.31 147.75 213.9 75.19 214.88 75.01 235.29 147.56"/><polygon class="cls-17" points="244.63 145.78 243.66 145.97 223.24 73.41 224.22 73.23 244.63 145.78"/><polygon class="cls-17" points="253.97 144 253 144.19 232.58 71.64 233.56 71.45 253.97 144"/><polygon class="cls-17" points="263.31 142.22 262.34 142.41 241.92 69.86 242.9 69.67 263.31 142.22"/><polygon class="cls-17" points="272.65 140.44 271.68 140.63 251.26 68.08 252.24 67.89 272.65 140.44"/><polygon class="cls-17" points="282 138.66 281.02 138.85 260.61 66.3 261.58 66.11 282 138.66"/><polygon class="cls-17" points="291.34 136.88 290.36 137.07 269.95 64.52 270.92 64.33 291.34 136.88"/><polygon class="cls-17" points="300.68 135.1 299.7 135.29 279.29 62.74 280.26 62.55 300.68 135.1"/><polygon class="cls-17" points="310.02 133.33 309.04 133.51 288.63 60.96 289.61 60.77 310.02 133.33"/><polygon class="cls-17" points="319.36 131.55 318.38 131.73 297.97 59.18 298.94 58.99 319.36 131.55"/><polygon class="cls-17" points="328.7 129.77 327.72 129.95 307.31 57.4 308.29 57.22 328.7 129.77"/><polygon class="cls-17" points="338.04 127.99 337.06 128.18 316.65 55.62 317.63 55.44 338.04 127.99"/><polygon class="cls-17" points="347.38 126.21 346.4 126.4 325.99 53.84 326.97 53.66 347.38 126.21"/></g></svg>