<svg id="Layer_1" data-name="Layer 1" xmlns="http://www.w3.org/2000/svg" viewBox="0 0 500 500"><defs><style>.cls-1{fill:#eff6f9;}.cls-2{fill:#ee38ab;}.cls-3{fill:#fae0bb;}.cls-4{fill:#efd1bd;}.cls-5{fill:#ed1c24;}.cls-6{fill:#be1e2d;}.cls-7{fill:#facfaf;}.cls-8{fill:#f2bd99;}.cls-9{fill:#272223;}</style></defs><title>Tawk_Avatar-Female</title><path class="cls-1" d="M247.79,490.72a177,177,0,1,1,177-177,177,177,0,0,1-177,177"/><path d="M370.16,332.81,248.55,188.91V88a78.71,78.71,0,0,1,78.7-78.7h0A78.71,78.71,0,0,1,406,88V296.33C406,316.09,389.92,332.81,370.16,332.81Z"/><path class="cls-2" d="M275.3,28.89A78.86,78.86,0,0,1,295.44,16C347.28,33.63,342,65.71,342,65.71A131.65,131.65,0,0,0,275.3,28.89Z"/><path class="cls-3" d="M292.65,368.57v-32l-44.86,32-44.86-32v32c0,13.86-14.11,13.86-14.11,13.86l59,58.72,59-58.72S292.65,382.43,292.65,368.57Z"/><path class="cls-4" d="M292.65,341.4l-44.86,32-44.86-32v32c0,.45-.05.84-.08,1.26,24.59,11,44.94,12,44.94,12s20.35-.94,44.94-12c0-.42-.08-.81-.08-1.26Z"/><path class="cls-5" d="M356.91,453c-9.48-19.24-7.13-41.52-5.36-51.46l-37.73-16.37h-7.14l-19.05,21.52a53.21,53.21,0,0,1-79.68,0l-19-21.52h-7.14l-37.82,15.86c1.78,9.67,4.38,32.4-5.27,52a176.84,176.84,0,0,0,218.24,0Z"/><path class="cls-6" d="M303.23,378.14l-19,17.87a53.2,53.2,0,0,1-72.92,0l-19-17.87-10.59,7.07,21.41,21.57a62.87,62.87,0,0,0,89.24,0l21.41-21.57Z"/><path class="cls-3" d="M143.94,401.07l-39.43,16.55A178.08,178.08,0,0,0,138.67,453C148.32,433.47,145.72,410.74,143.94,401.07Z"/><path class="cls-3" d="M390.45,418.47l-38.9-16.89c-1.77,9.94-4.12,32.22,5.36,51.46A178.35,178.35,0,0,0,390.45,418.47Z"/><path d="M323.29,288.13H429.17a0,0,0,0,1,0,0v5.06a52.94,52.94,0,0,1-52.94,52.94h0a52.94,52.94,0,0,1-52.94-52.94v-5.06A0,0,0,0,1,323.29,288.13Z"/><path d="M377.49,240.48H119.8l-3-76.74A132,132,0,0,1,248.64,26.55h0A132,132,0,0,1,380.52,163.74Z"/><ellipse class="cls-7" cx="135.23" cy="229.28" rx="30.72" ry="35.62"/><ellipse class="cls-7" cx="362.05" cy="229.28" rx="30.72" ry="35.62"/><path class="cls-3" d="M171.91,118.81a36.68,36.68,0,0,0-36.68,36.68V269.85c0,62.64,71.56,110.66,111.64,110.49,38.92-.16,115.18-47.85,115.18-110.49V155.49a36.68,36.68,0,0,0-36.67-36.68Z"/><path class="cls-8" d="M272.48,263.33c0-2.61-3.65-5-7.67-6.73A36.94,36.94,0,0,1,252,246.66c-2.61-3-5.1-2.62-7.51.47a33.68,33.68,0,0,1-12.6,9.64c-3.75,1.74-7,4-7,6.56a9.77,9.77,0,0,0,9.26,9.76,16,16,0,0,0,29.15,0A9.77,9.77,0,0,0,272.48,263.33Z"/><rect class="cls-8" x="239.01" y="222.53" width="19.26" height="43.38" rx="9.63" ry="9.63"/><path class="cls-9" d="M219.73,232.31a3.72,3.72,0,0,1-3.66-3.09c-.64-3.71-4.76-10.72-15.75-10.72-13.91,0-16.75,9.56-16.86,10a3.74,3.74,0,0,1-4.56,2.61,3.7,3.7,0,0,1-2.64-4.5c1.38-5.37,8.19-15.52,24.06-15.52,13.85,0,21.68,8.76,23.08,16.89a3.71,3.71,0,0,1-3,4.3A3.47,3.47,0,0,1,219.73,232.31Z"/><path class="cls-9" d="M194.78,219a3.69,3.69,0,0,1-3.6-2.87L189.1,207a3.69,3.69,0,0,1,7.2-1.64l2.08,9.14a3.69,3.69,0,0,1-2.78,4.42A3.88,3.88,0,0,1,194.78,219Z"/><path class="cls-9" d="M204.83,218.3a3.91,3.91,0,0,1-.83-.09,3.69,3.69,0,0,1-2.78-4.42l2.08-9.14a3.69,3.69,0,1,1,7.2,1.64l-2.08,9.14A3.69,3.69,0,0,1,204.83,218.3Z"/><path class="cls-9" d="M277.55,232.31a3.74,3.74,0,0,0,3.67-3.09c.64-3.71,4.75-10.72,15.75-10.72,13.91,0,16.74,9.56,16.85,10a3.75,3.75,0,0,0,4.56,2.61,3.7,3.7,0,0,0,2.64-4.5c-1.38-5.37-8.18-15.52-24-15.52-13.86,0-21.68,8.76-23.09,16.89a3.72,3.72,0,0,0,3,4.3A3.55,3.55,0,0,0,277.55,232.31Z"/><path class="cls-9" d="M302.51,219a3.71,3.71,0,0,0,3.6-2.87l2.08-9.14a3.7,3.7,0,0,0-7.21-1.64l-2.08,9.14a3.7,3.7,0,0,0,2.78,4.42A4,4,0,0,0,302.51,219Z"/><path class="cls-9" d="M292.46,218.3a3.81,3.81,0,0,0,.82-.09,3.68,3.68,0,0,0,2.78-4.42L294,204.65a3.69,3.69,0,0,0-7.2,1.64l2.08,9.14A3.69,3.69,0,0,0,292.46,218.3Z"/><path d="M174.33,138.24l-2.52,20.28s-29.23-2.88-36.79,35.14L133,133.94Z"/><path d="M324,138.24l.55.6-.13-.6,39.5-.8-1.82,56.32c.19-8.45-.09.06-.1,0l-.15-1.31c-3.23-25.62-25-33.92-50.84-33.92H184.3l-11.12-20.28Z"/><rect x="132.37" y="103.23" width="232.12" height="35.82"/><circle class="cls-8" cx="315.24" cy="261.59" r="12.01"/><circle class="cls-8" cx="182.04" cy="261.59" r="12.01"/><path d="M219.9,196.62a2.85,2.85,0,0,1-1-.06c-.29-.07-30-7.16-47.39,3.52-2,1.22-4.45-.25-5.5-3.28s-.28-6.49,1.7-7.71c19.42-12,50.43-4.53,51.74-4.21,2.24.55,3.94,3.61,3.79,6.83C223.07,194.43,221.68,196.39,219.9,196.62Z"/><path d="M277.38,196.62a2.84,2.84,0,0,0,1-.06c.3-.07,30-7.16,47.4,3.52,2,1.22,4.45-.25,5.5-3.28s.28-6.49-1.71-7.71c-19.42-12-50.43-4.53-51.74-4.21-2.24.55-3.93,3.61-3.78,6.83C274.21,194.43,275.61,196.39,277.38,196.62Z"/><path class="cls-8" d="M250,322.13a57.57,57.57,0,0,1-31.19-9.47,4,4,0,0,1,4.79-6.49c1.06.78,24.87,17.69,52-.12a4,4,0,1,1,4.43,6.74A54,54,0,0,1,250,322.13Z"/></svg>