<svg id="Layer_1" data-name="Layer 1" xmlns="http://www.w3.org/2000/svg" viewBox="0 0 500 500"><defs><style>.cls-1{fill:#eff6f9;}.cls-2{fill:#fbb040;}.cls-3{fill:#ae8162;}.cls-4{fill:#9b6b4b;}.cls-5{fill:#f15a29;}.cls-6{fill:#29abe2;}.cls-7{fill:#ef4136;}.cls-8{fill:#9b6c4c;}.cls-9{fill:#42281b;}.cls-10{fill:#dc9b80;}.cls-11{fill:#272223;}</style></defs><title>Tawk_Avatar-Female</title><path class="cls-1" d="M250,483.79a177,177,0,1,1,177-177,177,177,0,0,1-177,177"/><path class="cls-2" d="M313.91,342.06c-44.08,13.07-87.69,12.75-132.2-.58-43.51-13-75.3-48.62-79.91-90.79l-8-73.5c-9.32-85.21,60.49-161,154-161h0c93.52,0,163.33,75.77,154,161l-8.1,74.17C389.08,293.47,357.42,329.18,313.91,342.06Z"/><path class="cls-3" d="M294.86,361.64v-32l-44.86,32-44.86-32v32c0,13.86-14.11,13.86-14.11,13.86l59,58.72,59-58.72S294.86,375.5,294.86,361.64Z"/><path class="cls-4" d="M294.86,329.64l-44.86,32-44.86-32v32c0,.45,0,.85-.08,1.27,24.59,11,44.94,12,44.94,12s20.35-.94,44.94-12c0-.42-.08-.82-.08-1.27Z"/><path class="cls-5" d="M250,483.79a176.7,176.7,0,0,0,142.66-72.25L316,378.28h-7.14L289.84,399.8a53.21,53.21,0,0,1-79.68,0l-19-21.52H184l-77.25,32.41A176.71,176.71,0,0,0,250,483.79"/><path class="cls-6" d="M250,483.79a176.06,176.06,0,0,0,97.62-29.37V386l-31.9-11.69v36.89a27.61,27.61,0,0,1-27.61,27.61H211.27a27.61,27.61,0,0,1-27.61-27.61V375.44l-31.9,12.23V454A176.06,176.06,0,0,0,250,483.79Z"/><path class="cls-7" d="M305.44,371.21l-19,17.87a53.2,53.2,0,0,1-72.92,0l-19-17.87L184,378.28l21.41,21.57a62.86,62.86,0,0,0,89.24,0L316,378.28Z"/><ellipse class="cls-8" cx="134.37" cy="229.31" rx="30.72" ry="35.62"/><ellipse class="cls-8" cx="361.19" cy="229.31" rx="30.72" ry="35.62"/><path class="cls-3" d="M171.05,118.84a36.68,36.68,0,0,0-36.68,36.68V269.88c0,17.7,51.53,94,111.64,98.72,44.48,3.51,115.18-70.35,115.18-98.72V155.52c0-37.29.29-36.68-36.68-36.68Z"/><path class="cls-2" d="M134.33,190.45c44.46-8.26,56.8-67.63,56.8-67.63s-2.87,56.91,170,67.63l11.54-32.38-14-58.68L261.06,86.73l-90.63-3.82L124.79,115.6v35.13Z"/><path class="cls-9" d="M218.42,192.53a2.86,2.86,0,0,1-1-.07c-.29-.07-30-7.15-47.39,3.52-2,1.23-4.45-.24-5.5-3.28s-.28-6.48,1.71-7.7c19.41-11.95,50.42-4.54,51.73-4.21,2.25.55,3.94,3.6,3.79,6.83C221.59,190.33,220.2,192.3,218.42,192.53Z"/><path class="cls-9" d="M275.9,192.53a2.83,2.83,0,0,0,1-.07c.3-.07,30-7.15,47.4,3.52,2,1.23,4.45-.24,5.5-3.28s.28-6.48-1.71-7.7c-19.42-11.95-50.42-4.54-51.74-4.21-2.24.55-3.93,3.6-3.78,6.83C272.73,190.33,274.13,192.3,275.9,192.53Z"/><path class="cls-10" d="M248.26,318.33a57.48,57.48,0,0,1-31.19-9.47,4,4,0,0,1,4.78-6.49c1.07.78,24.88,17.69,52-.12a4,4,0,1,1,4.42,6.74A54,54,0,0,1,248.26,318.33Z"/><path class="cls-4" d="M271.62,267.15c0-2.6-3.65-5-7.67-6.73a36.94,36.94,0,0,1-12.85-9.93c-2.61-3-5.1-2.63-7.51.46a33.68,33.68,0,0,1-12.6,9.64c-3.75,1.74-7,4-7,6.56a9.79,9.79,0,0,0,9.25,9.77,16,16,0,0,0,29.16,0A9.79,9.79,0,0,0,271.62,267.15Z"/><path class="cls-4" d="M247,269.74h0a10.45,10.45,0,0,1-10.45-10.45V236.8A10.45,10.45,0,0,1,247,226.35h0A10.45,10.45,0,0,1,257.4,236.8v22.49A10.45,10.45,0,0,1,247,269.74Z"/><path class="cls-11" d="M218.87,232.45a3.72,3.72,0,0,1-3.66-3.09c-.64-3.71-4.76-10.72-15.76-10.72-13.9,0-16.74,9.56-16.85,10a3.72,3.72,0,0,1-7.2-1.89c1.38-5.36,8.18-15.51,24-15.51,13.86,0,21.69,8.75,23.09,16.89a3.72,3.72,0,0,1-3,4.3A3.47,3.47,0,0,1,218.87,232.45Z"/><path class="cls-11" d="M193.92,219.14a3.69,3.69,0,0,1-3.6-2.87l-2.08-9.14a3.69,3.69,0,0,1,7.2-1.64l2.08,9.14a3.7,3.7,0,0,1-2.78,4.42A3.88,3.88,0,0,1,193.92,219.14Z"/><path class="cls-11" d="M204,218.44a3.34,3.34,0,0,1-.82-.1,3.69,3.69,0,0,1-2.78-4.42l2.08-9.13a3.69,3.69,0,0,1,7.2,1.64l-2.08,9.13A3.69,3.69,0,0,1,204,218.44Z"/><path class="cls-11" d="M276.69,232.45a3.72,3.72,0,0,0,3.66-3.09c.64-3.71,4.76-10.72,15.76-10.72,13.9,0,16.74,9.56,16.85,10a3.72,3.72,0,0,0,7.2-1.89c-1.38-5.36-8.18-15.51-24.05-15.51-13.86,0-21.69,8.75-23.09,16.89a3.72,3.72,0,0,0,3,4.3A3.55,3.55,0,0,0,276.69,232.45Z"/><path class="cls-11" d="M301.65,219.14a3.69,3.69,0,0,0,3.59-2.87l2.08-9.14a3.69,3.69,0,1,0-7.2-1.64L298,214.63a3.7,3.7,0,0,0,2.78,4.42A3.91,3.91,0,0,0,301.65,219.14Z"/><path class="cls-11" d="M291.6,218.44a3.29,3.29,0,0,0,.82-.1,3.69,3.69,0,0,0,2.78-4.42l-2.08-9.13a3.69,3.69,0,0,0-7.2,1.64l2.08,9.13A3.69,3.69,0,0,0,291.6,218.44Z"/></svg>