<svg id="Layer_1" data-name="Layer 1" xmlns="http://www.w3.org/2000/svg" viewBox="0 0 500 500"><defs><style>.cls-1{fill:#eff6f9;}.cls-2{fill:#f4d6b0;}.cls-3{fill:#e0bb94;}.cls-4{fill:#58595b;}.cls-5{fill:#f1f2f2;}.cls-6{fill:#a7a9ac;}.cls-7{fill:#662d91;}.cls-8{fill:#ee38ab;}.cls-9{fill:#facfaf;}.cls-10{fill:#fae0bb;}.cls-11{fill:#f2bd99;}.cls-12{fill:#272223;}.cls-13{fill:#dc9b80;}.cls-14{fill:#414042;}</style></defs><title>Tawk_Avatar-Female</title><path class="cls-1" d="M250,475.16a177,177,0,1,1,177-177,177,177,0,0,1-177,177"/><path class="cls-2" d="M294.86,353V321L250,353l-44.86-32v32c0,13.86-14.11,13.86-14.11,13.86l59,58.72,59-58.72S294.86,366.87,294.86,353Z"/><path class="cls-3" d="M294.86,321,250,353l-44.86-32v32c0,.45,0,.85-.08,1.27,24.59,11,44.94,12,44.94,12s20.35-.93,44.94-12c0-.42-.08-.82-.08-1.27Z"/><path class="cls-4" d="M250,475.16a176.7,176.7,0,0,0,142.66-72.25L316,369.65h-7.14l-19.05,21.52a53.21,53.21,0,0,1-79.68,0l-19-21.52H184l-77.25,32.41A176.71,176.71,0,0,0,250,475.16"/><path class="cls-5" d="M171.8,457s70-66.83,156.41,0C328.21,457,256.33,498.15,171.8,457Z"/><path class="cls-6" d="M305.44,362.58l-19,17.87a53.2,53.2,0,0,1-72.92,0l-19-17.87L184,369.65l21.41,21.57a62.87,62.87,0,0,0,89.24,0L316,369.65Z"/><path class="cls-7" d="M360.91,309.64h16.93a15,15,0,0,0,14.77-12.54l2.75-16.81a15,15,0,0,0-14.77-17.38H358.16a15,15,0,0,0-14.76,17.38l2.75,16.81A15,15,0,0,0,360.91,309.64Z"/><path class="cls-7" d="M360.91,270.62h16.93a15,15,0,0,0,14.77-12.54l2.75-16.81a15,15,0,0,0-14.77-17.37H358.16a15,15,0,0,0-14.76,17.37l2.75,16.81A15,15,0,0,0,360.91,270.62Z"/><path class="cls-7" d="M360.91,231.61h16.93a15,15,0,0,0,14.77-12.55l2.75-16.8a15,15,0,0,0-14.77-17.38H358.16a15,15,0,0,0-14.76,17.38l2.75,16.8A15,15,0,0,0,360.91,231.61Z"/><path class="cls-7" d="M360.91,192.59h16.93A15,15,0,0,0,392.61,180l2.75-16.8a15,15,0,0,0-14.77-17.38H358.16a15,15,0,0,0-14.76,17.38l2.75,16.8A15,15,0,0,0,360.91,192.59Z"/><path class="cls-7" d="M360.91,153.57h16.93A15,15,0,0,0,392.61,141l2.75-16.81a15,15,0,0,0-14.77-17.37H358.16a15,15,0,0,0-14.76,17.37L346.15,141A15,15,0,0,0,360.91,153.57Z"/><circle class="cls-7" cx="365.03" cy="104.2" r="22.49" transform="translate(179.75 435.53) rotate(-76.72)"/><path class="cls-7" d="M360.91,348.91h16.93a15,15,0,0,0,14.77-12.55l2.75-16.8a15,15,0,0,0-14.77-17.38H358.16a15,15,0,0,0-14.76,17.38l2.75,16.8A15,15,0,0,0,360.91,348.91Z"/><path class="cls-7" d="M362.53,399.11h13.7c5.93,0,11.38-5.41,13-13.2l4.07-20.09c2.49-12.26-3.44-24.37-12.67-24.37H358.16c-9.23,0-15.15,12.11-12.67,24.37l4.08,20.09C351.15,393.7,356.6,399.11,362.53,399.11Z"/><path class="cls-8" d="M356.9,410.05h25a8.7,8.7,0,0,0,8.7-8.7h0a8.71,8.71,0,0,0-8.7-8.7h-25a8.7,8.7,0,0,0-8.7,8.7h0A8.69,8.69,0,0,0,356.9,410.05Z"/><path class="cls-7" d="M353.42,409.12h31.92a23.41,23.41,0,0,1,2.46,23l-11.78,27a7.25,7.25,0,0,1-13.28,0l-11.78-27a23.38,23.38,0,0,1,2.46-23Z"/><path class="cls-7" d="M122.19,309.64h16.93a15,15,0,0,0,14.76-12.54l2.75-16.81a15,15,0,0,0-14.76-17.38H119.44a15,15,0,0,0-14.77,17.38l2.75,16.81A15,15,0,0,0,122.19,309.64Z"/><path class="cls-7" d="M122.19,270.62h16.93a15,15,0,0,0,14.76-12.54l2.75-16.81a15,15,0,0,0-14.76-17.37H119.44a15,15,0,0,0-14.77,17.37l2.75,16.81A15,15,0,0,0,122.19,270.62Z"/><path class="cls-7" d="M122.19,231.61h16.93a15,15,0,0,0,14.76-12.55l2.75-16.8a15,15,0,0,0-14.76-17.38H119.44a15,15,0,0,0-14.77,17.38l2.75,16.8A15,15,0,0,0,122.19,231.61Z"/><path class="cls-7" d="M122.19,192.59h16.93A15,15,0,0,0,153.88,180l2.75-16.8a15,15,0,0,0-14.76-17.38H119.44a15,15,0,0,0-14.77,17.38l2.75,16.8A15,15,0,0,0,122.19,192.59Z"/><path class="cls-7" d="M122.19,153.57h16.93A15,15,0,0,0,153.88,141l2.75-16.81a15,15,0,0,0-14.76-17.37H119.44a15,15,0,0,0-14.77,17.37L107.42,141A15,15,0,0,0,122.19,153.57Z"/><circle class="cls-7" cx="126.31" cy="104.2" r="22.49" transform="translate(-36.69 119.83) rotate(-45)"/><path class="cls-7" d="M122.19,348.91h16.93a15,15,0,0,0,14.76-12.55l2.75-16.8a15,15,0,0,0-14.76-17.38H119.44a15,15,0,0,0-14.77,17.38l2.75,16.8A15,15,0,0,0,122.19,348.91Z"/><path class="cls-7" d="M123.8,399.11h13.7c5.93,0,11.38-5.41,13-13.2l4.08-20.09c2.48-12.26-3.44-24.37-12.67-24.37H119.44c-9.23,0-15.16,12.11-12.67,24.37l4.07,20.09C112.42,393.7,117.87,399.11,123.8,399.11Z"/><path class="cls-8" d="M118.17,410.05h25a8.69,8.69,0,0,0,8.7-8.7h0a8.7,8.7,0,0,0-8.7-8.7h-25a8.71,8.71,0,0,0-8.7,8.7h0A8.7,8.7,0,0,0,118.17,410.05Z"/><path class="cls-7" d="M114.69,409.12h31.92a23.38,23.38,0,0,1,2.46,23l-11.78,27a7.25,7.25,0,0,1-13.28,0l-11.77-27a23.38,23.38,0,0,1,2.45-23Z"/><path class="cls-7" d="M374.68,202h-250L122,171.43c-7-52.53,18.24-104.56,64.53-130.35a129.33,129.33,0,0,1,63.15-16.36h0a129.33,129.33,0,0,1,63.15,16.36c46.29,25.79,71.52,77.82,64.53,130.35Z"/><ellipse class="cls-9" cx="136.28" cy="227.62" rx="30.72" ry="35.62"/><ellipse class="cls-9" cx="363.1" cy="227.62" rx="30.72" ry="35.62"/><path class="cls-10" d="M137.72,136.41l-1.44,126.82c0,17.7,51.53,92.22,111.64,97,44.48,3.5,115.18-68.59,115.18-97l1.43-126.82Z"/><path class="cls-11" d="M273.52,261.14c0-2.6-3.64-5-7.67-6.73A36.9,36.9,0,0,1,253,244.48c-2.61-3-5.11-2.63-7.52.46a33.57,33.57,0,0,1-12.59,9.64c-3.75,1.74-7.05,4-7.05,6.56a9.79,9.79,0,0,0,9.26,9.77,16,16,0,0,0,29.16,0A9.79,9.79,0,0,0,273.52,261.14Z"/><path class="cls-12" d="M220.33,190.84a2.86,2.86,0,0,1-1-.07c-.29-.07-30-7.15-47.39,3.52-2,1.23-4.45-.24-5.5-3.28s-.29-6.48,1.7-7.7c19.42-11.95,50.43-4.54,51.74-4.21,2.24.55,3.94,3.6,3.79,6.83C223.5,188.64,222.11,190.61,220.33,190.84Z"/><path class="cls-12" d="M277.81,190.84a2.84,2.84,0,0,0,1-.07c.3-.07,30-7.15,47.4,3.52,2,1.23,4.45-.24,5.5-3.28s.28-6.48-1.71-7.7c-19.42-11.95-50.43-4.54-51.74-4.21-2.24.55-3.93,3.6-3.78,6.83C274.64,188.64,276,190.61,277.81,190.84Z"/><path class="cls-13" d="M250.16,316.64A57.42,57.42,0,0,1,219,307.17a4,4,0,0,1,4.78-6.49c1.07.78,24.88,17.69,52-.12a4,4,0,1,1,4.42,6.74A54,54,0,0,1,250.16,316.64Z"/><path class="cls-11" d="M248.86,263.73h0a10,10,0,0,1-10-10V230.34a10,10,0,0,1,10-10h0a10,10,0,0,1,10,10v23.39A10,10,0,0,1,248.86,263.73Z"/><circle class="cls-11" cx="317" cy="263.16" r="12.01"/><circle class="cls-11" cx="183.81" cy="263.16" r="12.01"/><path class="cls-7" d="M175.59,136.41l-2.52,20.28s-28.65-2.78-36.21,35.24l-2.65-59.82Z"/><path class="cls-7" d="M325.25,136.41l.55.6-.13-.6,39.5-.79L364,191.93c.18-8.45-.1.06-.1,0-.05-.45-.1-.88-.16-1.32-3.23-25.62-25.67-33.92-51.5-33.92H185.56l-11.12-20.28Z"/><rect class="cls-7" x="133.63" y="101.41" width="232.12" height="35.82"/><path class="cls-12" d="M221.78,230.06a3.6,3.6,0,0,1-3.54-3c-.62-3.58-4.59-10.34-15.21-10.34-13.43,0-16.17,9.22-16.27,9.62a3.62,3.62,0,0,1-4.4,2.52,3.58,3.58,0,0,1-2.56-4.35c1.34-5.18,7.91-15,23.23-15,13.38,0,20.93,8.45,22.29,16.31a3.59,3.59,0,0,1-2.93,4.15A3.15,3.15,0,0,1,221.78,230.06Z"/><path class="cls-12" d="M197.68,217.21a3.55,3.55,0,0,1-3.47-2.78l-2-8.82a3.56,3.56,0,1,1,7-1.58l2,8.82a3.56,3.56,0,0,1-2.68,4.27A3.7,3.7,0,0,1,197.68,217.21Z"/><path class="cls-12" d="M207.38,216.53a3.57,3.57,0,0,1-3.48-4.36l2-8.82a3.56,3.56,0,1,1,7,1.59l-2,8.82A3.57,3.57,0,0,1,207.38,216.53Z"/><path class="cls-12" d="M277.6,230.06a3.6,3.6,0,0,0,3.54-3c.62-3.58,4.59-10.34,15.21-10.34,13.43,0,16.16,9.22,16.27,9.62a3.6,3.6,0,0,0,7-1.83c-1.34-5.18-7.91-15-23.23-15-13.38,0-20.94,8.45-22.29,16.31A3.59,3.59,0,0,0,277,230,3.15,3.15,0,0,0,277.6,230.06Z"/><path class="cls-12" d="M301.7,217.21a3.57,3.57,0,0,0,3.47-2.78l2-8.82a3.56,3.56,0,1,0-6.95-1.58l-2,8.82a3.56,3.56,0,0,0,2.68,4.27A3.7,3.7,0,0,0,301.7,217.21Z"/><path class="cls-12" d="M292,216.53a3.57,3.57,0,0,0,3.48-4.36l-2-8.82a3.57,3.57,0,0,0-7,1.59l2,8.82A3.57,3.57,0,0,0,292,216.53Z"/><path class="cls-14" d="M234.16,252H154.9a4,4,0,0,1-4-4V193.39a4,4,0,0,1,4-4h79.26a4,4,0,0,1,4,4V248A4,4,0,0,1,234.16,252Zm-75.26-8h71.26V197.39H158.9Z"/><path class="cls-14" d="M343.43,252H264.16a4,4,0,0,1-4-4V193.39a4,4,0,0,1,4-4h79.27a4,4,0,0,1,4,4V248A4,4,0,0,1,343.43,252Zm-75.27-8h71.27V197.39H268.16Z"/><path class="cls-14" d="M262.91,219.37H234.16a4,4,0,1,1,0-8h28.75a4,4,0,0,1,0,8Z"/><path class="cls-14" d="M344.92,219.37a4,4,0,0,1-3.1-6.53l19.09-23.44a4,4,0,0,1,6.21,5L348,217.89A4,4,0,0,1,344.92,219.37Z"/><path class="cls-14" d="M153.67,219.37a4,4,0,0,1-3.26-1.67l-16.8-23.44a4,4,0,0,1,6.5-4.66L156.91,213a4,4,0,0,1-3.24,6.34Z"/></svg>