<svg id="Layer_1" data-name="Layer 1" xmlns="http://www.w3.org/2000/svg" viewBox="0 0 500 500"><defs><style>.cls-1{fill:#eff6f9;}.cls-2{fill:#ffe1cc;}.cls-3{fill:#efd1bd;}.cls-4{fill:#fbb040;}.cls-5{fill:#ff6864;}.cls-6{fill:#ffc7b6;}.cls-7{fill:#ef2240;}.cls-8{fill:#dc9b80;}.cls-9{fill:#5c5d64;}.cls-10{fill:#414042;}.cls-11{fill:#fff;opacity:0.4;}</style></defs><title>Tawk_Avatar-Female</title><path class="cls-1" d="M250,492.66a177,177,0,1,0-177-177,177,177,0,0,0,177,177"/><path class="cls-2" d="M205.14,370.51v-32l44.86,32,44.86-32v32c0,13.86,14.11,13.86,14.11,13.86l-59,58.72-59-58.72S205.14,384.37,205.14,370.51Z"/><path class="cls-3" d="M205.14,338.5l44.86,32,44.86-32v32c0,.45.05.85.08,1.27-24.59,11-44.94,12-44.94,12s-20.35-.93-44.94-12c0-.42.08-.82.08-1.27Z"/><path class="cls-4" d="M250,492.66a176.7,176.7,0,0,1-142.66-72.25L184,387.15h7.14l19,21.52a53.21,53.21,0,0,0,79.68,0l19.05-21.52H316l77.25,32.41A176.71,176.71,0,0,1,250,492.66"/><rect class="cls-5" x="242.84" y="414.11" width="15.75" height="41.5" rx="7.87" ry="7.87"/><path class="cls-5" d="M194.56,380.08l19,17.87a53.2,53.2,0,0,0,72.92,0l19-17.87L316,387.15l-21.41,21.57a62.86,62.86,0,0,1-89.24,0L184,387.15Z"/><ellipse class="cls-6" cx="361.45" cy="227.54" rx="30.72" ry="35.62"/><ellipse class="cls-6" cx="134.63" cy="227.54" rx="30.72" ry="35.62"/><path class="cls-7" d="M399.55,154.84a39.46,39.46,0,0,0-27.08-37.47A38.9,38.9,0,0,0,333.78,56.2a38.22,38.22,0,0,0-54.71-29.46,38.24,38.24,0,0,0-66.91.65A38.23,38.23,0,0,0,156,57.4a37.49,37.49,0,0,0-6.31-.53,38.22,38.22,0,0,0-28.68,63.5,38.23,38.23,0,0,0-6.24,68.3,38.23,38.23,0,0,0,63.84,40.56,38.21,38.21,0,0,0,57.83,0,38.2,38.2,0,0,0,57.82,0,38.24,38.24,0,0,0,39.6,11.71,38.24,38.24,0,0,0,48.91-36.71,38,38,0,0,0-3.12-15.15A39.45,39.45,0,0,0,399.55,154.84Z"/><path class="cls-2" d="M361.45,124.9V268.11c0,62.64-51.53,105.75-111.64,110.49-44.48,3.51-115.18-47.85-115.18-110.49V124.9Z"/><path class="cls-7" d="M348.54,111.69a35.09,35.09,0,0,0-20.37,6.49,35.23,35.23,0,0,0-58.64-21,35.23,35.23,0,0,0-47.75.21,35.22,35.22,0,0,0-58.36,18.1,35.23,35.23,0,1,0,18.5,39.15A35.2,35.2,0,0,0,221.78,149a35.2,35.2,0,0,0,47.75.21,35.2,35.2,0,0,0,44.14,2.73,35.23,35.23,0,1,0,34.87-40.21Z"/><path class="cls-8" d="M247.57,312a57.52,57.52,0,0,0,31.19-9.47,4,4,0,0,0-4.79-6.48c-1.06.77-24.87,17.68-52-.13a4,4,0,1,0-4.43,6.74A54,54,0,0,0,247.57,312Z"/><path class="cls-7" d="M277.4,190.76a2.86,2.86,0,0,0,1-.07c.3-.07,30-7.15,47.39,3.52,2,1.23,4.45-.24,5.5-3.28s.29-6.48-1.7-7.71c-19.42-11.94-50.43-4.53-51.74-4.21-2.24.55-3.94,3.61-3.79,6.84C274.23,188.56,275.62,190.53,277.4,190.76Z"/><path class="cls-7" d="M219.92,190.76a2.86,2.86,0,0,1-1-.07c-.3-.07-30-7.15-47.4,3.52-2,1.23-4.45-.24-5.49-3.28s-.29-6.48,1.7-7.71c19.42-11.94,50.43-4.53,51.74-4.21,2.24.55,3.94,3.61,3.79,6.84C223.09,188.56,221.69,190.53,219.92,190.76Z"/><circle class="cls-6" cx="181.44" cy="263.16" r="12.01"/><circle class="cls-6" cx="314.64" cy="263.16" r="12.01"/><path class="cls-6" d="M224.55,257.11c0-2.57,3.59-4.9,7.56-6.63a36.41,36.41,0,0,0,12.66-9.79c2.57-2.95,5-2.59,7.41.46a33.26,33.26,0,0,0,12.41,9.5c3.7,1.71,6.94,4,6.94,6.46a9.65,9.65,0,0,1-9.12,9.63,15.75,15.75,0,0,1-28.74,0A9.65,9.65,0,0,1,224.55,257.11Z"/><rect class="cls-6" x="236.33" y="216.04" width="23.43" height="42.76" rx="11.31" ry="11.31" transform="translate(496.08 474.83) rotate(-180)"/><path class="cls-9" d="M322,218c1.37,1.21,3.11,1.6,4.16.86l5.62-4c1.22-.86,1.06-2.93-.37-4.62s-3.57-2.36-4.79-1.5L321,212.72c-1.22.86-1.06,2.93.37,4.62A5.45,5.45,0,0,0,322,218Z"/><path class="cls-9" d="M277.6,220a3.47,3.47,0,0,0,2.5-1c.82-.83,19.94-19.74,42-.53a3.49,3.49,0,0,0,4.59-5.27c-27.12-23.62-51.37.66-51.62.91A3.5,3.5,0,0,0,277.6,220Z"/><path class="cls-9" d="M174.14,218c-1.38,1.21-3.11,1.6-4.17.86l-5.61-4c-1.23-.86-1.06-2.93.36-4.62s3.58-2.36,4.8-1.5l5.62,3.95c1.22.86,1.05,2.93-.37,4.62A6.36,6.36,0,0,1,174.14,218Z"/><path class="cls-9" d="M174.14,218c-1.38,1.21-3.11,1.6-4.17.86l-5.61-4c-1.23-.86-1.06-2.93.36-4.62s3.58-2.36,4.8-1.5l5.62,3.95c1.22.86,1.05,2.93-.37,4.62A6.36,6.36,0,0,1,174.14,218Z"/><path class="cls-9" d="M218.48,220a3.51,3.51,0,0,1-2.5-1c-.81-.83-19.94-19.74-42-.53a3.5,3.5,0,1,1-4.6-5.27c27.12-23.62,51.38.66,51.62.91a3.49,3.49,0,0,1-2.51,5.94Z"/><path class="cls-10" d="M140.42,198.8l14.72-6.38-2.56,16.39-19.21,3.8h0A12.19,12.19,0,0,1,140.42,198.8Z"/><path class="cls-10" d="M355.66,198.8l-14.72-6.38,2.53,15.08,19.24,5.11h0A12.18,12.18,0,0,0,355.66,198.8Z"/><path class="cls-10" d="M230.06,202.57a36.7,36.7,0,0,1,.41,10.36c6.6-1,21.88-2.54,35.85.83a22.53,22.53,0,0,1,1.81-9.45C261.14,201.14,248,197.49,230.06,202.57Z"/><path class="cls-10" d="M234.57,208.42v-2.34c-.06-.68-1.72-16.6-28.12-18.4-23.74-1.62-50.53,1.14-51.66,1.26h0a3.5,3.5,0,0,0-2.72,1.82h0c-.23.43-1.68,3.38-2.47,10.18l-.28,0,.15,1.09c-.05.55-.1,1.12-.15,1.72l.36-.21,3.87,28.25c1.32,9.63,10.23,16.9,20.72,16.9h33.6c9.48,0,17.79-5.93,20.2-14.42l7.3-25.69Zm-14.16,24a12.86,12.86,0,0,1-12.55,8.95h-33.6c-6.51,0-12-4.51-12.87-10.49l-4.22-30.85a37.45,37.45,0,0,1,.5-4.36c6.88-.62,29-2.35,48.29-1s21.44,10.87,21.61,11.92v.63Z"/><path class="cls-10" d="M260.92,208.61l7.29,25.69c2.41,8.49,10.72,14.42,20.21,14.42H322c10.5,0,19.41-7.27,20.72-16.9l3.87-28.25.36.21c0-.6-.1-1.17-.15-1.72L347,201l-.27,0c-.8-6.8-2.25-9.75-2.48-10.18h0a3.47,3.47,0,0,0-2.71-1.82h0c-1.13-.12-27.92-2.88-51.67-1.26-26.4,1.8-28.06,17.72-28.11,18.4l0,.29v2Zm7.78-1.4v-.63c.18-1.05,2.28-10.6,21.61-11.92s41.41.41,48.29,1a35.82,35.82,0,0,1,.51,4.36l-4.23,30.85c-.82,6-6.35,10.49-12.87,10.49H288.42c-5.9,0-11.06-3.68-12.55-8.95Z"/><path class="cls-11" d="M220.41,232.44a12.86,12.86,0,0,1-12.55,8.95h-33.6c-6.51,0-12-4.51-12.87-10.49l-4.22-30.85a37.45,37.45,0,0,1,.5-4.36c6.88-.62,29-2.35,48.29-1s21.44,10.87,21.61,11.92v.63Z"/><path class="cls-11" d="M268.7,207.21v-.63c.18-1.05,2.28-10.6,21.61-11.92s41.41.41,48.29,1a35.82,35.82,0,0,1,.51,4.36l-4.23,30.85c-.82,6-6.35,10.49-12.87,10.49H288.42c-5.9,0-11.06-3.68-12.55-8.95Z"/></svg>