<svg id="Layer_1" data-name="Layer 1" xmlns="http://www.w3.org/2000/svg" viewBox="0 0 500 500"><defs><style>.cls-1{fill:#eff6f9;}.cls-2{fill:#3c2415;}.cls-3{fill:#e5a193;}.cls-4{fill:#cc867a;}.cls-5{fill:#00a79d;}.cls-6{fill:#ce7d6f;}.cls-7{fill:#272223;}.cls-8{fill:#ea9081;}</style></defs><title>Tawk_Avatar-Female</title><path class="cls-1" d="M252.22,489.15a177,177,0,1,1,177-177,177,177,0,0,1-177,177"/><path class="cls-2" d="M175.5,373.58a32,32,0,1,0-28.09,31.51A32,32,0,0,0,175.5,373.58Z"/><path class="cls-2" d="M207.28,367.18a32,32,0,1,0-28.1,31.5A32,32,0,0,0,207.28,367.18Z"/><path class="cls-2" d="M341.63,367.18a32,32,0,1,0-28.09,31.5A32,32,0,0,0,341.63,367.18Z"/><path class="cls-2" d="M383.63,367.18a32,32,0,1,0-28.09,31.5A32,32,0,0,0,383.63,367.18Z"/><path class="cls-3" d="M297.08,367V335l-44.86,32-44.86-32v32c0,13.86-15,15.19-15,15.19l59.88,57.39,61.23-56.5S297.08,380.86,297.08,367Z"/><path class="cls-4" d="M297.08,335l-44.86,32-44.86-32v32c0,.45-.05.85-.08,1.27,24.59,11,44.94,12,44.94,12s20.35-.94,44.94-12c0-.42-.08-.82-.08-1.27Z"/><path class="cls-5" d="M252.22,489.15A176.72,176.72,0,0,0,394.88,416.9l-49-21.57-34.8-11.69-19.05,21.52a53.21,53.21,0,0,1-79.68,0l-19-21.52-35,11.69-49.39,20.72a176.71,176.71,0,0,0,143.28,73.1"/><path class="cls-2" d="M440.8,230.77c0-26.05-14.3-48.13-34.11-55.87a65.06,65.06,0,0,0,9.44-34.21c0-32-21.94-58-49-58a42.07,42.07,0,0,0-9.15,1C355,55.65,334.73,34,310.23,34a42,42,0,0,0-21.16,5.79c-8.28-17.26-23.93-28.92-41.9-28.92-18.3,0-34.21,12.09-42.36,29.89A42.17,42.17,0,0,0,182.06,34c-25,0-45.58,22.6-47.92,51.5a41,41,0,0,0-7.94-.78c-26.59,0-48.15,25.52-48.15,57a63.12,63.12,0,0,0,12,37.67C72,187.6,59.2,208.32,59.2,232.59c0,20.58,9.21,38.61,23,48.63a65.78,65.78,0,0,0-4.16,23.19c0,31.49,21.56,57,48.15,57,14.55,0,27.58-7.65,36.41-19.73,8.83,12.08,21.86,19.73,36.41,19.73s27.59-7.65,36.42-19.73c8.82,12.08,21.86,19.73,36.41,19.73s27.58-7.65,36.41-19.73c8.83,12.08,21.86,19.73,36.41,19.73a41.19,41.19,0,0,0,13.45-2.27,41.19,41.19,0,0,0,13.45,2.27c26.6,0,48.15-25.52,48.15-57a65.88,65.88,0,0,0-3.93-22.59C430.73,271.68,440.8,252.62,440.8,230.77Z"/><ellipse class="cls-4" cx="136.59" cy="234.67" rx="30.72" ry="35.62"/><ellipse class="cls-4" cx="363.41" cy="234.67" rx="30.72" ry="35.62"/><path class="cls-3" d="M173.27,124.2a36.68,36.68,0,0,0-36.68,36.68V275.24c0,17.7,51.53,94,111.64,98.72,44.48,3.51,115.18-70.35,115.18-98.72V160.88c0-37.29.29-36.68-36.68-36.68Z"/><path class="cls-2" d="M220.64,197.89a2.86,2.86,0,0,1-1-.07c-.29-.07-30-7.15-47.39,3.52-2,1.23-4.45-.24-5.5-3.28s-.28-6.48,1.71-7.7c19.41-12,50.42-4.54,51.73-4.21,2.24.55,3.94,3.6,3.79,6.83C223.81,195.69,222.42,197.66,220.64,197.89Z"/><path class="cls-2" d="M278.12,197.89a2.83,2.83,0,0,0,1-.07c.3-.07,30-7.15,47.4,3.52,2,1.23,4.45-.24,5.5-3.28s.28-6.48-1.71-7.7c-19.42-12-50.42-4.54-51.74-4.21-2.24.55-3.93,3.6-3.78,6.83C275,195.69,276.35,197.66,278.12,197.89Z"/><path class="cls-6" d="M250.47,323.69a57.56,57.56,0,0,1-31.18-9.47,4,4,0,0,1,4.78-6.49c1.07.78,24.88,17.69,52-.12a4,4,0,1,1,4.42,6.74A54,54,0,0,1,250.47,323.69Z"/><path class="cls-7" d="M221.09,237.81a3.72,3.72,0,0,1-3.66-3.09C216.79,231,212.67,224,201.67,224c-13.9,0-16.74,9.56-16.85,10a3.72,3.72,0,0,1-7.2-1.89c1.38-5.36,8.18-15.51,24-15.51,13.86,0,21.69,8.75,23.09,16.89a3.72,3.72,0,0,1-3,4.3A3.55,3.55,0,0,1,221.09,237.81Z"/><path class="cls-7" d="M196.13,224.5a3.69,3.69,0,0,1-3.59-2.87l-2.08-9.14a3.69,3.69,0,1,1,7.2-1.64l2.08,9.14a3.7,3.7,0,0,1-2.78,4.42A3.91,3.91,0,0,1,196.13,224.5Z"/><path class="cls-7" d="M206.18,223.8a3.34,3.34,0,0,1-.82-.1,3.69,3.69,0,0,1-2.78-4.42l2.08-9.13a3.69,3.69,0,1,1,7.2,1.64l-2.08,9.13A3.69,3.69,0,0,1,206.18,223.8Z"/><path class="cls-7" d="M278.91,237.81a3.72,3.72,0,0,0,3.66-3.09c.64-3.71,4.76-10.72,15.76-10.72,13.9,0,16.74,9.56,16.85,10a3.72,3.72,0,0,0,7.2-1.89c-1.38-5.36-8.18-15.51-24.05-15.51-13.86,0-21.69,8.75-23.09,16.89a3.72,3.72,0,0,0,3,4.3A3.55,3.55,0,0,0,278.91,237.81Z"/><path class="cls-7" d="M303.87,224.5a3.69,3.69,0,0,0,3.59-2.87l2.08-9.14a3.69,3.69,0,1,0-7.2-1.64L300.26,220a3.7,3.7,0,0,0,2.78,4.42A3.91,3.91,0,0,0,303.87,224.5Z"/><path class="cls-7" d="M293.82,223.8a3.34,3.34,0,0,0,.82-.1,3.69,3.69,0,0,0,2.78-4.42l-2.08-9.13a3.69,3.69,0,1,0-7.2,1.64l2.08,9.13A3.69,3.69,0,0,0,293.82,223.8Z"/><circle class="cls-2" cx="158.94" cy="152.96" r="36.49" transform="translate(-44.82 68.46) rotate(-21.38)"/><circle class="cls-2" cx="202.49" cy="152.96" r="24.52" transform="translate(-50.44 173.56) rotate(-41.73)"/><circle class="cls-2" cx="220" cy="118.52" r="24.52" transform="translate(-23.08 176.49) rotate(-41.73)"/><circle class="cls-2" cx="330.03" cy="152.96" r="36.49" transform="translate(67.29 404.52) rotate(-68.62)"/><circle class="cls-2" cx="286.48" cy="152.96" r="24.52" transform="translate(-18.35 264.97) rotate(-48.27)"/><circle class="cls-2" cx="268.96" cy="118.52" r="24.52" transform="translate(1.49 240.38) rotate(-48.27)"/><circle class="cls-2" cx="190.36" cy="122.13" r="24.52" transform="translate(-33 157.68) rotate(-41.73)"/><circle class="cls-2" cx="327.34" cy="118.34" r="40.97" transform="translate(12.2 266.12) rotate(-45)"/><path class="cls-8" d="M272.66,262.56c0-2.57-3.59-4.9-7.56-6.63a36.32,36.32,0,0,1-12.66-9.8c-2.57-2.94-5-2.58-7.4.46a33.27,33.27,0,0,1-12.42,9.5c-3.7,1.71-6.94,4-6.94,6.47a9.64,9.64,0,0,0,9.12,9.62,15.75,15.75,0,0,0,28.74,0A9.64,9.64,0,0,0,272.66,262.56Z"/><rect class="cls-8" x="237.45" y="221.48" width="23.43" height="42.76" rx="11.31" ry="11.31"/><path class="cls-7" d="M303.32,276.65a49.42,49.42,0,0,1-18.41-3.71c-19.5-8-29.57-26.06-34.58-39.84l-.52-1.45,6.46-20,1-.83c1.45-1.23,36.14-30,98.44-23.12a11.39,11.39,0,0,1,9.88,13.62c-1.94,9.38-6.54,27.51-15.52,43.42-11.26,20-25.83,30.66-43.32,31.77A28.6,28.6,0,0,1,303.32,276.65Zm-44-45.19c15.25,39.89,46.05,36.12,46.37,36.08l.34,0c34.41-2.1,47.51-52.62,50.71-68a2.38,2.38,0,0,0-2.06-2.84c-53-5.84-84.89,15.93-90.67,20.29Z"/><path class="cls-7" d="M197,276.65a28.6,28.6,0,0,1-3.4-.17c-17.49-1.11-32.07-11.8-43.32-31.77-9-15.91-13.58-34-15.52-43.42a11.37,11.37,0,0,1,9.88-13.62c62.3-6.86,97,21.89,98.44,23.12l1,.83,6.46,20L250,233.1c-5,13.78-15.07,31.87-34.57,39.84A49.42,49.42,0,0,1,197,276.65Zm-33.79-81a159.55,159.55,0,0,0-17.58,1,2.42,2.42,0,0,0-1.66,1,2.35,2.35,0,0,0-.4,1.88c3.19,15.43,16.3,66,50.71,68l.34,0c1.26.16,31.24,3.53,46.37-36.08l-4.68-14.55C231.16,213.07,205.49,195.64,163.2,195.64Z"/><rect class="cls-7" x="242.04" y="211.49" width="16.24" height="19.55"/><path class="cls-3" d="M345.91,395.33,303.76,379l-51.43,8.25h-.42L200.47,379l-42.14,16.29C194,439.65,248.34,463,252,463.6v0l.2,0C255.9,463,310.2,439.65,345.91,395.33Z"/></svg>