<svg id="Layer_1" data-name="Layer 1" xmlns="http://www.w3.org/2000/svg" viewBox="0 0 500 500"><defs><style>.cls-1{fill:#eff6f9;}.cls-2{fill:#272223;}.cls-3{fill:#facdab;}.cls-4{fill:#f2bd99;}.cls-5{fill:#58595b;}.cls-6{fill:#92278f;}.cls-7{fill:#ffc7b6;}.cls-8{fill:#ffe1cc;}.cls-9{fill:#dc9b80;}.cls-10{fill:#5c5d64;}</style></defs><title>Tawk_Avatar-Female</title><path class="cls-1" d="M250,485.29a177,177,0,1,0-177-177,177,177,0,0,0,177,177"/><path class="cls-2" d="M152.88,14.71H344.72A38.27,38.27,0,0,1,383,53V272.71A134.19,134.19,0,0,1,248.8,406.9h0A134.19,134.19,0,0,1,114.61,272.71V53a38.27,38.27,0,0,1,38.27-38.27Z" transform="translate(497.6 421.61) rotate(-180)"/><rect class="cls-2" x="90.43" y="306.88" width="316.74" height="60.01" rx="30" ry="30" transform="translate(497.6 673.76) rotate(180)"/><path class="cls-2" d="M404.66,395.26a180.6,180.6,0,0,1-27.85,36.79H123.11a195.74,195.74,0,0,1-18.45-21.79A178.45,178.45,0,0,1,81.5,364.51a35.55,35.55,0,0,1,16.1-3.84H400a35.48,35.48,0,0,1,18,4.87A169.93,169.93,0,0,1,404.66,395.26Z"/><path class="cls-3" d="M205.14,363.14v-32l44.86,32,44.86-32v32C294.86,377,309,377,309,377l-59,58.72L191,377S205.14,377,205.14,363.14Z"/><path class="cls-4" d="M205.14,331.13l44.86,32,44.86-32v32c0,.45.05.84.08,1.26-24.59,11-44.94,12-44.94,12s-20.35-.94-44.94-12c0-.42.08-.81.08-1.26Z"/><path class="cls-5" d="M250,485.29A176.7,176.7,0,0,1,107.34,413L184,379.78h7.14l19,21.52a53.21,53.21,0,0,0,79.68,0l19.05-21.52H316l77.25,32.4A176.69,176.69,0,0,1,250,485.29"/><path class="cls-6" d="M305.44,372.71s-9.56-2.95-5.17-23.95l-97.81-3s5,23.89-7.9,26.95c0,0,.11,22.63,15.6,28.59s50.5,10,54,9,28-13.9,28-13.9Z"/><path class="cls-6" d="M194.56,372.71l19,17.86a53.2,53.2,0,0,0,72.92,0l19-17.86L316,379.78l-21.41,21.57a62.87,62.87,0,0,1-89.24,0L184,379.78Z"/><ellipse class="cls-7" cx="362.21" cy="218.4" rx="30.72" ry="35.62"/><ellipse class="cls-7" cx="135.39" cy="218.4" rx="30.72" ry="35.62"/><path class="cls-8" d="M325.53,107.93a36.68,36.68,0,0,1,36.68,36.68V259c0,62.64-71.56,110.66-111.64,110.49C211.65,369.3,135.39,321.61,135.39,259V144.61a36.68,36.68,0,0,1,36.68-36.68Z"/><path class="cls-9" d="M248.26,306.88a57.57,57.57,0,0,0,31.19-9.47,4,4,0,0,0-4.78-6.49c-1.07.78-24.88,17.69-52-.12a4,4,0,0,0-4.42,6.74A54,54,0,0,0,248.26,306.88Z"/><path class="cls-7" d="M225,255.9c0-2.6,3.65-5,7.67-6.72a37.08,37.08,0,0,0,12.85-9.94c2.61-3,5.1-2.63,7.51.46a33.68,33.68,0,0,0,12.6,9.64c3.75,1.74,7,4,7,6.56a9.79,9.79,0,0,1-9.25,9.77,16,16,0,0,1-29.16,0A9.79,9.79,0,0,1,225,255.9Z"/><path class="cls-7" d="M248.8,258.49h0a10,10,0,0,0,10-10V225.13a10,10,0,0,0-10-10h0a10,10,0,0,0-10,10v23.33A10,10,0,0,0,248.8,258.49Z"/><path class="cls-2" d="M277.54,185.74a2.64,2.64,0,0,0,1-.06c.3-.07,30-7.16,47.39,3.52,2,1.23,4.45-.25,5.5-3.28s.29-6.49-1.7-7.71c-19.42-12-50.43-4.53-51.74-4.21-2.24.55-3.94,3.61-3.79,6.83C274.37,183.55,275.76,185.51,277.54,185.74Z"/><path class="cls-2" d="M220.06,185.74a2.63,2.63,0,0,1-1-.06c-.3-.07-30-7.16-47.4,3.52-2,1.23-4.45-.25-5.49-3.28s-.29-6.49,1.7-7.71c19.42-12,50.43-4.53,51.74-4.21,2.24.55,3.94,3.61,3.79,6.83C223.23,183.55,221.83,185.51,220.06,185.74Z"/><circle class="cls-7" cx="182.2" cy="250.71" r="12.01"/><circle class="cls-7" cx="315.4" cy="250.71" r="12.01"/><path class="cls-10" d="M322.7,216.34c1.38,1.21,3.12,1.6,4.17.86l5.62-3.95c1.22-.86,1.05-2.93-.37-4.62s-3.58-2.36-4.8-1.5l-5.61,4c-1.23.86-1.06,2.93.36,4.62A6.36,6.36,0,0,0,322.7,216.34Z"/><path class="cls-10" d="M322.7,216.34c1.38,1.21,3.12,1.6,4.17.86l5.62-3.95c1.22-.86,1.05-2.93-.37-4.62s-3.58-2.36-4.8-1.5l-5.61,4c-1.23.86-1.06,2.93.36,4.62A6.36,6.36,0,0,0,322.7,216.34Z"/><path class="cls-10" d="M278.36,218.4a3.51,3.51,0,0,0,2.5-1.05c.81-.83,19.94-19.74,42-.53a3.5,3.5,0,1,0,4.6-5.28c-27.12-23.61-51.38.67-51.62.92a3.49,3.49,0,0,0,2.51,5.94Z"/><path class="cls-10" d="M174.89,216.34c-1.37,1.21-3.11,1.6-4.16.86l-5.62-3.95c-1.22-.86-1.05-2.93.37-4.62s3.57-2.36,4.8-1.5l5.61,4c1.23.86,1.06,2.93-.37,4.62A5.45,5.45,0,0,1,174.89,216.34Z"/><path class="cls-10" d="M174.89,216.34c-1.37,1.21-3.11,1.6-4.16.86l-5.62-3.95c-1.22-.86-1.05-2.93.37-4.62s3.57-2.36,4.8-1.5l5.61,4c1.23.86,1.06,2.93-.37,4.62A5.45,5.45,0,0,1,174.89,216.34Z"/><path class="cls-10" d="M219.24,218.4a3.49,3.49,0,0,1-2.5-1.05c-.82-.83-19.94-19.74-42-.53a3.5,3.5,0,1,1-4.6-5.28c27.12-23.61,51.38.67,51.62.92a3.5,3.5,0,0,1-2.51,5.94Z"/><path class="cls-2" d="M362.21,182.78S275.69,166.7,248.8,106.64H365.91Z"/><path class="cls-2" d="M135.39,182.78s86.52-16.08,113.41-76.14H131.69Z"/></svg>