<svg id="Layer_1" data-name="Layer 1" xmlns="http://www.w3.org/2000/svg" viewBox="0 0 500 500"><defs><style>.cls-1{fill:#eff6f9;}.cls-2{fill:#e5a193;}.cls-3{fill:#cc867a;}.cls-4{fill:#76757a;}.cls-5{fill:#939598;}.cls-6{fill:#a7a9ac;}.cls-7{fill:#231f20;}.cls-8{fill:#272223;}.cls-9{fill:#ea9081;}.cls-10{fill:#726658;}.cls-11{fill:#ce7d6f;}.cls-12{opacity:0.37;}.cls-13{fill:#bbf2ff;}.cls-14{fill:#5c5d64;}</style></defs><title>Tawk_Avatar-Female</title><path class="cls-1" d="M250,477.72a177,177,0,1,1,177-177,177,177,0,0,1-177,177"/><path class="cls-2" d="M294.86,355.57v-32l-44.86,32-44.86-32v32c0,13.86-14.11,13.86-14.11,13.86l59,58.72,59-58.72S294.86,369.43,294.86,355.57Z"/><path class="cls-3" d="M294.86,323.56l-44.86,32-44.86-32v32c0,.45,0,.85-.08,1.27,24.59,11,44.94,12,44.94,12s20.35-.93,44.94-12c0-.42-.08-.82-.08-1.27Z"/><path class="cls-4" d="M250,477.72a176.7,176.7,0,0,0,142.66-72.25L316,372.21h-7.14l-19.05,21.52a53.21,53.21,0,0,1-79.68,0l-19-21.52H184l-77.25,32.41A176.71,176.71,0,0,0,250,477.72"/><path class="cls-5" d="M305.44,365.14l-19,17.87a53.2,53.2,0,0,1-72.92,0l-19-17.87L184,372.21l21.41,21.57a62.87,62.87,0,0,0,89.24,0L316,372.21Z"/><ellipse class="cls-5" cx="250.84" cy="218.87" rx="146.56" ry="196.58"/><path class="cls-5" d="M392.66,405.37c-48.79-24.39-9.12-109.1-9.12-109.1L261.09,376.61l-11.28,35.58-11.53-36.33L115.84,295.52s39.67,84.71-9.12,109.1l68.45,29.91,156.7-.43Z"/><ellipse class="cls-6" cx="250.84" cy="206.92" rx="146.56" ry="184.64"/><ellipse class="cls-2" cx="250.84" cy="218.87" rx="104.59" ry="140.28"/><path class="cls-7" d="M250.84,123.79c55.64,0,101.32,47.53,106.25,108.19q.45-6.48.45-13.11c0-79.05-47.77-143.12-106.7-143.12s-106.7,64.07-106.7,143.12c0,4.42.16,8.79.45,13.11C149.53,171.32,195.21,123.79,250.84,123.79Z"/><path class="cls-8" d="M218.68,212.94a4,4,0,0,1-4-3.35c-.69-4-5.15-11.61-17.06-11.61-15.06,0-18.14,10.35-18.26,10.8a4,4,0,0,1-7.8-2.05c1.5-5.82,8.87-16.81,26.06-16.81,15,0,23.49,9.48,25,18.3a4,4,0,0,1-3.28,4.66A4.23,4.23,0,0,1,218.68,212.94Z"/><path class="cls-8" d="M191.65,198.52a4,4,0,0,1-3.9-3.11l-2.25-9.9a4,4,0,0,1,7.8-1.77l2.25,9.89a4,4,0,0,1-3,4.79A3.92,3.92,0,0,1,191.65,198.52Z"/><path class="cls-8" d="M202.53,197.76a3.92,3.92,0,0,1-.89-.1,4,4,0,0,1-3-4.79l2.25-9.89a4,4,0,0,1,7.81,1.77l-2.26,9.9A4,4,0,0,1,202.53,197.76Z"/><path class="cls-8" d="M281.32,212.94a4,4,0,0,0,4-3.35c.69-4,5.15-11.61,17.06-11.61,15.06,0,18.14,10.35,18.26,10.8a4,4,0,0,0,7.8-2.05c-1.5-5.82-8.87-16.81-26.06-16.81-15,0-23.49,9.48-25,18.3a4,4,0,0,0,4,4.72Z"/><path class="cls-8" d="M308.35,198.52a4,4,0,0,0,3.9-3.11l2.25-9.9a4,4,0,0,0-7.8-1.77l-2.25,9.89a4,4,0,0,0,3,4.79A3.92,3.92,0,0,0,308.35,198.52Z"/><path class="cls-8" d="M297.47,197.76a3.92,3.92,0,0,0,.89-.1,4,4,0,0,0,3-4.79L299.12,183a4,4,0,0,0-7.8,1.77l2.25,9.9A4,4,0,0,0,297.47,197.76Z"/><path class="cls-9" d="M273.49,242.17c0-2.57-3.59-4.9-7.56-6.63a36.41,36.41,0,0,1-12.66-9.79c-2.57-2.95-5-2.59-7.4.45a33.4,33.4,0,0,1-12.42,9.51c-3.7,1.71-6.94,4-6.94,6.46a9.65,9.65,0,0,0,9.12,9.63,15.75,15.75,0,0,0,28.74,0A9.65,9.65,0,0,0,273.49,242.17Z"/><path class="cls-10" d="M220.64,171.3a3.08,3.08,0,0,1-1-.06c-.29-.08-30-7.16-47.39,3.51-2,1.23-4.45-.24-5.5-3.28s-.28-6.48,1.7-7.7c19.42-12,50.43-4.54,51.74-4.21,2.24.55,3.94,3.61,3.79,6.83C223.81,169.1,222.42,171.07,220.64,171.3Z"/><path class="cls-10" d="M278.12,171.3a3.06,3.06,0,0,0,1-.06c.3-.08,30-7.16,47.4,3.51,2,1.23,4.45-.24,5.5-3.28s.28-6.48-1.71-7.7c-19.42-12-50.42-4.54-51.74-4.21-2.24.55-3.93,3.61-3.78,6.83C275,169.1,276.35,171.07,278.12,171.3Z"/><path class="cls-11" d="M250.47,297.1a57.46,57.46,0,0,1-31.18-9.47,4,4,0,0,1,4.78-6.49c1.07.78,24.88,17.69,52-.12a4,4,0,1,1,4.42,6.74A54,54,0,0,1,250.47,297.1Z"/><g class="cls-12"><path class="cls-13" d="M164.29,180.63s-2.64,5.26-2.39,20.13c.12,6.87.64,14.21,1.16,20.13a12.76,12.76,0,0,0,13,11.62l46.73-1a12.78,12.78,0,0,0,12.49-12.78V194.59s-1.08-13.59-23.25-15.21S164.29,180.63,164.29,180.63Z"/></g><g class="cls-12"><path class="cls-13" d="M336.19,180.63s2.64,5.26,2.39,20.13c-.11,6.87-.63,14.21-1.16,20.13a12.76,12.76,0,0,1-13,11.62l-46.72-1a12.79,12.79,0,0,1-12.5-12.78V194.59s1.08-13.59,23.26-15.21S336.19,180.63,336.19,180.63Z"/></g><path class="cls-14" d="M235.75,202.78a2,2,0,0,1-2-2c0-.51-.14-12.39-9.56-16.23-10.06-4.1-25.81-4.71-34.3-4.71-10.06,0-22.45.91-25.87,2.93l-.53.31-.26.56a2,2,0,0,1-1.82,1.14,1.81,1.81,0,0,1-.4,0,2,2,0,0,1-1.58-2.37,4.79,4.79,0,0,1,2.76-3.18c4-2.17,13.69-3.46,25.82-3.46,15.33,0,30.13,2,37.7,5.08,12,4.91,12.07,19.38,12.07,20a2,2,0,0,1-2,2Z"/><path class="cls-14" d="M264.23,202.78a2,2,0,0,1-2-2c0-.62.05-15.08,12.07-20,7.57-3.08,22.37-5.08,37.7-5.08,12.13,0,21.78,1.29,25.82,3.46a4.79,4.79,0,0,1,2.76,3.18,2,2,0,0,1-1.58,2.37,1.75,1.75,0,0,1-.4,0,2,2,0,0,1-1.82-1.14l-.26-.56-.53-.31c-3.42-2-15.81-2.93-25.87-2.93-8.49,0-24.24.61-34.3,4.71-9.56,3.89-9.56,16.11-9.56,16.23a2,2,0,0,1-.58,1.42,2,2,0,0,1-1.41.6Z"/><path class="cls-14" d="M236.53,197.19a2,2,0,0,1-2-2,1.93,1.93,0,0,1,1.88-2l27.84.26a2,2,0,0,1,1.42.6,2,2,0,0,1-1.44,3.43Z"/><rect class="cls-9" x="238.28" y="201.1" width="23.43" height="42.76" rx="11.31" ry="11.31"/><path class="cls-5" d="M106.72,404.62s140.16,93.11,285.94.75C392.66,405.37,259,465.73,106.72,404.62Z"/><path class="cls-6" d="M106.72,404.62s140.16,93.11,285.94.75C392.66,405.37,259,465.73,106.72,404.62Z"/><path class="cls-6" d="M135,391.56s112.49,93.11,229.48.75C364.43,392.31,257.17,452.67,135,391.56Z"/></svg>