<svg id="Layer_1" data-name="Layer 1" xmlns="http://www.w3.org/2000/svg" viewBox="0 0 500 500"><defs><style>.cls-1{fill:#eff6f9;}.cls-2{fill:#3c2415;}.cls-3{fill:#cc867a;}.cls-4{fill:#414042;}.cls-5{fill:#58595b;}.cls-6{fill:#bcbec0;}.cls-7{fill:#dd4a4a;}.cls-8{fill:#e6e7e8;}.cls-9{fill:#e5a193;}.cls-10{fill:#ea9081;}.cls-11{fill:#272223;}.cls-12{fill:#ce7d6f;}.cls-13{fill:#d84456;}</style></defs><title>Tawk_Avatar-Female</title><path class="cls-1" d="M250,472.59a177,177,0,1,1,177-177,177,177,0,0,1-177,177"/><path class="cls-2" d="M252.29,27.41h0A134.19,134.19,0,0,1,386.49,161.61V381.33a38.27,38.27,0,0,1-38.27,38.27H156.37a38.27,38.27,0,0,1-38.27-38.27V161.61A134.19,134.19,0,0,1,252.29,27.41Z"/><path class="cls-3" d="M294.86,350.44v-32l-44.86,32-44.86-32v32c0,13.86-14.11,13.86-14.11,13.86L250,423l59-58.72S294.86,364.3,294.86,350.44Z"/><path class="cls-3" d="M294.86,319.31l-44.86,32-44.86-32v32c0,.45,0,.85-.08,1.27,24.59,11,44.94,12,44.94,12s20.35-.94,44.94-12c0-.42-.08-.82-.08-1.27Z"/><path class="cls-4" d="M250,472.59a176.7,176.7,0,0,0,142.66-72.25L316,367.08h-7.14L289.84,388.6a53.21,53.21,0,0,1-79.68,0l-19-21.52H184l-77.25,32.41A176.71,176.71,0,0,0,250,472.59"/><polygon class="cls-5" points="250.04 472.59 150.25 414.08 166.24 395.23 131.34 389.16 175.27 370.73 250.04 392.34 250.04 472.59"/><polygon class="cls-6" points="247.6 393.77 250.04 472.59 209.69 416.11 247.6 393.77"/><polygon class="cls-5" points="250.04 472.59 349.82 414.08 333.83 395.23 368.73 389.16 324.8 370.73 250.04 392.34 250.04 472.59"/><polygon class="cls-6" points="252.47 393.77 250.04 472.59 290.38 416.11 252.47 393.77"/><path class="cls-7" d="M263.75,472.08l-6-65.14-7.66-7.15v-.15l-.09.08-.08-.08v.15l-7.66,7.15-6,65.14C236.27,472.76,263.75,472.76,263.75,472.08Z"/><polygon class="cls-7" points="250.06 392.34 249.97 392.34 233.48 392.34 242.27 412.23 250.01 412.23 250.03 412.23 257.77 412.23 265.9 392.34 250.06 392.34"/><polygon class="cls-8" points="250.04 392.34 197.09 419.06 175.27 370.73 191.03 354.18 250.04 392.34"/><polygon class="cls-8" points="250.04 392.34 302.98 419.06 324.8 370.73 309.04 354.18 250.04 392.34"/><ellipse class="cls-3" cx="138.88" cy="242.32" rx="30.72" ry="35.62"/><ellipse class="cls-3" cx="365.7" cy="242.32" rx="30.72" ry="35.62"/><path class="cls-9" d="M175.56,105.57c-20.26,0-36.68,17.16-36.68,38.34V263.46c0,58.31,64,91.16,111.64,95.08,36.72,3,115.18-42.78,115.18-95.08V143.91c0-21.18-16.42-38.34-36.68-38.34Z"/><path class="cls-10" d="M274.6,262c0-2.57-3.59-4.9-7.56-6.63a36.41,36.41,0,0,1-12.66-9.79c-2.57-2.95-5-2.59-7.41.46a33.26,33.26,0,0,1-12.41,9.5c-3.7,1.71-6.94,4-6.94,6.46a9.65,9.65,0,0,0,9.12,9.63,15.75,15.75,0,0,0,28.74,0A9.65,9.65,0,0,0,274.6,262Z"/><rect class="cls-10" x="239.39" y="220.89" width="23.43" height="42.76" rx="11.31" ry="11.31"/><path class="cls-11" d="M218.34,231.32a3.53,3.53,0,0,1-3.48-2.94c-.61-3.52-4.53-10.19-15-10.19-13.22,0-15.92,9.09-16,9.48a3.54,3.54,0,0,1-6.84-1.8c1.31-5.1,7.78-14.76,22.87-14.76,13.18,0,20.62,8.33,22,16.07a3.54,3.54,0,0,1-2.88,4.09A4.3,4.3,0,0,1,218.34,231.32Z"/><path class="cls-11" d="M194.61,217.39a3.53,3.53,0,0,1-3.43-2.74l-2-8.68a3.51,3.51,0,1,1,6.84-1.56l2,8.69a3.52,3.52,0,0,1-3.42,4.29Z"/><path class="cls-11" d="M204.16,216.72a3.46,3.46,0,0,1-.78-.09,3.51,3.51,0,0,1-2.65-4.2l2-8.69a3.51,3.51,0,0,1,6.85,1.56l-2,8.69A3.51,3.51,0,0,1,204.16,216.72Z"/><path class="cls-11" d="M286.24,231.32a3.54,3.54,0,0,0,3.49-2.94c.61-3.52,4.52-10.19,15-10.19,13.23,0,15.92,9.09,16,9.48a3.54,3.54,0,0,0,6.85-1.8c-1.32-5.1-7.79-14.76-22.88-14.76-13.18,0-20.62,8.33-22,16.07a3.54,3.54,0,0,0,2.89,4.09A4,4,0,0,0,286.24,231.32Z"/><path class="cls-11" d="M310,217.39a3.52,3.52,0,0,0,3.42-2.74l2-8.68a3.51,3.51,0,1,0-6.85-1.56l-2,8.69a3.51,3.51,0,0,0,2.64,4.2A3.61,3.61,0,0,0,310,217.39Z"/><path class="cls-11" d="M300.42,216.72a3.46,3.46,0,0,0,.78-.09,3.51,3.51,0,0,0,2.65-4.2l-2-8.69A3.51,3.51,0,0,0,295,205.3l2,8.69A3.51,3.51,0,0,0,300.42,216.72Z"/><path class="cls-12" d="M253.32,315.55a57.61,57.61,0,0,1-31.19-9.46,4,4,0,0,1,4.78-6.49c1.07.77,24.88,17.68,52-.13a4,4,0,1,1,4.42,6.74A54,54,0,0,1,253.32,315.55Z"/><path class="cls-2" d="M252.84,105.57s-3.14,90,115.59,101.69l7.41-63.89-20-41.41L314.29,84.87Z"/><path class="cls-2" d="M252.84,105.57s-.27,89.46-119,101.13l-4-63.33,20-41.41,41.55-17.09Z"/><circle class="cls-13" cx="249.52" cy="192.73" r="8.62"/></svg>