<svg id="Layer_1" data-name="Layer 1" xmlns="http://www.w3.org/2000/svg" viewBox="0 0 500 500"><defs><style>.cls-1{fill:#eff6f9;}.cls-2{fill:#3c2415;}.cls-3{fill:#e5a193;}.cls-4{fill:#cc867a;}.cls-5{fill:#272223;}.cls-6{opacity:0.5;}.cls-7{fill:#fff;}.cls-8{fill:#ea9081;}.cls-9{fill:#ce7d6f;}.cls-10{fill:#ff705b;}.cls-11{fill:#2bb673;}</style></defs><title>Tawk_Avatar-Female</title><path class="cls-1" d="M250,484.05a177,177,0,1,1,177-177,177,177,0,0,1-177,177"/><path class="cls-2" d="M248.72,15.95h0A134.19,134.19,0,0,1,382.91,150.14V369.86a38.27,38.27,0,0,1-38.27,38.27H152.79a38.27,38.27,0,0,1-38.27-38.27V150.14A134.19,134.19,0,0,1,248.72,15.95Z"/><path class="cls-3" d="M294.86,361.91v-32l-44.86,32-44.86-32v32c0,13.86-15.64,14.9-15.64,14.9L250,434.49l59.81-57.9S294.86,375.77,294.86,361.91Z"/><path class="cls-4" d="M294.86,329.9l-44.86,32-44.86-32v32c0,.45,0,.84-.08,1.26,24.59,11,44.94,12,44.94,12s20.35-.94,44.94-12c0-.42-.08-.81-.08-1.26Z"/><path class="cls-3" d="M302.46,374.29l-16,15a53.2,53.2,0,0,1-72.92,0l-16-15L184,378.54l21.41,21.58a62.87,62.87,0,0,0,89.24,0L316,378.54Z"/><ellipse class="cls-4" cx="136.28" cy="218.77" rx="30.72" ry="35.62"/><ellipse class="cls-4" cx="363.1" cy="218.77" rx="30.72" ry="35.62"/><path class="cls-3" d="M136.28,100.21V259.34c0,62.64,51.53,105.75,111.64,110.49C292.4,373.34,363.1,322,363.1,259.34V100.21Z"/><path class="cls-5" d="M220.33,182a2.86,2.86,0,0,1-1-.07c-.29-.07-30-7.15-47.39,3.52-2,1.23-4.45-.24-5.5-3.28s-.29-6.48,1.7-7.71c19.42-11.94,50.43-4.53,51.74-4.21,2.24.55,3.94,3.61,3.79,6.84C223.5,179.79,222.11,181.76,220.33,182Z"/><path class="cls-5" d="M277.81,182a2.84,2.84,0,0,0,1-.07c.3-.07,30-7.15,47.4,3.52,2,1.23,4.45-.24,5.5-3.28s.28-6.48-1.71-7.71c-19.42-11.94-50.43-4.53-51.74-4.21-2.24.55-3.93,3.61-3.78,6.84C274.64,179.79,276,181.76,277.81,182Z"/><path class="cls-2" d="M249,100.21l1.36,5.3a45.34,45.34,0,0,0,37.56,33.58c29.92,4.31,72.14,15.44,75.17,44.06l2.65-71.32Z"/><path class="cls-2" d="M174.7,116.13h-.42l-39.49-.79,1.49,67.81c4.72-44.64,33.66-46.73,33.66-46.73h34.72a45.24,45.24,0,0,0,44.05-34.93l.3-1.28Z"/><path class="cls-2" d="M218.37,223.08a4,4,0,0,1-4-3.35c-.69-4-5.15-11.61-17.06-11.61-15.07,0-18.14,10.35-18.26,10.79a4,4,0,0,1-7.8-2c1.5-5.81,8.87-16.8,26.06-16.8,15,0,23.49,9.48,25,18.3a4,4,0,0,1-4,4.72Z"/><path class="cls-2" d="M191.34,208.66a4,4,0,0,1-3.9-3.11l-2.25-9.9a4,4,0,1,1,7.8-1.77l2.25,9.89a4,4,0,0,1-3,4.79A3.92,3.92,0,0,1,191.34,208.66Z"/><path class="cls-2" d="M202.22,207.9a3.92,3.92,0,0,1-.89-.1,4,4,0,0,1-3-4.79l2.25-9.89a4,4,0,1,1,7.8,1.77l-2.25,9.9A4,4,0,0,1,202.22,207.9Z"/><path class="cls-2" d="M281,223.08a4,4,0,0,0,4-3.35c.7-4,5.16-11.61,17.07-11.61,15.06,0,18.14,10.35,18.26,10.79a4,4,0,0,0,7.8-2c-1.5-5.81-8.87-16.8-26.06-16.8-15,0-23.49,9.48-25,18.3a4,4,0,0,0,3.28,4.66A4.23,4.23,0,0,0,281,223.08Z"/><path class="cls-2" d="M308,208.66a4,4,0,0,0,3.9-3.11l2.25-9.9a4,4,0,1,0-7.8-1.77l-2.25,9.89a4,4,0,0,0,3,4.79A3.92,3.92,0,0,0,308,208.66Z"/><path class="cls-2" d="M297.15,207.9a3.94,3.94,0,0,0,.9-.1,4,4,0,0,0,3-4.79l-2.25-9.89a4,4,0,0,0-7.81,1.77l2.26,9.9A4,4,0,0,0,297.15,207.9Z"/><g class="cls-6"><path class="cls-7" d="M167.14,185.1a13.61,13.61,0,0,0-12.7,12.55c-.18,2.38-.27,5.18-.21,8.43.12,6.86.68,14.21,1.24,20.13.63,6.7,6.73,11.77,13.92,11.62l50-1.05c7.43-.16,13.37-5.83,13.37-12.78V199.9s-1.16-13.58-24.87-15.2A316.84,316.84,0,0,0,167.14,185.1Z"/></g><g class="cls-6"><path class="cls-7" d="M332.24,185.1a13.62,13.62,0,0,1,12.7,12.55c.18,2.38.27,5.18.21,8.43-.12,6.86-.68,14.21-1.24,20.13-.63,6.7-6.73,11.77-13.92,11.62l-50-1.05c-7.42-.16-13.36-5.83-13.36-12.78V199.9s1.16-13.58,24.87-15.2A316.84,316.84,0,0,1,332.24,185.1Z"/></g><path class="cls-5" d="M232.4,206.41c6.84-1,22.21-2.49,36.12,1a4.53,4.53,0,0,0,5.27-2.51l.11-.24a4.49,4.49,0,0,0-2-5.81c-6.4-3.36-21-8.68-41.79-2.29a4.51,4.51,0,0,0-2.94,5.78l.38,1.09A4.47,4.47,0,0,0,232.4,206.41Z"/><circle class="cls-8" cx="316.29" cy="254.39" r="12.01"/><circle class="cls-8" cx="183.09" cy="254.39" r="12.01"/><path class="cls-8" d="M273.18,257.46c0-2.57-3.59-4.9-7.56-6.63A36.41,36.41,0,0,1,253,241c-2.57-2.95-5-2.59-7.41.45A33.18,33.18,0,0,1,233.14,251c-3.7,1.71-6.94,4-6.94,6.46a9.65,9.65,0,0,0,9.12,9.63,15.75,15.75,0,0,0,28.74,0A9.65,9.65,0,0,0,273.18,257.46Z"/><rect class="cls-8" x="237.97" y="216.39" width="23.43" height="42.76" rx="11.31" ry="11.31"/><path class="cls-9" d="M250.47,307.79a57.52,57.52,0,0,1-31.18-9.47,4,4,0,0,1,4.78-6.49c1.07.78,24.88,17.69,52-.12a4,4,0,1,1,4.42,6.74A54,54,0,0,1,250.47,307.79Z"/><path class="cls-2" d="M127.78,127.84l55.75-1.75,40.11-10L249,100.21s4.73-18.12,0-18.12-114.22,7.25-114.22,7.25Z"/><path class="cls-2" d="M370.24,127.84l-55.75-1.75-40.1-10L249,100.21s-4.73-18.12,0-18.12,114.23,7.25,114.23,7.25Z"/><path class="cls-3" d="M343,390.23,316,378.54h-7.14l-19.05,21.53a53.21,53.21,0,0,1-79.68,0l-19-21.53H184l-28.67,12C165.73,402.18,250,489.44,343,390.23Z"/><path class="cls-10" d="M343,390.23c-93,99.21-177.23,11.95-187.66.34L106.72,411a177,177,0,0,0,285.94.85Z"/><path class="cls-7" d="M128.53,401.8S182.78,481,246,484L143.89,395.36Z"/><path class="cls-11" d="M179.58,380.38s55.86,82.5,123.78,95.48c0,0-16.14,7.91-53.36,8.19s-115.57-84.72-115.57-84.72Z"/></svg>