<svg id="Layer_1" data-name="Layer 1" xmlns="http://www.w3.org/2000/svg" viewBox="0 0 500 500"><defs><style>.cls-1{fill:#eff6f9;}.cls-2{fill:#e5a193;}.cls-3{fill:#ce7d6f;}.cls-4{fill:#f1f2f2;}.cls-5{fill:#808285;}.cls-6{fill:#cc867a;}.cls-7{fill:#231f20;}.cls-8{fill:#272223;}.cls-9{fill:#ea9081;}</style></defs><title>Tawk_Avatar-Male</title><path class="cls-1" d="M250,476.25a177,177,0,1,1,177-177,177,177,0,0,1-177,177"/><path class="cls-2" d="M294.86,354.1v-32L250,354.1l-44.86-32v32C205.14,368,191,368,191,368l59,58.72L309,368S294.86,368,294.86,354.1Z"/><path class="cls-3" d="M294.86,322.09,250,354.1l-44.86-32v32c0,.45,0,.85-.08,1.27,24.59,11,44.94,12,44.94,12s20.35-.93,44.94-12c0-.42-.08-.82-.08-1.27Z"/><path class="cls-4" d="M329.08,376.4l-8.16-3.54v-.07L316,370.74h-7.14l-19.05,21.52a53.21,53.21,0,0,1-79.68,0l-19-21.52H184l-4.89,2.05v.07l-8.16,3.54v81.21q4,2,8.16,3.82h0l.55.23,1.44.62c1,.41,2,.82,2.94,1.21l1.7.67c.91.36,1.83.71,2.75,1.05l1.82.67,2.7.94,1.87.63,2.76.88,1.84.56c1,.3,2,.57,3,.85l1.66.47c1.32.35,2.65.69,4,1l.7.18c1.56.37,3.12.72,4.7,1l1.62.32c1,.21,2.1.42,3.16.61l1.92.33,2.91.48,2,.29,2.85.39,2.08.24c1,.11,1.92.21,2.89.3l2.05.19,3,.22,2,.13c1.11.06,2.22.11,3.34.15.55,0,1.1.05,1.66.06,1.67.05,3.35.08,5,.08h0c1.68,0,3.36,0,5-.08.56,0,1.11,0,1.66-.06,1.12,0,2.23-.09,3.34-.15l2-.13,3-.22,2.05-.19c1-.09,1.93-.19,2.89-.3l2.08-.24,2.85-.39,2-.29,2.91-.48,1.92-.33c1.06-.19,2.11-.4,3.16-.61l1.62-.32c1.58-.33,3.14-.68,4.7-1l.7-.18c1.33-.32,2.66-.66,4-1l1.67-.47c1-.28,2-.55,3-.85l1.84-.56,2.76-.88,1.87-.63,2.7-.94,1.82-.67c.92-.34,1.84-.69,2.75-1.05l1.7-.67c1-.39,2-.8,2.94-1.21l1.44-.62.55-.23h0q4.14-1.81,8.16-3.82Z"/><path class="cls-5" d="M305.44,363.67l-19,17.87a53.2,53.2,0,0,1-72.92,0l-19-17.87L184,370.74l21.41,21.57a62.86,62.86,0,0,0,89.24,0L316,370.74Z"/><ellipse class="cls-6" cx="135.64" cy="211.17" rx="30.72" ry="35.62"/><ellipse class="cls-6" cx="362.46" cy="211.17" rx="30.72" ry="35.62"/><path class="cls-2" d="M170.51,87c-20.25,0-34.87,30.09-34.87,50.34V251.74c0,17.7,51.53,105.75,111.64,110.49,44.48,3.51,115.18-82.12,115.18-110.49V137.37c0-37.28.29-36.67-36.68-36.67Z"/><path class="cls-7" d="M382.06,121.65a6.35,6.35,0,0,0-3.74-2.32,17.07,17.07,0,0,1-5.52-2.18l.21-.1a7.46,7.46,0,0,0,3.75-4.41,8.18,8.18,0,0,0-2.73-8.88,26.57,26.57,0,0,1-4-3.94c5.37-2.09,8.83-7.53,10.89-12.14a6,6,0,0,0-.09-5.14,5.76,5.76,0,0,0-4-3.14c-26.3-5.59-51.53-36.06-51.53-36.06L328,42.2a2.81,2.81,0,0,0-.7-5.38c-7.44-1-14.34-2.42-14.34-2.42C193.33.85,152.52,57.32,152.52,57.32c-.82-.65-1.58-2.24-2.26-4.17a3.59,3.59,0,0,0-4.08-2.38,3.53,3.53,0,0,0-2.88,2.7c-1.85,7.57-3.08,15.59-3.08,15.59-17.78,9.3-23.65,33.18-25.54,45.72a3.94,3.94,0,0,0,1.71,3.89,4,4,0,0,0,4.26.16c-7.86,38.61.69,62,7.62,73.67a5.84,5.84,0,0,0,5.65,2.87,6,6,0,0,0,1.72-.42v56.79c3,15.54,11.79,7.12,11.79,7.12v-90l15.42-41.26a16.92,16.92,0,0,1,18.6-4.11c47.85,18.63,106,6.05,130.69-.91A16.73,16.73,0,0,1,331,130.06l19.66,46.05v82.75s8.84,8.42,11.8-7.12V195.53a5.78,5.78,0,0,0,5.49-2.8c13.27-22.14,15.29-53.5,15.51-66.88A6.66,6.66,0,0,0,382.06,121.65Z"/><path class="cls-8" d="M217.73,216a4,4,0,0,1-4-3.34c-.69-4-5.15-11.61-17.06-11.61-15.07,0-18.14,10.35-18.26,10.79a4.06,4.06,0,0,1-4.94,2.83,4,4,0,0,1-2.86-4.88C172.13,204,179.51,193,196.7,193c15,0,23.49,9.49,25,18.3a4,4,0,0,1-4,4.72Z"/><path class="cls-8" d="M280.36,216a4.2,4.2,0,0,1-.69-.06,4,4,0,0,1-3.28-4.66c1.52-8.81,10-18.3,25-18.3,17.19,0,24.56,11,26.06,16.81a4,4,0,0,1-7.81,2c-.14-.52-3.25-10.78-18.25-10.78-11.91,0-16.37,7.59-17.07,11.61A4,4,0,0,1,280.36,216Z"/><path class="cls-9" d="M277.78,244.73c0-3.15-4.4-6-9.25-8.11a44.65,44.65,0,0,1-15.48-12c-3.14-3.6-6.15-3.17-9.06.56a40.76,40.76,0,0,1-15.18,11.62c-4.52,2.09-8.49,4.86-8.49,7.91a11.79,11.79,0,0,0,11.16,11.77,19.26,19.26,0,0,0,35.14,0A11.79,11.79,0,0,0,277.78,244.73Z"/><path class="cls-7" d="M219.69,174.38a2.64,2.64,0,0,1-1-.06c-.3-.07-30-7.16-47.39,3.52-2,1.23-4.45-.25-5.5-3.28s-.29-6.49,1.7-7.71c19.42-11.95,50.43-4.53,51.74-4.21,2.24.55,3.94,3.61,3.79,6.83C222.86,172.19,221.47,174.15,219.69,174.38Z"/><path class="cls-7" d="M277.17,174.38a2.64,2.64,0,0,0,1-.06c.3-.07,30-7.16,47.4,3.52,2,1.23,4.45-.25,5.49-3.28s.29-6.49-1.7-7.71C310,154.9,279,162.32,277.66,162.64c-2.24.55-3.94,3.61-3.79,6.83C274,172.19,275.4,174.15,277.17,174.38Z"/><path class="cls-3" d="M249.52,300.18a57.65,57.65,0,0,1-31.19-9.46,4,4,0,0,1,4.79-6.49c1.06.78,24.87,17.69,52-.13a4,4,0,0,1,4.42,6.75A54,54,0,0,1,249.52,300.18Z"/><rect class="cls-9" x="233.72" y="195.55" width="28.66" height="52.29" rx="11.31" ry="11.31"/><path class="cls-8" d="M294.05,272.66c-8.24-4.47-80.28-4.47-88.52,0-5.9,3.2-5,8.66-4.46,13.17v52a15.07,15.07,0,0,0,7.17,12.87C234.19,366.56,250,364.87,250,364.87s16.88-1.07,40.91-14.75A15.11,15.11,0,0,0,298.52,337V285.73C299,281.24,299.9,275.83,294.05,272.66Zm-6.49,29.16c0,1.42-.06,2.73-.09,3.85l.09-.05v0a13.29,13.29,0,0,1-13.4,13.19h-4.22s-1.16-7.34-19.94-7.34-19.94,7.34-19.94,7.34h-4.22a13.29,13.29,0,0,1-13.4-13.19V280.19c3-2.9,33.26,0,37.35-.4,4.27.46,37.15-2.77,37.61.83.07.52.12,1.19.16,1.94Z"/><path class="cls-5" d="M170.92,376.4l8.16-3.54v-.07l-72.36,30.36a177.77,177.77,0,0,0,64.2,54.44Z"/><path class="cls-5" d="M174.51,459.35l-2.07-1Z"/><path class="cls-5" d="M176.83,460.41c.75.34,1.49.7,2.25,1h0C178.32,461.1,177.58,460.75,176.83,460.41Z"/><path class="cls-5" d="M392.66,404l-63.58-27.6v81.21A177.66,177.66,0,0,0,392.66,404Z"/></svg>