<svg id="Layer_1" data-name="Layer 1" xmlns="http://www.w3.org/2000/svg" viewBox="0 0 500 500"><defs><style>.cls-1{fill:#eff6f9;}.cls-2{fill:#e5a193;}.cls-3{fill:#ce7d6f;}.cls-4{fill:#414042;}.cls-5{fill:#58595b;}.cls-6{fill:#bcbec0;}.cls-7{fill:#dd4a4a;}.cls-8{fill:#cc867a;}.cls-9{fill:#353d42;}.cls-10{fill:#272223;}.cls-11{fill:#ea9081;}.cls-12{fill:#fff;opacity:0.4;}.cls-13{fill:#e6e7e8;}</style></defs><title>Tawk_Avatar-Male</title><path class="cls-1" d="M250,473A177,177,0,1,1,427,296,177,177,0,0,1,250,473"/><path class="cls-2" d="M294.86,350.83v-32l-44.86,32-44.86-32v32c0,13.86-14.11,13.86-14.11,13.86l59,58.72,59-58.72S294.86,364.69,294.86,350.83Z"/><path class="cls-3" d="M294.86,319.7l-44.86,32-44.86-32v32c0,.45,0,.84-.08,1.27C229.65,364,250,365,250,365s20.35-.94,44.94-12c0-.43-.08-.82-.08-1.27Z"/><path class="cls-4" d="M250,473a176.7,176.7,0,0,0,142.66-72.25L316,367.47h-7.14L289.84,389a53.21,53.21,0,0,1-79.68,0l-19-21.53H184l-77.25,32.41A176.71,176.71,0,0,0,250,473"/><path class="cls-5" d="M250,473a177.77,177.77,0,0,1-29.91-2.51L151.49,398l23.78-26.92L250,392.73Z"/><path class="cls-5" d="M250,473a177.74,177.74,0,0,0,29.9-2.51L348.59,398,324.8,371.12,250,392.73Z"/><polygon class="cls-6" points="247.6 394.16 236.49 472.47 209.69 416.51 247.6 394.16"/><polygon class="cls-6" points="252.47 394.16 263.97 472.47 290.38 416.51 252.47 394.16"/><path class="cls-7" d="M264,472.47l-6-65.13-7.67-7.15V400l-.08.08-.08-.08v.16l-7.67,7.15-6,65.13C236.49,473.15,264,473.15,264,472.47Z"/><polygon class="cls-7" points="250.28 392.73 250.19 392.73 233.7 392.73 242.48 412.63 250.23 412.63 250.24 412.63 257.99 412.63 266.11 392.73 250.28 392.73"/><ellipse class="cls-8" cx="136.9" cy="207.91" rx="30.72" ry="35.62"/><ellipse class="cls-8" cx="363.72" cy="207.91" rx="30.72" ry="35.62"/><path class="cls-2" d="M173.58,98.11a36.68,36.68,0,0,0-36.68,36.67V249.15c0,17.7,52.3,102.13,112.41,106.87,44.48,3.51,114.41-78.5,114.41-106.87V134.78c0-37.28.29-36.67-36.68-36.67Z"/><path class="cls-9" d="M342.44,264.61c-8.68,17-30.19,18.66-43.61,15.22.52-4.48,1.38-9.89-4.47-13.06-8.24-4.47-80.28-4.47-88.52,0-5.9,3.2-5,8.66-4.46,13.17-13.45,3.29-34.61,1.53-43.19-15.33C146.31,241.3,136,243.53,136,243.53A63.42,63.42,0,0,0,138,257.28a113.84,113.84,0,0,0,28.21,51.94C216.31,362.63,250.31,359,250.31,359s39-2.44,82.78-47.9a115.11,115.11,0,0,0,29-51.35,69.9,69.9,0,0,0,2.52-16.19S354.32,241.3,342.44,264.61Zm-68,48.33h-4.22s-1.16-7.34-19.94-7.34-19.94,7.34-19.94,7.34h-4.22a13.3,13.3,0,0,1-13.4-13.19V274.3c3-2.9,33.26,0,37.35-.4,4.28.45,37.15-2.77,37.61.83.07.52.12,1.18.16,1.93v19.26c0,1.42-.06,2.74-.09,3.86l.09,0v0A13.3,13.3,0,0,1,274.47,312.94Z"/><path class="cls-10" d="M219,212.77a4,4,0,0,1-4-3.35c-.7-4-5.16-11.61-17.07-11.61-15.06,0-18.14,10.35-18.26,10.8a4,4,0,0,1-7.8-2.05c1.5-5.82,8.87-16.81,26.06-16.81,15,0,23.49,9.48,25,18.3a4,4,0,0,1-3.28,4.66A4.23,4.23,0,0,1,219,212.77Z"/><path class="cls-10" d="M281.63,212.77a4,4,0,0,1-4-4.72c1.52-8.82,10-18.3,25-18.3,17.19,0,24.56,11,26.06,16.81a4,4,0,0,1-7.8,2c-.15-.52-3.26-10.79-18.26-10.79-11.91,0-16.37,7.6-17.06,11.61A4,4,0,0,1,281.63,212.77Z"/><path class="cls-11" d="M279,241.47c0-3.14-4.39-6-9.24-8.11-6.07-2.64-11.14-7-15.49-12-3.14-3.6-6.15-3.16-9.06.56a40.52,40.52,0,0,1-15.17,11.62c-4.53,2.1-8.5,4.87-8.5,7.91a11.79,11.79,0,0,0,11.16,11.77,19.26,19.26,0,0,0,35.14,0A11.79,11.79,0,0,0,279,241.47Z"/><path class="cls-9" d="M221,171.13a3.08,3.08,0,0,1-1-.06c-.29-.08-30-7.16-47.39,3.51-2,1.23-4.45-.24-5.5-3.28s-.28-6.48,1.71-7.7c19.41-11.95,50.42-4.54,51.73-4.21,2.25.55,3.94,3.6,3.79,6.83C224.12,168.93,222.73,170.9,221,171.13Z"/><path class="cls-9" d="M278.43,171.13a3.06,3.06,0,0,0,1-.06c.3-.08,30-7.16,47.4,3.51,2,1.23,4.45-.24,5.5-3.28s.28-6.48-1.71-7.7c-19.42-11.95-50.42-4.54-51.74-4.21-2.24.55-3.93,3.6-3.78,6.83C275.26,168.93,276.66,170.9,278.43,171.13Z"/><path class="cls-3" d="M250.79,296.93a57.48,57.48,0,0,1-31.19-9.47,4,4,0,0,1,4.78-6.49c1.07.78,24.88,17.69,52-.12a4,4,0,1,1,4.42,6.74A54,54,0,0,1,250.79,296.93Z"/><rect class="cls-11" x="234.98" y="192.29" width="28.66" height="52.29" rx="11.31" ry="11.31"/><path class="cls-9" d="M361.27,91.41q-2.55-4.77-5.5-9.28a2.18,2.18,0,0,0-.09.23c-20.36-28.09-57.61-42.18-95.09-44C249.75,32.6,253.64,27,253.64,27c-78.5,6.5-107.11,46-107.11,46q-3.27,5-6.11,10.3c-10.19,19.08-10.71,44.33-10.71,67.48,0,16.51,1.8,32.29,7.19,46.94,12.59,3.45,12.15-19.26,15.83-29.9h0v0c1.34-3.88,2.49-7.84,3.48-11.87,5.92-14.86,13.56-12.7,18.93-21,6.5-10-15.65-24.75-15.65-24.75l7.86-3.09c18.46-.75,43.87,1,80.12,24a44.52,44.52,0,0,0,3.81,2.42,41.81,41.81,0,0,0,3.76-2.38c42.19-26.67,69.63-22.8,88.59-21.34l-.55.4S320.93,125,327.43,135c4.55,7,10.72,6.52,16.1,15.23,2.76,17.33-2.27,56.27,20.07,47.56,4.86-13.19,5.8-27.46,5.8-42.34C369.4,134.62,370.45,108.6,361.27,91.41Z"/><polygon class="cls-4" points="133.38 189.12 157.31 178.74 154.75 195.13 135.55 198.93 133.38 189.12"/><polygon class="cls-4" points="367.06 189.12 343.12 178.74 345.65 193.81 364.88 198.93 367.06 189.12"/><path class="cls-4" d="M232.24,188.89a37.46,37.46,0,0,1,.41,10.36c6.6-1,21.88-2.54,35.84.83a22.69,22.69,0,0,1,1.81-9.45C263.31,187.46,250.17,183.81,232.24,188.89Z"/><path class="cls-4" d="M236.74,194.74V192.4c-.06-.68-1.71-16.6-28.12-18.4-23.74-1.62-50.53,1.14-51.66,1.26l-1.84.19-.88,1.63c-.23.43-1.68,3.38-2.47,10.18l-.27,0,.15,1.09c-.06.55-.11,1.12-.15,1.72a4.05,4.05,0,0,1,.35-.21l3.87,28.25c1.32,9.63,10.23,16.9,20.73,16.9H210c9.49,0,17.8-5.93,20.21-14.42l7.29-25.69Zm-14.16,24a12.86,12.86,0,0,1-12.55,9H176.44c-6.52,0-12.05-4.51-12.87-10.49l-4.23-30.85-.41,0a34.63,34.63,0,0,1,.91-4.41c6.89-.62,29-2.35,48.3-1s21.43,10.87,21.6,11.92v.63Z"/><path class="cls-4" d="M263.09,194.93l7.3,25.69c2.4,8.49,10.71,14.42,20.2,14.42h33.59c10.5,0,19.41-7.27,20.73-16.9l3.87-28.25a4.05,4.05,0,0,1,.35.21c0-.6-.09-1.17-.15-1.72l.15-1.09-.27,0c-.79-6.8-2.24-9.75-2.47-10.18l-.88-1.63-1.84-.19c-1.13-.12-27.92-2.88-51.66-1.26-26.41,1.8-28.06,17.72-28.12,18.4v2.34Zm7.79-1.4v-.63c.17-1.05,2.28-10.6,21.6-11.92s41.41.41,48.3,1a34.63,34.63,0,0,1,.91,4.41l-.41,0-4.23,30.85c-.81,6-6.35,10.49-12.87,10.49H290.59a12.86,12.86,0,0,1-12.55-9Z"/><path class="cls-12" d="M222.58,218.76a12.86,12.86,0,0,1-12.55,9H176.44c-6.52,0-12.05-4.51-12.87-10.49l-4.23-30.85-.41,0a34.63,34.63,0,0,1,.91-4.41c6.89-.62,29-2.35,48.3-1s21.43,10.87,21.6,11.92v.63Z"/><path class="cls-12" d="M270.88,193.53v-.63c.17-1.05,2.28-10.6,21.6-11.92s41.41.41,48.3,1a34.63,34.63,0,0,1,.91,4.41l-.41,0-4.23,30.85c-.81,6-6.35,10.49-12.87,10.49H290.59a12.86,12.86,0,0,1-12.55-9Z"/><polygon class="cls-13" points="250.04 392.73 205.95 432.21 175.27 371.12 191.03 354.58 250.04 392.73"/><polygon class="cls-13" points="250.04 392.73 290.38 428.71 324.8 371.12 309.04 354.58 250.04 392.73"/></svg>