<svg id="Layer_1" data-name="Layer 1" xmlns="http://www.w3.org/2000/svg" viewBox="0 0 500 500"><defs><style>.cls-1{fill:#eff6f9;}.cls-2{fill:#f4d6b0;}.cls-3{fill:#e0bb94;}.cls-4{fill:#231f20;}.cls-5{fill:#808285;}.cls-6{fill:#ffc7b6;}.cls-7{fill:#ffe1cc;}.cls-8{fill:#5c5d64;}.cls-9{fill:#272223;}.cls-10{fill:#dc9b80;}.cls-11{opacity:0.5;}.cls-12{fill:#fff;}</style></defs><title>Tawk_Avatar-Male</title><path class="cls-1" d="M250,474.94A177,177,0,1,1,427,298a177,177,0,0,1-177,177"/><path class="cls-2" d="M294.86,352.79v-32l-44.86,32-44.86-32v32c0,13.86-14.11,13.86-14.11,13.86l59,58.72,59-58.72S294.86,366.65,294.86,352.79Z"/><path class="cls-3" d="M294.86,320.79l-44.86,32-44.86-32v32c0,.45,0,.85-.08,1.27,24.59,11,44.94,12,44.94,12s20.35-.93,44.94-12c0-.42-.08-.82-.08-1.27Z"/><path class="cls-4" d="M250,474.94a176.7,176.7,0,0,0,142.66-72.25L316,369.43h-7.14L289.84,391a53.21,53.21,0,0,1-79.68,0l-19-21.52H184l-77.25,32.41A176.71,176.71,0,0,0,250,474.94"/><path class="cls-5" d="M305.44,362.36l-19,17.87a53.2,53.2,0,0,1-72.92,0l-19-17.87L184,369.43,205.38,391a62.86,62.86,0,0,0,89.24,0L316,369.43Z"/><ellipse class="cls-6" cx="136.42" cy="206.69" rx="30.72" ry="35.62"/><ellipse class="cls-6" cx="363.24" cy="206.69" rx="30.72" ry="35.62"/><path class="cls-7" d="M173.1,96.22a36.68,36.68,0,0,0-36.68,36.68V247.27C136.42,265,188,353,248.06,357.75c44.48,3.51,115.18-82.12,115.18-110.48V132.9c0-37.29.29-36.68-36.68-36.68Z"/><path class="cls-8" d="M218.51,211.55a4,4,0,0,1-4-3.35c-.69-4-5.15-11.61-17.06-11.61-15.07,0-18.14,10.35-18.26,10.79a4,4,0,0,1-4.94,2.83,4,4,0,0,1-2.86-4.87c1.5-5.82,8.87-16.81,26.06-16.81,15,0,23.49,9.48,25,18.3a4,4,0,0,1-4,4.72Z"/><path class="cls-8" d="M281.15,211.55a4.23,4.23,0,0,1-.7-.06,4,4,0,0,1-3.28-4.66c1.52-8.82,10-18.3,25-18.3,17.19,0,24.56,11,26.06,16.81a4,4,0,0,1-7.8,2c-.15-.52-3.26-10.79-18.26-10.79-11.91,0-16.37,7.6-17.07,11.61A4,4,0,0,1,281.15,211.55Z"/><path class="cls-6" d="M278.56,240.25c0-3.14-4.39-6-9.25-8.11a44.42,44.42,0,0,1-15.48-12c-3.14-3.6-6.15-3.16-9.06.56a40.48,40.48,0,0,1-15.18,11.62c-4.52,2.1-8.49,4.87-8.49,7.91A11.79,11.79,0,0,0,232.26,252a19.26,19.26,0,0,0,35.14,0A11.79,11.79,0,0,0,278.56,240.25Z"/><path class="cls-9" d="M220.47,169.91a2.86,2.86,0,0,1-1-.07c-.29-.07-30-7.15-47.39,3.52-2,1.23-4.45-.24-5.5-3.28s-.29-6.48,1.7-7.7c19.42-11.95,50.43-4.54,51.74-4.21,2.24.55,3.94,3.6,3.79,6.83C223.64,167.71,222.25,169.68,220.47,169.91Z"/><path class="cls-9" d="M278,169.91a2.84,2.84,0,0,0,1-.07c.3-.07,30-7.15,47.4,3.52,2,1.23,4.45-.24,5.49-3.28s.29-6.48-1.7-7.7c-19.42-11.95-50.43-4.54-51.74-4.21-2.24.55-3.94,3.6-3.78,6.83C274.78,167.71,276.18,169.68,278,169.91Z"/><path class="cls-10" d="M250.3,295.71a57.52,57.52,0,0,1-31.19-9.47,4,4,0,0,1,4.79-6.49c1.07.78,24.88,17.69,52-.12a4,4,0,1,1,4.42,6.74A54,54,0,0,1,250.3,295.71Z"/><rect class="cls-6" x="234.5" y="191.07" width="28.66" height="52.29" rx="11.31" ry="11.31"/><path class="cls-9" d="M360.79,90.19q-2.55-4.77-5.5-9.28l-.1.23c-20.35-28.09-57.6-42.18-95.08-44-42.63,4.13-.19-10.4-7-11.35-53.91-7.6-107.11,46-107.11,46q-3.27,5-6.1,10.3c-10.2,19.08-10.71,44.33-10.71,67.47,0,16.52,1.8,32.3,7.19,47,12.59,3.45,12.15-19.26,15.82-29.9h0v0c1.34-3.88,2.49-7.84,3.48-11.87,5.92-14.86,13.55-12.7,18.92-21,6.5-10-19.16-40.35-19.16-40.35l17,12.38c10.32-.42,17.2.08,32.54,4.5,12.11,3.48,43,27,85,27.37,1.3-.72-31-22.4-29.75-23.25,50.5,16.08,77.43,25.87,82.81,34.58,2.76,17.33-2.27,56.27,20.07,47.56,4.86-13.2,5.8-27.46,5.8-42.34C368.92,133.4,370,107.38,360.79,90.19Z"/><path class="cls-9" d="M243.11,37.55s27.63-8.85,59.63-5.35-17.5,4.5-14.5,19"/><path class="cls-9" d="M341.37,256.61c-7.91,16.09-22.19,31.74-42.35,30.73-10.08-.51,1.92-14.61-8.25-20.64-7.54-4.47-73.4-4.47-80.93,0-10.17,6,1.83,20.13-8.25,20.64-20.16,1-34.45-14.64-42.35-30.73-7.51-15.29-22.82-20.67-22.82-20.67s-.17,30.8,16.14,55.07c24.3,36.16,57.1,55.92,78,65.58a46.93,46.93,0,0,0,6.06,2.32l0,.15a50.27,50.27,0,0,0,27.45,0l0-.15a47.49,47.49,0,0,0,6.06-2.32c20.91-9.66,53.7-29.42,78-65.58,16.3-24.27,16.14-55.07,16.14-55.07S348.88,241.32,341.37,256.61Zm-56.68,46.76c0,2.66-12.84,11.66-25.67,12,0,0-.79-1.55-1.67-6.67a3.86,3.86,0,0,0-2.75-3.47l0-.12c-4.54-1.41-10.76-.82-11.38,3.59-.72,5.14-1.66,6.67-1.66,6.67-12.84-.34-25.67-9.34-25.67-12s-.67-23,0-28.71c.42-3.6,30.48-.37,34.38-.83,3.91.46,34-2.77,34.39.83C285.35,280.37,284.69,300.7,284.69,303.37Z"/><g class="cls-11"><path class="cls-12" d="M166.55,180.77a13.63,13.63,0,0,0-12.71,12.55c-.18,2.38-.26,5.18-.21,8.43.13,6.86.68,14.21,1.24,20.13.64,6.7,6.73,11.77,13.92,11.62l50-1.05c7.43-.16,13.36-5.83,13.36-12.78v-24.1S231,182,207.25,180.37A318.48,318.48,0,0,0,166.55,180.77Z"/></g><g class="cls-11"><path class="cls-12" d="M331.64,180.77a13.63,13.63,0,0,1,12.71,12.55c.17,2.38.26,5.18.21,8.43-.13,6.86-.68,14.21-1.24,20.13-.64,6.7-6.73,11.77-13.93,11.62l-50-1.05c-7.43-.16-13.36-5.83-13.36-12.78v-24.1s1.15-13.58,24.87-15.2A318.48,318.48,0,0,1,331.64,180.77Z"/></g><path class="cls-9" d="M231.8,202.08c6.84-1,22.21-2.49,36.13,1a4.52,4.52,0,0,0,5.26-2.5l.11-.25a4.48,4.48,0,0,0-2-5.81c-6.4-3.36-21-8.68-41.78-2.29a4.52,4.52,0,0,0-2.95,5.78l.38,1.09A4.48,4.48,0,0,0,231.8,202.08Z"/></svg>