<svg id="Layer_1" data-name="Layer 1" xmlns="http://www.w3.org/2000/svg" xmlns:xlink="http://www.w3.org/1999/xlink" viewBox="0 0 500 500"><defs><style>.cls-1{fill:none;}.cls-2{fill:#eff6f9;}.cls-3{fill:#be1e2d;}.cls-4{clip-path:url(#clip-path);}.cls-5{fill:#c93547;}.cls-6{fill:#eaba8f;}.cls-7{fill:#d8a173;}.cls-8{fill:#383536;}.cls-9{fill:#272223;}.cls-10{fill:#dbab83;}.cls-11{fill:#231f20;}.cls-12{fill:#ce7d6f;}.cls-13{opacity:0.5;}.cls-14{fill:#fff;}.cls-15{fill:#d1394b;}.cls-16{clip-path:url(#clip-path-2);}.cls-17{fill:#f28698;}.cls-18{fill:#e6e7e8;}.cls-19{fill:#bcbec0;}</style><clipPath id="clip-path"><path class="cls-1" d="M406.92,197.77c-32.52-34.47-38.24-80.4-38.24-80.4l-119-45.14-119,45.14S125,163.3,92.46,197.77s6.48,173.46,6.48,173.46a1011.65,1011.65,0,0,1,301.5,0S439.44,232.23,406.92,197.77Z"/></clipPath><clipPath id="clip-path-2"><path class="cls-1" d="M265,23.11H234.92A104.22,104.22,0,0,0,130.7,127.33v41.75q119.25-39.79,238.51,0V127.33A104.22,104.22,0,0,0,265,23.11Z"/></clipPath></defs><title>Tawk_Avatar-Male</title><path class="cls-2" d="M250,476.89a177,177,0,1,1,177-177,177,177,0,0,1-177,177"/><path class="cls-3" d="M406.92,197.77c-32.52-34.47-38.24-80.4-38.24-80.4l-119-45.14-119,45.14S125,163.3,92.46,197.77s6.48,173.46,6.48,173.46a1011.65,1011.65,0,0,1,301.5,0S439.44,232.23,406.92,197.77Z"/><g class="cls-4"><polygon class="cls-5" points="241.56 516.88 -2.87 166.09 0.85 164.05 245.28 514.84 241.56 516.88"/><polygon class="cls-5" points="267.26 498.14 22.82 147.35 26.55 145.31 270.98 496.1 267.26 498.14"/><polygon class="cls-5" points="292.95 479.41 48.52 128.62 52.24 126.57 296.68 477.36 292.95 479.41"/><polygon class="cls-5" points="318.65 460.67 74.22 109.88 77.94 107.84 322.37 458.63 318.65 460.67"/><polygon class="cls-5" points="344.35 441.93 99.92 91.14 103.64 89.1 348.07 439.89 344.35 441.93"/><polygon class="cls-5" points="370.05 423.2 125.61 72.41 129.33 70.36 373.77 421.15 370.05 423.2"/><polygon class="cls-5" points="395.74 404.46 151.31 53.67 155.03 51.63 399.46 402.42 395.74 404.46"/><polygon class="cls-5" points="421.44 385.72 177.01 34.94 180.73 32.89 425.16 383.68 421.44 385.72"/><polygon class="cls-5" points="447.14 366.99 202.7 16.2 206.42 14.15 450.86 364.94 447.14 366.99"/><polygon class="cls-5" points="472.83 348.25 228.4 -2.54 232.12 -4.58 476.55 346.2 472.83 348.25"/><polygon class="cls-5" points="498.53 329.51 254.1 -21.27 257.82 -23.32 502.25 327.47 498.53 329.51"/><polygon class="cls-5" points="257.82 516.88 502.25 166.09 498.53 164.05 254.1 514.84 257.82 516.88"/><polygon class="cls-5" points="232.12 498.14 476.55 147.35 472.83 145.31 228.4 496.1 232.12 498.14"/><polygon class="cls-5" points="206.42 479.41 450.86 128.62 447.14 126.57 202.7 477.36 206.42 479.41"/><polygon class="cls-5" points="180.73 460.67 425.16 109.88 421.44 107.84 177.01 458.63 180.73 460.67"/><polygon class="cls-5" points="155.03 441.93 399.46 91.14 395.74 89.1 151.31 439.89 155.03 441.93"/><polygon class="cls-5" points="129.33 423.2 373.77 72.41 370.05 70.36 125.61 421.15 129.33 423.2"/><polygon class="cls-5" points="103.64 404.46 348.07 53.67 344.35 51.63 99.92 402.42 103.64 404.46"/><polygon class="cls-5" points="77.94 385.72 322.37 34.94 318.65 32.89 74.22 383.68 77.94 385.72"/><polygon class="cls-5" points="52.24 366.99 296.68 16.2 292.95 14.15 48.52 364.94 52.24 366.99"/><polygon class="cls-5" points="26.55 348.25 270.98 -2.54 267.26 -4.58 22.82 346.2 26.55 348.25"/><polygon class="cls-5" points="0.85 329.51 245.28 -21.27 241.56 -23.32 -2.87 327.47 0.85 329.51"/></g><path class="cls-6" d="M294.86,354.74v-32l-44.86,32-44.86-32v32c0,13.87-14.11,13.87-14.11,13.87l59,58.72,59-58.72S294.86,368.61,294.86,354.74Z"/><path class="cls-7" d="M294.86,322.74l-44.86,32-44.86-32v32c0,.44,0,.84-.08,1.26,24.59,11,44.94,12,44.94,12s20.35-.94,44.94-12c0-.42-.08-.82-.08-1.26Z"/><ellipse class="cls-7" cx="137.28" cy="211.82" rx="30.72" ry="35.62"/><ellipse class="cls-7" cx="364.1" cy="211.82" rx="30.72" ry="35.62"/><path class="cls-6" d="M174,102a36.68,36.68,0,0,0-36.68,36.68V253.06c0,17.7,52.3,102.13,112.41,106.87,44.48,3.51,114.41-78.5,114.41-106.87V138.7c0-37.29.29-36.68-36.68-36.68Z"/><path class="cls-8" d="M158.56,268.53c-11.87-23.32-22.15-21.09-22.15-21.09a64.15,64.15,0,0,0,1.92,13.76,113.92,113.92,0,0,0,28.22,51.93c12.91,13.75,24.74,23.71,35.21,30.94V283.85C188.31,287.14,167.15,285.38,158.56,268.53Z"/><path class="cls-9" d="M294.74,270.68c-8.24-4.47-80.28-4.47-88.52,0-5.9,3.2-5,8.66-4.46,13.17v60.22c30.18,20.83,48.93,18.82,48.93,18.82s20.53-1.3,48.52-19.37V283.75C299.73,279.26,300.59,273.85,294.74,270.68Zm-6.49,29.16c0,1.42-.06,2.73-.09,3.85l.09-.05v0a13.29,13.29,0,0,1-13.4,13.19h-4.22s-1.16-7.34-19.94-7.34-19.94,7.34-19.94,7.34h-4.22a13.29,13.29,0,0,1-13.4-13.19V278.21c3-2.9,33.26,0,37.35-.4,4.27.46,37.15-2.77,37.61.83.07.52.12,1.19.16,1.94Z"/><path class="cls-8" d="M342.82,268.53c-8.68,17-30.19,18.65-43.61,15.22v59.77A193.76,193.76,0,0,0,333.47,315a115.11,115.11,0,0,0,29-51.35A69.9,69.9,0,0,0,365,247.44S354.69,245.21,342.82,268.53Z"/><path class="cls-9" d="M219.37,216.68a4,4,0,0,1-4-3.35c-.69-4-5.15-11.61-17.06-11.61-15.06,0-18.14,10.36-18.26,10.8a4,4,0,0,1-7.8-2.05c1.5-5.81,8.87-16.81,26.06-16.81,15,0,23.49,9.49,25,18.3a4,4,0,0,1-4,4.72Z"/><path class="cls-9" d="M282,216.68a4.23,4.23,0,0,1-.7-.06A4,4,0,0,1,278,212c1.52-8.81,10-18.3,25-18.3,17.19,0,24.56,11,26.06,16.81a4,4,0,0,1-7.8,2c-.15-.52-3.26-10.78-18.26-10.79-11.91,0-16.37,7.6-17.07,11.61A4,4,0,0,1,282,216.68Z"/><path class="cls-10" d="M279.42,245.38c0-3.14-4.39-6-9.25-8.11a44.42,44.42,0,0,1-15.48-12c-3.14-3.6-6.15-3.16-9.06.56a40.61,40.61,0,0,1-15.18,11.63c-4.52,2.09-8.49,4.86-8.49,7.9a11.79,11.79,0,0,0,11.16,11.77,19.25,19.25,0,0,0,35.14,0A11.79,11.79,0,0,0,279.42,245.38Z"/><path class="cls-11" d="M221.33,175a3.08,3.08,0,0,1-1-.06c-.29-.07-30-7.16-47.39,3.51-2,1.23-4.45-.24-5.5-3.27s-.29-6.49,1.7-7.71c19.42-11.95,50.43-4.53,51.74-4.21,2.24.55,3.94,3.61,3.79,6.83C224.5,172.84,223.11,174.81,221.33,175Z"/><path class="cls-11" d="M278.81,175a3.07,3.07,0,0,0,1-.06c.3-.07,30-7.16,47.4,3.51,2,1.23,4.45-.24,5.5-3.27s.28-6.49-1.71-7.71c-19.42-11.95-50.43-4.53-51.74-4.21-2.24.55-3.93,3.61-3.78,6.83C275.64,172.84,277,174.81,278.81,175Z"/><path class="cls-12" d="M251.16,300.84A57.42,57.42,0,0,1,220,291.37a4,4,0,0,1,4.78-6.49c1.07.78,24.88,17.69,52-.12a4,4,0,1,1,4.42,6.74A54,54,0,0,1,251.16,300.84Z"/><rect class="cls-10" x="235.36" y="196.2" width="28.66" height="52.29" rx="11.31" ry="11.31"/><path class="cls-11" d="M360,95.32q-2.5-4.77-5.41-9.28l-.1.23c-20-28.08-56.74-42.18-93.66-44C250.13,36.51,254,30.93,254,30.93c-77.32,6.5-105.5,46-105.5,46q-3.22,5-6,10.3c-10.05,19.08-10.55,44.33-10.55,67.48,0,16.51,1.77,32.3,7.08,46.94,12.4,3.45,12-19.26,15.59-29.9h0v0c1.32-3.87,2.45-7.84,3.43-11.87,5.83-14.85,13.35-12.7,18.64-21,6.4-10-15.41-24.75-15.41-24.75l7.74-3.09c18.19-.75,43.21,1,78.92,24a43.7,43.7,0,0,0,3.76,2.42,42.3,42.3,0,0,0,3.7-2.38c41.56-26.67,68.59-22.8,87.26-21.34l-.54.4s-21.82,14.75-15.41,24.75c4.48,7,10.55,6.52,15.85,15.23,2.72,17.33-2.23,56.27,19.77,47.56,4.79-13.19,5.72-27.45,5.72-42.33C368,138.53,369,112.51,360,95.32Z"/><path class="cls-1" d="M218.18,84.09c-47.67,5.49-72.33,30.86-84.63,51.18a118,118,0,0,0-12.73,29.8,90.83,90.83,0,0,1,10.92-19c22.87-30.53,59.65-39.92,86.47-42.41a298.75,298.75,0,0,1,53.92-.6c5.14-3.6,12.29-8.89,20.92-16C271.19,81.7,246.5,80.83,218.18,84.09Z"/><g class="cls-13"><path class="cls-14" d="M167.14,181.79a13.63,13.63,0,0,0-12.7,12.56c-.18,2.38-.27,5.18-.21,8.43.12,6.86.68,14.2,1.24,20.13.63,6.7,6.73,11.77,13.92,11.62l50-1.05c7.43-.16,13.37-5.83,13.37-12.78V196.6s-1.16-13.58-24.87-15.2C193.25,180.4,177.27,181.11,167.14,181.79Z"/></g><g class="cls-13"><path class="cls-14" d="M332.24,181.79a13.64,13.64,0,0,1,12.7,12.56c.18,2.38.27,5.18.21,8.43-.12,6.86-.68,14.2-1.24,20.13-.63,6.7-6.73,11.77-13.92,11.62l-50-1.05c-7.42-.16-13.36-5.83-13.36-12.78V196.6s1.16-13.58,24.87-15.2C306.13,180.4,322.11,181.11,332.24,181.79Z"/></g><path class="cls-9" d="M232.4,203.11c6.84-1,22.21-2.49,36.12,1a4.54,4.54,0,0,0,5.27-2.51l.11-.24a4.5,4.5,0,0,0-2-5.82c-6.4-3.35-21-8.67-41.79-2.28a4.51,4.51,0,0,0-2.94,5.78l.38,1.09A4.47,4.47,0,0,0,232.4,203.11Z"/><path class="cls-15" d="M265,23.11H234.92A104.22,104.22,0,0,0,130.7,127.33v41.75q119.25-39.79,238.51,0V127.33A104.22,104.22,0,0,0,265,23.11Z"/><g class="cls-16"><polygon class="cls-17" points="233.55 282.18 58.2 30.53 60.87 29.06 236.22 280.71 233.55 282.18"/><polygon class="cls-17" points="251.99 268.74 76.64 17.09 79.31 15.62 254.66 267.27 251.99 268.74"/><polygon class="cls-17" points="270.42 255.3 95.07 3.65 97.74 2.18 273.09 253.83 270.42 255.3"/><polygon class="cls-17" points="288.86 241.86 113.5 -9.79 116.17 -11.26 291.53 240.39 288.86 241.86"/><polygon class="cls-17" points="307.29 228.41 131.94 -23.24 134.61 -24.7 309.96 226.95 307.29 228.41"/><polygon class="cls-17" points="325.73 214.97 150.37 -36.68 153.04 -38.15 328.4 213.51 325.73 214.97"/><polygon class="cls-17" points="344.16 201.53 168.81 -50.12 171.48 -51.59 346.83 200.06 344.16 201.53"/><polygon class="cls-17" points="362.6 188.09 187.24 -63.56 189.91 -65.03 365.27 186.62 362.6 188.09"/><polygon class="cls-17" points="381.03 174.65 205.68 -77 208.35 -78.47 383.7 173.18 381.03 174.65"/><polygon class="cls-17" points="399.47 161.21 224.11 -90.44 226.78 -91.91 402.13 159.74 399.47 161.21"/><polygon class="cls-17" points="417.9 147.77 242.55 -103.89 245.22 -105.35 420.57 146.3 417.9 147.77"/><polygon class="cls-17" points="245.22 282.18 420.57 30.53 417.9 29.06 242.55 280.71 245.22 282.18"/><polygon class="cls-17" points="226.78 268.74 402.13 17.09 399.47 15.62 224.11 267.27 226.78 268.74"/><polygon class="cls-17" points="208.35 255.3 383.7 3.65 381.03 2.18 205.68 253.83 208.35 255.3"/><polygon class="cls-17" points="189.91 241.86 365.27 -9.79 362.6 -11.26 187.24 240.39 189.91 241.86"/><polygon class="cls-17" points="171.48 228.41 346.83 -23.24 344.16 -24.7 168.81 226.95 171.48 228.41"/><polygon class="cls-17" points="153.04 214.97 328.4 -36.68 325.73 -38.15 150.37 213.51 153.04 214.97"/><polygon class="cls-17" points="134.61 201.53 309.96 -50.12 307.29 -51.59 131.94 200.06 134.61 201.53"/><polygon class="cls-17" points="116.17 188.09 291.53 -63.56 288.86 -65.03 113.5 186.62 116.17 188.09"/><polygon class="cls-17" points="97.74 174.65 273.09 -77 270.42 -78.47 95.07 173.18 97.74 174.65"/><polygon class="cls-17" points="79.31 161.21 254.66 -90.44 251.99 -91.91 76.64 159.74 79.31 161.21"/><polygon class="cls-17" points="60.87 147.77 236.22 -103.89 233.55 -105.35 58.2 146.3 60.87 147.77"/></g><rect class="cls-11" x="123.96" y="116.95" width="252" height="22.15" rx="11.08" ry="11.08"/><rect class="cls-11" x="123.96" y="101.47" width="252" height="22.15" rx="11.08" ry="11.08"/><path class="cls-18" d="M250,476.89a176.7,176.7,0,0,0,142.66-72.25L316,371.38h-7.14l-19.05,21.53a53.21,53.21,0,0,1-79.68,0l-19-21.53H184l-77.25,32.41A176.71,176.71,0,0,0,250,476.89"/><circle class="cls-19" cx="249.69" cy="424.14" r="4.37"/><circle class="cls-19" cx="249.69" cy="440.39" r="4.37"/><circle class="cls-19" cx="249.69" cy="456.64" r="4.37"/><path class="cls-19" d="M305.44,364.32l-19,17.86a53.2,53.2,0,0,1-72.92,0l-19-17.86L184,371.38,205.38,393a62.87,62.87,0,0,0,89.24,0L316,371.38Z"/></svg>