<svg id="Layer_1" data-name="Layer 1" xmlns="http://www.w3.org/2000/svg" viewBox="0 0 500 500"><defs><style>.cls-1{fill:#eff6f9;}.cls-2{fill:#ffe1cc;}.cls-3{fill:#efd1bd;}.cls-4{fill:#fbb040;}.cls-5{fill:#f15a29;}.cls-6{fill:#ffc7b6;}.cls-7{fill:#5c5d64;}.cls-8{fill:#272223;}.cls-9{fill:#dc9b80;}</style></defs><title>Tawk_Avatar-Male</title><path class="cls-1" d="M250,481.61a177,177,0,1,1,177-177,177,177,0,0,1-177,177"/><path class="cls-2" d="M294.86,359.46v-32l-44.86,32-44.86-32v32c0,13.87-14.11,13.87-14.11,13.87l59,58.72,59-58.72S294.86,373.33,294.86,359.46Z"/><path class="cls-3" d="M294.86,327.46l-44.86,32-44.86-32v32c0,.45,0,.85-.08,1.27,24.59,11,44.94,12,44.94,12s20.35-.94,44.94-12c0-.42-.08-.82-.08-1.27Z"/><path class="cls-4" d="M250,481.61a176.7,176.7,0,0,0,142.66-72.25L316,376.1h-7.14l-19.05,21.53a53.21,53.21,0,0,1-79.68,0l-19-21.53H184l-77.25,32.41A176.71,176.71,0,0,0,250,481.61"/><path class="cls-5" d="M305.44,369l-19,17.86a53.2,53.2,0,0,1-72.92,0l-19-17.86L184,376.1l21.41,21.57a62.86,62.86,0,0,0,89.24,0L316,376.1Z"/><ellipse class="cls-6" cx="136.59" cy="211.98" rx="30.72" ry="35.62"/><ellipse class="cls-6" cx="363.41" cy="211.98" rx="30.72" ry="35.62"/><path class="cls-2" d="M136.59,101.51v151c0,62.63,51.53,105.75,111.64,110.49,44.48,3.51,115.18-47.86,115.18-110.49v-151Z"/><path class="cls-7" d="M220.19,214.09a4.08,4.08,0,0,1-2.5-.82c-.82-.64-19.94-15.3-42-.41a4.23,4.23,0,0,1-4.94-.26,2.32,2.32,0,0,1,.34-3.83c27.12-18.3,51.38.52,51.62.71a2.31,2.31,0,0,1-.06,3.84A4.15,4.15,0,0,1,220.19,214.09Z"/><path class="cls-7" d="M326,214.09a4.05,4.05,0,0,1-2.5-.82c-.82-.64-19.94-15.3-42-.41a4.22,4.22,0,0,1-4.93-.26,2.32,2.32,0,0,1,.34-3.83c27.12-18.3,51.37.52,51.62.71a2.31,2.31,0,0,1-.07,3.84A4.09,4.09,0,0,1,326,214.09Z"/><path class="cls-6" d="M278.73,245.54c0-3.14-4.39-6-9.24-8.11-6.07-2.65-11.14-7-15.49-12-3.14-3.6-6.15-3.17-9.06.56a40.68,40.68,0,0,1-15.18,11.62c-4.52,2.09-8.49,4.86-8.49,7.91a11.79,11.79,0,0,0,11.16,11.77,19.26,19.26,0,0,0,35.14,0A11.79,11.79,0,0,0,278.73,245.54Z"/><path class="cls-8" d="M359.28,186.54,332.87,124.7A16.7,16.7,0,0,0,314,117.23c-24.73,7-82.83,19.54-130.69.9a16.9,16.9,0,0,0-18.6,4.12l-23.87,63.9a5.93,5.93,0,0,1-5.06,3.86,5.86,5.86,0,0,1-5.65-2.88c-6.93-11.64-15.48-35.06-7.62-73.67h0a4,4,0,0,1-4.26-.16,3.92,3.92,0,0,1-1.71-3.89c1.89-12.54,7.77-36.42,25.54-45.71,0,0,1.23-8,3.08-15.59a3.53,3.53,0,0,1,2.88-2.7,3.59,3.59,0,0,1,4.09,2.37A10.15,10.15,0,0,0,154.39,52S195.2-4.52,314.85,29c0,0,6.9,1.43,14.34,2.42a2.82,2.82,0,0,1,.7,5.39L327.15,38S352.38,68.44,378.68,74a5.8,5.8,0,0,1,4,3.15,6,6,0,0,1,.09,5.14c-2.06,4.61-5.52,10-10.89,12.13a27.5,27.5,0,0,0,4,4,8.17,8.17,0,0,1,2.74,8.87,7.48,7.48,0,0,1-3.76,4.41l-.2.11a17,17,0,0,0,5.51,2.18,6.29,6.29,0,0,1,3.74,2.31,6.63,6.63,0,0,1,1.4,4.2c-.22,13.38-2.24,44.74-15.51,66.88a5.82,5.82,0,0,1-6.38,2.67A6,6,0,0,1,359.28,186.54Z"/><path class="cls-8" d="M220.64,175.19a2.64,2.64,0,0,1-1-.06c-.29-.07-30-7.16-47.39,3.52-2,1.23-4.45-.24-5.5-3.28s-.28-6.49,1.7-7.71c19.42-11.95,50.43-4.53,51.74-4.21,2.24.55,3.94,3.61,3.79,6.84C223.81,173,222.42,175,220.64,175.19Z"/><path class="cls-8" d="M278.12,175.19a2.62,2.62,0,0,0,1-.06c.3-.07,30-7.16,47.4,3.52,2,1.23,4.45-.24,5.5-3.28s.28-6.49-1.71-7.71c-19.42-11.95-50.42-4.53-51.74-4.21-2.24.55-3.93,3.61-3.78,6.84C275,173,276.35,175,278.12,175.19Z"/><path class="cls-9" d="M250.47,301a57.6,57.6,0,0,1-31.18-9.46,4,4,0,0,1,4.78-6.49c1.07.78,24.88,17.69,52-.13a4,4,0,0,1,4.42,6.75A54,54,0,0,1,250.47,301Z"/><rect class="cls-6" x="235.67" y="195.3" width="28.66" height="52.29" rx="11.31" ry="11.31"/></svg>