<svg id="Layer_1" data-name="Layer 1" xmlns="http://www.w3.org/2000/svg" viewBox="0 0 500 500"><defs><style>.cls-1{fill:#eff6f9;}.cls-2{fill:#e5a193;}.cls-3{fill:#ce7d6f;}.cls-4{fill:#414042;}.cls-5{fill:#58595b;}.cls-6{fill:#bcbec0;}.cls-7{fill:#dd4a4a;}.cls-8{fill:#cc867a;}.cls-9{fill:#272223;}.cls-10{fill:#ea9081;}.cls-11{fill:#231f20;}.cls-12{fill:#d1d3d4;}.cls-13{fill:none;}.cls-14{fill:#e6e7e8;}.cls-15{fill:#fff;opacity:0.4;}</style></defs><title>Tawk_Avatar-Male</title><path class="cls-1" d="M250,476.75a177,177,0,1,1,177-177,177,177,0,0,1-177,177"/><path class="cls-2" d="M294.86,354.6v-32L250,354.6l-44.86-32v32c0,13.86-14.11,13.86-14.11,13.86l59,58.72,59-58.72S294.86,368.46,294.86,354.6Z"/><path class="cls-3" d="M294.86,323.47l-44.86,32-44.86-32v32c0,.45,0,.84-.08,1.27,24.59,11,44.94,12,44.94,12s20.35-.94,44.94-12c0-.43-.08-.82-.08-1.27Z"/><path class="cls-4" d="M250,476.75A176.7,176.7,0,0,0,392.66,404.5L316,371.24h-7.14l-19.05,21.53a53.21,53.21,0,0,1-79.68,0l-19-21.53H184l-77.25,32.41A176.71,176.71,0,0,0,250,476.75"/><path class="cls-5" d="M250,476.75a177.77,177.77,0,0,1-29.91-2.51l-68.64-72.43,23.78-26.92L250,396.5Z"/><path class="cls-5" d="M250,476.75a177.74,177.74,0,0,0,29.9-2.51l68.65-72.43L324.8,374.89,250,396.5Z"/><polygon class="cls-6" points="247.6 397.93 236.49 476.24 209.69 420.28 247.6 397.93"/><polygon class="cls-6" points="252.47 397.93 263.97 476.24 290.38 420.28 252.47 397.93"/><path class="cls-7" d="M264,476.24l-6-65.13L250.31,404v-.16l-.08.08-.08-.08V404l-7.67,7.15-6,65.13C236.49,476.92,264,476.92,264,476.24Z"/><polygon class="cls-7" points="250.28 396.5 250.19 396.5 233.7 396.5 242.48 416.4 250.23 416.4 250.24 416.4 257.99 416.4 266.11 396.5 250.28 396.5"/><ellipse class="cls-8" cx="136.9" cy="211.68" rx="30.72" ry="35.62"/><ellipse class="cls-8" cx="363.72" cy="211.68" rx="30.72" ry="35.62"/><path class="cls-2" d="M173.58,101.88a36.68,36.68,0,0,0-36.68,36.67V252.92c0,17.7,52.3,102.13,112.41,106.87,44.48,3.51,114.41-78.5,114.41-106.87V138.55c0-37.28.29-36.67-36.68-36.67Z"/><path class="cls-9" d="M342.44,268.38c-8.68,17-30.19,18.66-43.61,15.22.52-4.48,1.38-9.89-4.47-13.06-8.24-4.47-80.28-4.47-88.52,0-5.9,3.2-5,8.66-4.46,13.16-13.45,3.3-34.61,1.53-43.19-15.32C146.31,245.07,136,247.3,136,247.3A63.5,63.5,0,0,0,138,261.05,113.75,113.75,0,0,0,166.17,313c50.14,53.42,84.14,49.76,84.14,49.76s39-2.44,82.78-47.9a115.11,115.11,0,0,0,29-51.35,69.9,69.9,0,0,0,2.52-16.19S354.32,245.07,342.44,268.38Zm-68,48.33h-4.22s-1.16-7.34-19.94-7.34-19.94,7.34-19.94,7.34h-4.22a13.3,13.3,0,0,1-13.4-13.19V278.07c3-2.9,33.26,0,37.35-.4,4.28.45,37.15-2.78,37.61.83.07.52.12,1.18.16,1.93v19.26c0,1.42-.06,2.74-.09,3.86l.09-.05v0A13.3,13.3,0,0,1,274.47,316.71Z"/><path class="cls-9" d="M219,216.54a4,4,0,0,1-4-3.35c-.7-4-5.16-11.61-17.07-11.61-15.06,0-18.14,10.35-18.26,10.79a4,4,0,0,1-7.8-2c1.5-5.82,8.87-16.81,26.06-16.81,15,0,23.49,9.48,25,18.3a4,4,0,0,1-3.28,4.66A4.23,4.23,0,0,1,219,216.54Z"/><path class="cls-9" d="M281.63,216.54a4,4,0,0,1-4-4.72c1.52-8.82,10-18.3,25-18.3,17.19,0,24.56,11,26.06,16.81a4,4,0,0,1-7.8,2c-.15-.52-3.26-10.79-18.26-10.79-11.91,0-16.37,7.6-17.06,11.61A4,4,0,0,1,281.63,216.54Z"/><path class="cls-10" d="M279,245.24c0-3.14-4.39-6-9.24-8.11-6.07-2.64-11.14-7-15.49-12-3.14-3.6-6.15-3.16-9.06.56a40.52,40.52,0,0,1-15.17,11.62c-4.53,2.1-8.5,4.87-8.5,7.91A11.79,11.79,0,0,0,232.74,257a19.26,19.26,0,0,0,35.14,0A11.79,11.79,0,0,0,279,245.24Z"/><path class="cls-11" d="M221,174.9a2.86,2.86,0,0,1-1-.07c-.29-.07-30-7.15-47.39,3.52-2,1.23-4.45-.24-5.5-3.28s-.28-6.48,1.71-7.7c19.41-12,50.42-4.54,51.73-4.21,2.25.55,3.94,3.6,3.79,6.83C224.12,172.7,222.73,174.67,221,174.9Z"/><path class="cls-11" d="M278.43,174.9a2.83,2.83,0,0,0,1-.07c.3-.07,30-7.15,47.4,3.52,2,1.23,4.45-.24,5.5-3.28s.28-6.48-1.71-7.7c-19.42-12-50.42-4.54-51.74-4.21-2.24.55-3.93,3.6-3.78,6.83C275.26,172.7,276.66,174.67,278.43,174.9Z"/><path class="cls-3" d="M250.79,300.7a57.57,57.57,0,0,1-31.19-9.47,4,4,0,0,1,4.78-6.49c1.07.78,24.88,17.69,52-.12a4,4,0,1,1,4.42,6.74A54,54,0,0,1,250.79,300.7Z"/><rect class="cls-10" x="234.98" y="196.06" width="28.66" height="52.29" rx="11.31" ry="11.31"/><path class="cls-11" d="M361.27,95.18q-2.55-4.77-5.5-9.28a2.18,2.18,0,0,0-.09.23C335.32,58,298.07,44,260.59,42.14c-10.84-5.77-6.95-11.35-6.95-11.35-78.5,6.5-107.11,46-107.11,46q-3.27,5-6.11,10.3c-10.19,19.07-10.71,44.33-10.71,67.47,0,16.52,1.8,32.3,7.19,46.95,12.59,3.45,12.15-19.26,15.83-29.9h0v0c1.34-3.88,2.49-7.84,3.48-11.87,5.92-14.86,13.56-12.7,18.93-21,6.5-10-15.65-24.75-15.65-24.75l7.86-3.09c18.46-.75,43.87,1,80.12,24a44.52,44.52,0,0,0,3.81,2.42A41.81,41.81,0,0,0,255,135c42.19-26.67,69.63-22.81,88.59-21.34l-.55.4s-22.15,14.75-15.65,24.75c4.55,7,10.72,6.52,16.1,15.23,2.76,17.33-2.27,56.27,20.07,47.56,4.86-13.2,5.8-27.46,5.8-42.34C369.4,138.39,370.45,112.37,361.27,95.18Z"/><path class="cls-6" d="M356.1,177.17c-40.77-19.73-156.19-29.81-182.7-120.42,0,0,18.43-22.7,107.93-12.7,77.79,8.69,122.51,70.11,105.4,121.26C382.73,177.27,368.06,183,356.1,177.17Z"/><path class="cls-12" d="M142.54,177.17c40.77-19.73,136.85-69.44,182.7-120.42,0,0-23.15-42-112.65-32C134.8,33.48,94.8,114.16,111.91,165.31,115.91,177.27,130.58,183,142.54,177.17Z"/><path class="cls-13" d="M217.8,84c-47.67,5.49-72.33,30.86-84.63,51.17a118.35,118.35,0,0,0-12.73,29.8,90.68,90.68,0,0,1,10.93-19C154.23,115.4,191,106,217.83,103.51a299.62,299.62,0,0,1,53.92-.59c5.15-3.6,12.29-8.9,20.92-16C270.81,81.55,246.12,80.69,217.8,84Z"/><path class="cls-12" d="M314.69,66.22l-3.43,3.21c31,14.74,56.34,42,78.37,83.07.32-2.38.56-5,.67-7.87C368.86,106.48,344.35,80.71,314.69,66.22Z"/><path class="cls-12" d="M292,86.42c-1.43,1.2-2.82,2.34-4.18,3.45,41.36,8.54,73,32,99.65,72.37a50.09,50.09,0,0,0,1.42-5.52C362.71,118.26,331.81,95.41,292,86.42Z"/><path class="cls-12" d="M266,106.49c-2.33,1.62-4.26,2.92-5.77,3.9,54,2,92.8,20.57,124.44,58.55a34.11,34.11,0,0,0,2-4.33C355.51,128,317.66,109.44,266,106.49Z"/><path class="cls-13" d="M118.38,173.91c.42-2.27,1.07-5.34,2.06-9a82.93,82.93,0,0,0-2.94,8.14C117.78,173.35,118.08,173.63,118.38,173.91Z"/><path class="cls-14" d="M216.73,54.46c38.7-5.65,70.86-1.8,98.32,12.63q1.62-1.53,3.27-3.12c-28.45-15.35-61.85-19.5-102.2-13.62-50.92,7.43-77.28,41.78-90.43,69.28a184.9,184.9,0,0,0-14.27,43.55,32.25,32.25,0,0,0,3.16,6.21,182.82,182.82,0,0,1,14.94-48.09C148,82.69,177.35,60.2,216.73,54.46Z"/><path class="cls-14" d="M117.5,173.06a82.93,82.93,0,0,1,2.94-8.14,118.35,118.35,0,0,1,12.73-29.8c12.3-20.31,37-45.68,84.63-51.17,28.32-3.26,53-2.4,74.87,3,1.31-1.08,2.63-2.18,4-3.34-23-6.1-49.17-7.21-79.32-3.74-49.28,5.68-74.84,32-87.61,53.11A121.69,121.69,0,0,0,115,170,24.28,24.28,0,0,0,117.5,173.06Z"/><path class="cls-14" d="M121,176a84.36,84.36,0,0,1,13.83-27.72c22-29.18,57.46-38.18,83.37-40.59a304.29,304.29,0,0,1,48-1c1.44-.94,3.28-2.18,5.51-3.74a299.62,299.62,0,0,0-53.92.59c-26.82,2.5-63.6,11.89-86.46,42.42a90.68,90.68,0,0,0-10.93,19c-1,3.65-1.64,6.72-2.06,9A20.65,20.65,0,0,0,121,176Z"/><polygon class="cls-4" points="133.38 192.89 157.31 182.51 154.75 198.89 135.55 202.7 133.38 192.89"/><polygon class="cls-4" points="367.06 192.89 343.12 182.51 345.65 197.59 364.88 202.7 367.06 192.89"/><path class="cls-4" d="M232.24,192.66a37.46,37.46,0,0,1,.41,10.36c6.6-1,21.88-2.54,35.84.83a22.69,22.69,0,0,1,1.81-9.45C263.31,191.23,250.17,187.58,232.24,192.66Z"/><path class="cls-4" d="M236.74,198.51v-2.34c-.06-.68-1.71-16.6-28.12-18.4-23.74-1.62-50.53,1.14-51.66,1.26l-1.84.19-.88,1.63c-.23.43-1.68,3.38-2.47,10.18l-.27,0,.15,1.09q-.09.82-.15,1.71l.35-.2,3.87,28.25c1.32,9.63,10.23,16.9,20.73,16.9H210c9.49,0,17.8-5.93,20.21-14.42l7.29-25.69Zm-14.16,24A12.86,12.86,0,0,1,210,231.48H176.44c-6.52,0-12.05-4.51-12.87-10.49l-4.23-30.85-.41.05a34.25,34.25,0,0,1,.91-4.41c6.89-.62,29-2.35,48.3-1s21.43,10.87,21.6,11.92v.63Z"/><path class="cls-4" d="M263.09,198.7l7.3,25.69c2.4,8.49,10.71,14.42,20.2,14.42h33.59c10.5,0,19.41-7.27,20.73-16.9l3.87-28.25.35.2q-.06-.88-.15-1.71l.15-1.09-.27,0c-.79-6.8-2.24-9.75-2.47-10.18l-.88-1.63-1.84-.19c-1.13-.12-27.92-2.88-51.66-1.26-26.41,1.8-28.06,17.72-28.12,18.4v2.34Zm7.79-1.4v-.63c.17-1,2.28-10.6,21.6-11.92s41.41.41,48.3,1a34.25,34.25,0,0,1,.91,4.41l-.41-.05L337.05,221c-.81,6-6.35,10.49-12.87,10.49H290.59A12.86,12.86,0,0,1,278,222.53Z"/><path class="cls-15" d="M222.58,222.53A12.86,12.86,0,0,1,210,231.48H176.44c-6.52,0-12.05-4.51-12.87-10.49l-4.23-30.85-.41.05a34.25,34.25,0,0,1,.91-4.41c6.89-.62,29-2.35,48.3-1s21.43,10.87,21.6,11.92v.63Z"/><path class="cls-15" d="M270.88,197.3v-.63c.17-1,2.28-10.6,21.6-11.92s41.41.41,48.3,1a34.25,34.25,0,0,1,.91,4.41l-.41-.05L337.05,221c-.81,6-6.35,10.49-12.87,10.49H290.59A12.86,12.86,0,0,1,278,222.53Z"/><polygon class="cls-14" points="250.04 396.5 205.95 435.98 175.27 374.89 191.03 358.35 250.04 396.5"/><polygon class="cls-14" points="250.04 396.5 290.38 432.48 324.8 374.89 309.04 358.35 250.04 396.5"/></svg>