<svg id="Layer_1" data-name="Layer 1" xmlns="http://www.w3.org/2000/svg" viewBox="0 0 500 500"><defs><style>.cls-1{fill:#eff6f9;}.cls-2{fill:#e5a193;}.cls-3{fill:#cc867a;}.cls-4{fill:#2b3990;}.cls-5{fill:#3649a8;}.cls-6{fill:#272223;}.cls-7{fill:#ea9081;}.cls-8{fill:#231f20;}.cls-9{fill:#ce7d6f;}.cls-10{fill:#c43131;}.cls-11{fill:#e53939;}.cls-12{fill:none;}.cls-13{fill:#ff684f;}.cls-14{fill:#ff7664;}.cls-15{fill:#d84456;}.cls-16{fill:#fbb040;}</style></defs><title>Tawk_Avatar-Male</title><path class="cls-1" d="M250,477.11a177,177,0,1,1,177-177,177,177,0,0,1-177,177"/><path class="cls-2" d="M294.86,355V323L250,355l-44.86-32v32c0,13.86-14.11,13.86-14.11,13.86l59,58.72,59-58.72S294.86,368.82,294.86,355Z"/><path class="cls-3" d="M294.86,323,250,355l-44.86-32v32c0,.45,0,.85-.08,1.27,24.59,11,44.94,12,44.94,12s20.35-.94,44.94-12c0-.42-.08-.82-.08-1.27Z"/><path class="cls-4" d="M250,477.11a176.7,176.7,0,0,0,142.66-72.25L316,371.6h-7.14l-19.05,21.52C279.42,404.89,264.39,418,250,418.23c-14.86.19-29.08-13-39.84-25.11l-19-21.52H184L106.72,404A176.71,176.71,0,0,0,250,477.11"/><path class="cls-5" d="M305.44,364.53l-52.65,49.56a4.06,4.06,0,0,1-5.58,0l-52.65-49.56L184,371.6l56.28,56.71a13.74,13.74,0,0,0,19.5,0L316,371.6Z"/><ellipse class="cls-3" cx="136.59" cy="211.32" rx="30.72" ry="35.62"/><ellipse class="cls-3" cx="363.41" cy="211.32" rx="30.72" ry="35.62"/><path class="cls-2" d="M173.27,101.52a36.68,36.68,0,0,0-36.68,36.68V252.56c0,17.7,50.49,104.66,110.6,109.41,44.48,3.5,116.22-81,116.22-109.41V138.2c0-37.29.29-36.68-36.68-36.68Z"/><path class="cls-6" d="M218.68,216.18a4,4,0,0,1-4-3.35c-.69-4-5.15-11.61-17.06-11.61-15.06,0-18.14,10.35-18.26,10.8a4,4,0,0,1-7.8-2.05c1.5-5.82,8.87-16.81,26.06-16.81,15,0,23.49,9.48,25,18.3a4,4,0,0,1-3.28,4.66A4.23,4.23,0,0,1,218.68,216.18Z"/><path class="cls-6" d="M281.32,216.18a4,4,0,0,1-4-4.72c1.52-8.82,10-18.3,25-18.3,17.19,0,24.56,11,26.06,16.81a4,4,0,0,1-7.8,2c-.15-.52-3.26-10.79-18.26-10.79-11.91,0-16.37,7.6-17.06,11.61A4,4,0,0,1,281.32,216.18Z"/><path class="cls-7" d="M278.73,244.88c0-3.14-4.39-6-9.24-8.11-6.07-2.64-11.14-7-15.49-12-3.14-3.6-6.15-3.16-9.06.56A40.48,40.48,0,0,1,229.76,237c-4.52,2.1-8.49,4.87-8.49,7.91a11.79,11.79,0,0,0,11.16,11.77,19.26,19.26,0,0,0,35.14,0A11.79,11.79,0,0,0,278.73,244.88Z"/><path class="cls-8" d="M220.64,174.54a3.08,3.08,0,0,1-1-.06c-.29-.08-30-7.16-47.39,3.51-2,1.23-4.45-.24-5.5-3.28s-.28-6.48,1.7-7.7c19.42-11.95,50.43-4.54,51.74-4.21,2.24.55,3.94,3.61,3.79,6.83C223.81,172.34,222.42,174.31,220.64,174.54Z"/><path class="cls-8" d="M278.12,174.54a3.06,3.06,0,0,0,1-.06c.3-.08,30-7.16,47.4,3.51,2,1.23,4.45-.24,5.5-3.28s.28-6.48-1.71-7.7c-19.42-11.95-50.42-4.54-51.74-4.21-2.24.55-3.93,3.61-3.78,6.83C275,172.34,276.35,174.31,278.12,174.54Z"/><path class="cls-9" d="M250.47,300.34a57.46,57.46,0,0,1-31.18-9.47,4,4,0,0,1,4.78-6.49c1.07.78,24.88,17.69,52-.12a4,4,0,1,1,4.42,6.74A54,54,0,0,1,250.47,300.34Z"/><rect class="cls-7" x="234.67" y="195.7" width="28.66" height="52.29" rx="11.31" ry="11.31"/><path class="cls-8" d="M361,94.82q-2.55-4.77-5.5-9.28l-.1.23c-20.35-28.09-57.6-42.18-95.08-44-10.84-5.77-7-11.35-7-11.35-78.5,6.5-107.11,46-107.11,46q-3.26,5-6.1,10.3c-10.19,19.08-10.71,44.33-10.71,67.48,0,16.51,1.8,32.29,7.19,46.94,12.59,3.45,12.15-19.26,15.82-29.9h0v0c1.34-3.88,2.49-7.84,3.48-11.87,5.92-14.85,13.56-12.7,18.92-21,6.5-10-15.64-24.75-15.64-24.75l7.86-3.09c18.46-.75,43.87,1,80.12,24A43,43,0,0,0,251,137a41.81,41.81,0,0,0,3.76-2.38c42.19-26.67,69.63-22.8,88.59-21.34l-.55.4s-22.15,14.75-15.65,24.75c4.55,7,10.72,6.52,16.1,15.23C346,171,341,209.93,363.29,201.22c4.86-13.19,5.8-27.45,5.8-42.34C369.09,138,370.14,112,361,94.82Z"/><path class="cls-10" d="M355.79,176.81C315,157.09,199.6,147,173.09,56.39c0,0,18.43-22.7,107.93-12.7C358.81,52.38,403.53,113.8,386.42,165,382.42,176.91,367.75,182.6,355.79,176.81Z"/><path class="cls-11" d="M142.23,176.81C183,157.09,279.08,107.37,324.93,56.39c0,0-23.15-42-112.66-32C134.49,33.12,94.49,113.8,111.6,165,115.6,176.91,130.27,182.6,142.23,176.81Z"/><path class="cls-8" d="M212.05,277.24v25.92a13.19,13.19,0,0,0,13.19,13.19h4.15S230.53,309,249,309v53.37S180.72,364.92,148.72,292c0,0-12.13-29.1-12.13-45,0,0,10.11-2.23,21.8,21.08C170.39,292,207.39,285.47,212.05,277.24Z"/><path class="cls-8" d="M250,268.06v0c-29.31,9.22-53.95,0-53.95,0C206.72,296.34,250,283.6,250,283.6v0s43.28,12.75,53.95-15.57C304,268.06,279.31,277.27,250,268.06Z"/><path class="cls-8" d="M286,277.24v25.92a13.19,13.19,0,0,1-13.19,13.19h-4.15S267.47,309,249,309v53.37s68.28,2.54,100.28-70.41c0,0,12.13-29.1,12.13-45,0,0-10.11-2.23-21.8,21.08C327.61,292,290.61,285.47,286,277.24Z"/><path class="cls-12" d="M217.49,83.59c-47.67,5.49-72.33,30.86-84.63,51.18a118.15,118.15,0,0,0-12.73,29.79,91,91,0,0,1,10.92-19c22.87-30.53,59.65-39.92,86.47-42.41a298.75,298.75,0,0,1,53.92-.6c5.14-3.6,12.29-8.9,20.92-16C270.5,81.19,245.81,80.33,217.49,83.59Z"/><path class="cls-13" d="M314.37,65.86q-1.72,1.64-3.42,3.21c31,14.74,56.34,42,78.37,83.07.32-2.38.56-5,.67-7.87C368.55,106.12,344,80.35,314.37,65.86Z"/><path class="cls-13" d="M291.72,86.06c-1.43,1.2-2.82,2.34-4.18,3.45,41.36,8.54,73,32,99.65,72.38a50.89,50.89,0,0,0,1.42-5.53C362.4,117.9,331.5,95.05,291.72,86.06Z"/><path class="cls-13" d="M265.65,106.13c-2.33,1.63-4.26,2.92-5.77,3.9,54,2,92.79,20.57,124.44,58.55a34.11,34.11,0,0,0,2-4.33C355.2,127.65,317.35,109.08,265.65,106.13Z"/><path class="cls-12" d="M118.07,173.55c.42-2.27,1.07-5.34,2.06-9a82.93,82.93,0,0,0-2.94,8.14C117.47,173,117.77,173.27,118.07,173.55Z"/><path class="cls-14" d="M216.42,54.1c38.7-5.65,70.86-1.8,98.32,12.63q1.62-1.53,3.27-3.12C289.56,48.26,256.16,44.11,215.81,50c-50.92,7.43-77.28,41.78-90.43,69.29a184.7,184.7,0,0,0-14.27,43.54,32.6,32.6,0,0,0,3.16,6.22,182.76,182.76,0,0,1,14.94-48.1C147.7,82.33,177,59.84,216.42,54.1Z"/><path class="cls-14" d="M117.19,172.7a82.93,82.93,0,0,1,2.94-8.14,118.15,118.15,0,0,1,12.73-29.79c12.3-20.32,37-45.69,84.63-51.18,28.32-3.26,53-2.4,74.87,3,1.31-1.08,2.63-2.18,4-3.34-23-6.1-49.17-7.21-79.32-3.74-49.28,5.68-74.85,32-87.62,53.11a121.88,121.88,0,0,0-14.73,37.09A24.28,24.28,0,0,0,117.19,172.7Z"/><path class="cls-14" d="M120.71,175.6a84.45,84.45,0,0,1,13.83-27.72c22-29.18,57.46-38.18,83.37-40.59a304.29,304.29,0,0,1,48-1c1.43-.94,3.28-2.18,5.51-3.74a298.75,298.75,0,0,0-53.92.6c-26.82,2.49-63.6,11.88-86.47,42.41a91,91,0,0,0-10.92,19c-1,3.65-1.64,6.72-2.06,9A20.65,20.65,0,0,0,120.71,175.6Z"/><circle class="cls-15" cx="249" cy="164.56" r="8.62"/><path class="cls-16" d="M132.45,390.89l34.87-15.64v81.39c-13.07-7.31-25.09-15.16-34.87-24.21Z"/><path class="cls-16" d="M367.55,390.89l-34.87-15.64v81.39c13.07-7.31,25.09-15.16,34.87-24.21Z"/></svg>