<svg id="Layer_1" data-name="Layer 1" xmlns="http://www.w3.org/2000/svg" viewBox="0 0 500 500"><defs><style>.cls-1{fill:#eff6f9;}.cls-2{fill:#e5a193;}.cls-3{fill:#cc867a;}.cls-4{fill:#00a14b;}.cls-5{fill:#8dc63f;}.cls-6{fill:#272223;}.cls-7{fill:#ea9081;}.cls-8{fill:#630;}.cls-9{fill:#ce7d6f;}.cls-10{fill:#603913;}.cls-11{opacity:0.37;}.cls-12{fill:#bbf2ff;}.cls-13{fill:#5c5d64;}.cls-14{fill:#2b3990;}</style></defs><title>Tawk_Avatar-Male</title><path class="cls-1" d="M250,476.25a177,177,0,1,1,177-177,177,177,0,0,1-177,177"/><path class="cls-2" d="M294.86,354.1v-32L250,354.1l-44.86-32v32C205.14,368,191,368,191,368l59,58.72L309,368S294.86,368,294.86,354.1Z"/><path class="cls-3" d="M294.86,322.09,250,354.1l-44.86-32v32c0,.45,0,.85-.08,1.27,24.59,11,44.94,12,44.94,12s20.35-.93,44.94-12c0-.42-.08-.82-.08-1.27Z"/><path class="cls-4" d="M250,476.25A176.7,176.7,0,0,0,392.66,404L316,370.74h-7.14l-19.05,21.52C279.42,404,264.39,417.17,250,417.36c-14.86.2-29.08-12.95-39.84-25.1l-19-21.52H184l-77.25,32.41A176.71,176.71,0,0,0,250,476.25"/><path class="cls-5" d="M305.44,363.67l-52.65,49.56a4.08,4.08,0,0,1-5.58,0l-52.65-49.56L184,370.74l56.28,56.71a13.74,13.74,0,0,0,19.5,0L316,370.74Z"/><ellipse class="cls-3" cx="136.59" cy="210.46" rx="30.72" ry="35.62"/><ellipse class="cls-3" cx="363.41" cy="210.46" rx="30.72" ry="35.62"/><path class="cls-2" d="M173.27,100.66a36.68,36.68,0,0,0-36.68,36.67V251.7c0,17.7,50.49,104.66,110.6,109.4,44.48,3.51,116.22-81,116.22-109.4V137.33c0-37.28.29-36.67-36.68-36.67Z"/><path class="cls-6" d="M218.68,215.32a4,4,0,0,1-4-3.35c-.69-4-5.15-11.61-17.06-11.61-15.06,0-18.14,10.35-18.26,10.79a4,4,0,0,1-7.8-2.05c1.5-5.81,8.87-16.8,26.06-16.8,15,0,23.49,9.48,25,18.29a4,4,0,0,1-3.28,4.67A4.23,4.23,0,0,1,218.68,215.32Z"/><path class="cls-6" d="M281.32,215.32a4,4,0,0,1-4-4.73c1.52-8.81,10-18.29,25-18.29,17.19,0,24.56,11,26.06,16.8a4,4,0,0,1-7.8,2.05c-.15-.52-3.26-10.79-18.26-10.79-11.91,0-16.37,7.59-17.06,11.61A4.05,4.05,0,0,1,281.32,215.32Z"/><path class="cls-7" d="M278.73,244c0-3.14-4.39-6-9.24-8.11-6.07-2.64-11.14-7-15.49-12-3.14-3.6-6.15-3.16-9.06.56a40.58,40.58,0,0,1-15.18,11.62c-4.52,2.09-8.49,4.87-8.49,7.91a11.79,11.79,0,0,0,11.16,11.77,19.26,19.26,0,0,0,35.14,0A11.79,11.79,0,0,0,278.73,244Z"/><path class="cls-8" d="M220.64,173.68a2.86,2.86,0,0,1-1-.07c-.29-.07-30-7.15-47.39,3.52-2,1.23-4.45-.24-5.5-3.28s-.28-6.48,1.7-7.71c19.42-11.94,50.43-4.53,51.74-4.21,2.24.55,3.94,3.61,3.79,6.84C223.81,171.48,222.42,173.45,220.64,173.68Z"/><path class="cls-8" d="M278.12,173.68a2.83,2.83,0,0,0,1-.07c.3-.07,30-7.15,47.4,3.52,2,1.23,4.45-.24,5.5-3.28s.28-6.48-1.71-7.71c-19.42-11.94-50.42-4.53-51.74-4.21-2.24.55-3.93,3.61-3.78,6.84C275,171.48,276.35,173.45,278.12,173.68Z"/><path class="cls-9" d="M250.47,299.48A57.56,57.56,0,0,1,219.29,290a4,4,0,0,1,4.78-6.49c1.07.78,24.88,17.69,52-.12a4,4,0,1,1,4.42,6.74A54,54,0,0,1,250.47,299.48Z"/><rect class="cls-7" x="234.67" y="194.84" width="28.66" height="52.29" rx="11.31" ry="11.31"/><path class="cls-10" d="M212.05,276.38V302.3a13.18,13.18,0,0,0,13.19,13.18h4.15s1.14-7.33,19.61-7.33v53.37s-68.28,2.54-100.28-70.41c0,0-13.24-23.24-12.13-45,0,0,10.11-2.23,21.8,21.08C170.39,291.11,207.39,284.61,212.05,276.38Z"/><path class="cls-10" d="M250,267.19v0c-29.31,9.22-53.95,0-53.95,0C206.72,295.48,250,282.74,250,282.74v0s43.28,12.75,53.95-15.58C304,267.19,279.31,276.41,250,267.19Z"/><path class="cls-10" d="M286,276.38V302.3a13.18,13.18,0,0,1-13.19,13.18h-4.15s-1.14-7.33-19.61-7.33v53.37s71.73,2.54,103.73-70.41c0,0,12-29.08,10.68-45,0,0-12.11-2.23-23.8,21.08C327.61,291.11,290.61,284.61,286,276.38Z"/><g class="cls-11"><path class="cls-12" d="M163.29,183.47s-2.64,5.26-2.39,20.14c.12,6.86.64,14.2,1.16,20.12a12.76,12.76,0,0,0,13,11.63l46.73-1.05a12.79,12.79,0,0,0,12.49-12.78v-24.1s-1.08-13.59-23.25-15.2S163.29,183.47,163.29,183.47Z"/></g><g class="cls-11"><path class="cls-12" d="M335.19,183.47s2.64,5.26,2.39,20.14c-.11,6.86-.63,14.2-1.16,20.12a12.76,12.76,0,0,1-13,11.63l-46.72-1.05a12.79,12.79,0,0,1-12.5-12.78v-24.1s1.08-13.59,23.26-15.2S335.19,183.47,335.19,183.47Z"/></g><path class="cls-13" d="M234.75,205.63a2,2,0,0,1-2-2c0-.51-.14-12.39-9.56-16.23-10.06-4.1-25.81-4.71-34.3-4.71-10.06,0-22.45.92-25.87,2.93l-.53.31-.26.56a2,2,0,0,1-1.82,1.15,1.81,1.81,0,0,1-.4,0,2,2,0,0,1-1.58-2.38A4.79,4.79,0,0,1,161.2,182c4-2.16,13.69-3.45,25.82-3.45,15.33,0,30.13,2,37.7,5.08,12,4.9,12.07,19.37,12.07,20a2,2,0,0,1-2,2Z"/><path class="cls-13" d="M263.23,205.63a2,2,0,0,1-2-2c0-.61.05-15.08,12.07-20,7.57-3.09,22.37-5.08,37.7-5.08,12.13,0,21.78,1.29,25.82,3.46a4.75,4.75,0,0,1,2.76,3.18,2,2,0,0,1-1.58,2.37,2.58,2.58,0,0,1-.4,0,2,2,0,0,1-1.82-1.15l-.26-.55-.53-.32c-3.42-2-15.81-2.93-25.87-2.93-8.49,0-24.24.61-34.3,4.71-9.56,3.9-9.56,16.11-9.56,16.23a2,2,0,0,1-.58,1.43,2,2,0,0,1-1.41.6Z"/><path class="cls-13" d="M235.53,200a2,2,0,0,1-2-2,1.93,1.93,0,0,1,1.88-2l27.84.26a2,2,0,0,1,0,4Z"/><path class="cls-14" d="M132.45,390l34.87-15.64v81.39c-13.07-7.31-25.09-15.17-34.87-24.22Z"/><path class="cls-14" d="M367.55,390l-34.87-15.64v81.39c13.07-7.31,25.09-15.17,34.87-24.22Z"/><path class="cls-10" d="M383,121.65a6.35,6.35,0,0,0-3.74-2.32,17.07,17.07,0,0,1-5.51-2.18l.2-.1a7.48,7.48,0,0,0,3.76-4.41,8.2,8.2,0,0,0-2.73-8.88,27,27,0,0,1-4-3.94c5.37-2.09,8.83-7.53,10.89-12.14a6.07,6.07,0,0,0-.08-5.14,5.8,5.8,0,0,0-4-3.14c-26.3-5.59-51.53-36.06-51.53-36.06L329,42.2a2.81,2.81,0,0,0-.7-5.38c-7.44-1-14.34-2.42-14.34-2.42C194.28.85,153.47,57.32,153.47,57.32a10.09,10.09,0,0,1-2.25-4.17,3.6,3.6,0,0,0-4.09-2.38,3.53,3.53,0,0,0-2.88,2.7c-1.85,7.57-3.08,15.59-3.08,15.59-17.77,9.3-23.65,33.18-25.54,45.72a4,4,0,0,0,1.71,3.89,4,4,0,0,0,4.26.16c-7.86,38.61.69,62,7.62,73.67a5.86,5.86,0,0,0,5.65,2.87,6,6,0,0,0,1.72-.42v56.79c3,15.54,11.8,7.12,11.8,7.12v-90l15.41-41.26a16.92,16.92,0,0,1,18.6-4.11c47.86,18.63,106,6.05,130.69-.91A16.73,16.73,0,0,1,332,130.06l19.66,46.05v82.75s8.84,8.42,11.8-7.12V195.53a5.78,5.78,0,0,0,5.49-2.8c13.28-22.14,15.29-53.5,15.51-66.88A6.61,6.61,0,0,0,383,121.65Z"/></svg>