<svg id="Layer_1" data-name="Layer 1" xmlns="http://www.w3.org/2000/svg" viewBox="0 0 500 500"><defs><style>.cls-1{fill:#eff6f9;}.cls-2{fill:#f4d6b0;}.cls-3{fill:#e0bb94;}.cls-4{fill:#00a14b;}.cls-5{fill:#ffde17;}.cls-6{fill:#facfaf;}.cls-7{fill:#fae0bb;}.cls-8{fill:#5c5d64;}.cls-9{fill:#ff684f;}.cls-10{fill:#dc9b80;}.cls-11{fill:#414042;}</style></defs><title>Tawk_Avatar-Male</title><path class="cls-1" d="M250,473a177,177,0,1,1,177-177A177,177,0,0,1,250,473"/><path class="cls-2" d="M294.86,350.87v-32l-44.86,32-44.86-32v32c0,13.86-14.11,13.86-14.11,13.86l59,58.72,59-58.72S294.86,364.73,294.86,350.87Z"/><path class="cls-3" d="M294.86,318.86l-44.86,32-44.86-32v32c0,.45,0,.84-.08,1.26,24.59,11,44.94,12,44.94,12s20.35-.94,44.94-12c0-.42-.08-.81-.08-1.26Z"/><path class="cls-4" d="M250,473a176.68,176.68,0,0,0,142.66-72.25L316,367.5h-7.14L289.84,389a53.21,53.21,0,0,1-79.68,0l-19-21.53H184l-77.25,32.41A176.69,176.69,0,0,0,250,473"/><path class="cls-5" d="M305.44,360.44l-19,17.86a53.2,53.2,0,0,1-72.92,0l-19-17.86L184,367.5l21.41,21.58a62.87,62.87,0,0,0,89.24,0L316,367.5Z"/><ellipse class="cls-6" cx="137.59" cy="207.88" rx="30.72" ry="35.62"/><ellipse class="cls-6" cx="364.41" cy="207.88" rx="30.72" ry="35.62"/><path class="cls-7" d="M174.27,97.41a36.68,36.68,0,0,0-36.68,36.68V248.45c0,17.7,51.53,105.75,111.64,110.49,44.48,3.51,115.18-82.12,115.18-110.49V134.09c0-37.29.29-36.68-36.68-36.68Z"/><path class="cls-8" d="M219.68,212.73a4,4,0,0,1-4-3.34c-.69-4-5.15-11.61-17.06-11.61-15.06,0-18.14,10.35-18.26,10.79a4,4,0,0,1-7.8-2c1.5-5.81,8.87-16.8,26.06-16.8,15,0,23.49,9.48,25,18.29a4,4,0,0,1-3.28,4.66A3.37,3.37,0,0,1,219.68,212.73Z"/><path class="cls-8" d="M282.32,212.73a3.22,3.22,0,0,1-.69-.06,4,4,0,0,1-3.29-4.66c1.52-8.81,10-18.29,25-18.29,17.19,0,24.56,11,26.06,16.8a4,4,0,0,1-7.8,2c-.15-.52-3.26-10.79-18.26-10.79-11.91,0-16.37,7.59-17.06,11.61A4,4,0,0,1,282.32,212.73Z"/><path class="cls-6" d="M279.73,241.44c0-3.14-4.39-6-9.24-8.11-6.07-2.64-11.14-7-15.49-12-3.14-3.6-6.15-3.17-9.06.56a40.58,40.58,0,0,1-15.18,11.62c-4.52,2.09-8.49,4.87-8.49,7.91a11.79,11.79,0,0,0,11.16,11.77,19.26,19.26,0,0,0,35.14,0A11.79,11.79,0,0,0,279.73,241.44Z"/><path class="cls-9" d="M221.64,171.1a2.86,2.86,0,0,1-1-.07c-.29-.07-30-7.15-47.39,3.52-2,1.23-4.45-.24-5.5-3.28s-.28-6.48,1.7-7.71c19.42-11.94,50.43-4.53,51.74-4.21,2.24.55,3.94,3.61,3.79,6.84C224.81,168.9,223.42,170.87,221.64,171.1Z"/><path class="cls-9" d="M279.12,171.1a2.83,2.83,0,0,0,1-.07c.3-.07,30-7.15,47.4,3.52,2,1.23,4.45-.24,5.5-3.28s.28-6.48-1.71-7.71c-19.42-11.94-50.42-4.53-51.74-4.21-2.24.55-3.93,3.61-3.78,6.84C276,168.9,277.35,170.87,279.12,171.1Z"/><path class="cls-10" d="M251.47,296.9a57.56,57.56,0,0,1-31.18-9.47,4,4,0,0,1,4.78-6.49c1.07.78,24.88,17.69,52-.12a4,4,0,1,1,4.42,6.74A54,54,0,0,1,251.47,296.9Z"/><rect class="cls-6" x="235.67" y="192.26" width="28.66" height="52.29" rx="11.31" ry="11.31"/><path class="cls-9" d="M362,91.38q-2.55-4.77-5.5-9.28c0,.07-.07.15-.1.23-20.35-28.09-57.6-42.18-95.08-44-10.84-5.77-7-11.34-7-11.34-78.5,6.5-107.11,46-107.11,46q-3.26,5-6.1,10.3c-10.19,19.07-10.71,44.33-10.71,67.47,0,16.52,1.8,32.3,7.19,47,12.59,3.44,12.15-19.27,15.82-29.9h0v0c1.34-3.88,2.49-7.84,3.48-11.87,5.92-14.86,13.56-12.7,18.92-21,6.5-10-15.64-24.76-15.64-24.76l7.86-3.08c18.46-.75,43.87,1,80.12,24,1.23.86,2.49,1.68,3.81,2.42a41.91,41.91,0,0,0,3.76-2.39c42.19-26.66,69.63-22.8,88.59-21.33l-.55.39S321.62,125,328.12,135c4.55,7,10.72,6.52,16.1,15.23,2.76,17.33-2.27,56.27,20.07,47.56,4.86-13.2,5.8-27.46,5.8-42.34C370.09,134.59,371.14,108.57,362,91.38Z"/><path class="cls-11" d="M169.66,229.37c-8.84,0-16.31-6.43-17.1-14.79-.73-7.66-1.15-14.52-1.25-20.39-.28-15.35,2.64-21.24,3-21.86l.88-1.63,1.84-.19c1.13-.12,27.92-2.88,51.66-1.26,26.41,1.8,28.06,17.72,28.12,18.4V212c0,8.78-7.53,16.08-16.78,16.28l-50,1.05Zm-9.77-52.11c-.7,2.43-1.75,7.67-1.59,16.8.11,5.7.52,12.38,1.23,19.86.46,4.85,5,8.56,10.36,8.45l50-1.05c5.48-.12,9.93-4.28,9.93-9.28V188.15c-.17-1.05-2.28-10.6-21.6-11.92S166.78,176.64,159.89,177.26Z"/><path class="cls-11" d="M330.87,229.37h-.38l-50-1.05c-9.26-.2-16.79-7.5-16.79-16.28V187.65c.06-.68,1.71-16.6,28.12-18.4,23.75-1.62,50.53,1.14,51.66,1.26l1.84.19.88,1.63c.33.62,3.25,6.51,3,21.85-.11,5.88-.53,12.74-1.26,20.4C347.18,222.94,339.71,229.37,330.87,229.37Zm-60.13-41.19V212c0,5,4.46,9.16,9.93,9.28l50,1.05c5.4.09,9.9-3.6,10.36-8.45.71-7.48,1.12-14.16,1.23-19.86.16-9.13-.89-14.37-1.59-16.8-6.89-.62-29-2.34-48.3-1C273.19,177.54,271,186.93,270.74,188.18Z"/><polygon class="cls-11" points="133.43 184.37 157.37 173.99 154.8 190.38 135.6 194.18 133.43 184.37"/><polygon class="cls-11" points="367.11 184.37 343.17 173.99 345.7 189.06 364.94 194.18 367.11 184.37"/><path class="cls-11" d="M232.29,184.14a37.46,37.46,0,0,1,.41,10.36c6.6-1,21.88-2.54,35.84.83a22.69,22.69,0,0,1,1.81-9.45C263.36,182.71,250.22,179.06,232.29,184.14Z"/><path class="cls-5" d="M317.46,437.37a14.56,14.56,0,0,0,.65-4.82v-6.66H255.89v10.39a3.62,3.62,0,0,0,3.55,3.55H302.5a35.48,35.48,0,0,0-4.86,7.28l-11.22,22.14a174.63,174.63,0,0,0,18.14-4.83l11.63-24A28.25,28.25,0,0,0,317.46,437.37Z"/><path class="cls-5" d="M198.12,454.7a32.75,32.75,0,0,1,3.76-10.21,13.86,13.86,0,0,1,5.45-5.32,14.28,14.28,0,0,1,6.38-1.52,14.63,14.63,0,0,1,6.47,1.52,14,14,0,0,1,5.5,5.32,32.43,32.43,0,0,1,3.83,10.21,76.31,76.31,0,0,1,1.43,16.18c0,.37,0,.73,0,1.1q7.83.84,15.85,1c0-.7,0-1.39,0-2.09a73.62,73.62,0,0,0-2.52-20.47,42.06,42.06,0,0,0-7-14.32,28.27,28.27,0,0,0-10.52-8.43,31.23,31.23,0,0,0-13.09-2.77,30.84,30.84,0,0,0-13,2.77,28.12,28.12,0,0,0-10.42,8.43,41.82,41.82,0,0,0-6.91,14.32,61.09,61.09,0,0,0-1.79,8.86q7.5,3.15,15.32,5.62A64.71,64.71,0,0,1,198.12,454.7Z"/></svg>