<svg id="Layer_1" data-name="Layer 1" xmlns="http://www.w3.org/2000/svg" viewBox="0 0 500 500"><defs><style>.cls-1{fill:#eff6f9;}.cls-2{fill:#ffe1cc;}.cls-3{fill:#efd1bd;}.cls-4{fill:#ec5e78;}.cls-5{fill:#cc3656;}.cls-6{fill:#ffc7b6;}.cls-7{fill:#353d42;}.cls-8{fill:#dc9b80;}.cls-9{fill:#5c5d64;}.cls-10{fill:#272223;}.cls-11{fill:#494646;}</style></defs><title>Tawk_Avatar-Male</title><path class="cls-1" d="M250,475a177,177,0,1,1,177-177A177,177,0,0,1,250,475"/><path class="cls-2" d="M294.86,352.89v-32l-44.86,32-44.86-32v32c0,13.86-14.11,13.86-14.11,13.86l59,58.72,59-58.72S294.86,366.75,294.86,352.89Z"/><path class="cls-3" d="M294.86,320.88l-44.86,32-44.86-32v32c0,.45,0,.84-.08,1.26,24.59,11,44.94,12,44.94,12s20.35-.94,44.94-12c0-.42-.08-.81-.08-1.26Z"/><path class="cls-4" d="M250,475a176.7,176.7,0,0,0,142.66-72.25L316,369.52h-7.14l-19.05,21.53a53.21,53.21,0,0,1-79.68,0l-19-21.53H184l-77.25,32.41A176.69,176.69,0,0,0,250,475"/><path class="cls-5" d="M305.44,362.46l-19,17.86a53.2,53.2,0,0,1-72.92,0l-19-17.86L184,369.52l21.41,21.58a62.87,62.87,0,0,0,89.24,0L316,369.52Z"/><ellipse class="cls-6" cx="136.96" cy="209.91" rx="30.72" ry="35.62"/><ellipse class="cls-6" cx="363.77" cy="209.91" rx="30.72" ry="35.62"/><path class="cls-2" d="M173.63,87.57c-20.25,0-36.67,17.16-36.67,38.34V245.46C137,303.77,201,357,248.6,361c36.71,3,115.17-63.21,115.17-115.51V125.91c0-21.18-16.42-38.34-36.67-38.34Z"/><path class="cls-6" d="M279.1,243.47c0-3.14-4.4-6-9.25-8.11-6.06-2.64-11.14-7-15.49-12-3.14-3.6-6.15-3.17-9.05.56a40.74,40.74,0,0,1-15.18,11.62c-4.52,2.09-8.49,4.87-8.49,7.91a11.79,11.79,0,0,0,11.15,11.77,19.27,19.27,0,0,0,35.15,0A11.8,11.8,0,0,0,279.1,243.47Z"/><path class="cls-7" d="M221,173.13a2.84,2.84,0,0,1-1-.07c-.3-.07-30-7.15-47.4,3.52-2,1.23-4.45-.24-5.5-3.28s-.28-6.48,1.71-7.71c19.42-12,50.43-4.53,51.74-4.21,2.24.55,3.94,3.61,3.78,6.84C224.18,170.93,222.78,172.9,221,173.13Z"/><path class="cls-7" d="M278.49,173.13a2.86,2.86,0,0,0,1-.07c.29-.07,30-7.15,47.39,3.52,2,1.23,4.45-.24,5.5-3.28s.29-6.48-1.7-7.71c-19.42-12-50.43-4.53-51.74-4.21-2.24.55-3.94,3.61-3.79,6.84C275.32,170.93,276.71,172.9,278.49,173.13Z"/><path class="cls-8" d="M250.84,298.93a57.57,57.57,0,0,1-31.19-9.47,4,4,0,0,1,4.79-6.49c1.06.78,24.87,17.69,52-.12a4,4,0,1,1,4.43,6.74A54,54,0,0,1,250.84,298.93Z"/><rect class="cls-6" x="235.04" y="194.29" width="28.66" height="52.29" rx="11.31" ry="11.31"/><path class="cls-9" d="M219.87,207.6a3.47,3.47,0,0,1-2.5-1c-.82-.83-19.94-19.74-42-.53a3.5,3.5,0,0,1-4.59-5.28c27.12-23.61,51.37.67,51.61.92a3.49,3.49,0,0,1-2.5,5.94Z"/><path class="cls-9" d="M325.68,207.6a3.47,3.47,0,0,1-2.5-1c-.82-.83-19.95-19.74-42-.53a3.5,3.5,0,1,1-4.59-5.28c27.12-23.61,51.37.67,51.61.92a3.49,3.49,0,0,1-2.5,5.94Z"/><path class="cls-10" d="M180.61,95.89s-6.17,12.41-22.17,21.74-11.34,33.9-10.67,50.28S137,203.63,137,203.63s-18.59-108,25.11-118.31C162.07,85.32,186.11,80.16,180.61,95.89Z"/><path class="cls-10" d="M338.76,85.32l-.4-.08c8.92-27.58-28.59-43.61-28.59-43.61-86-38.66-157.35.81-157.36,10,0,2.68,5.84,5.7,5,8-11,31.34,1.75,31.92,1.75,31.92,99.64,23.34,143.84,17.18,162.09,10.66l11.28-9.47-4.62,6.68a5.87,5.87,0,0,0,.61,7.43,64.57,64.57,0,0,0,13.84,10.78c16,9.34,11.34,33.9,10.67,50.28s10.81,35.72,10.81,35.72S382.46,95.66,338.76,85.32Z"/><path class="cls-11" d="M185.09,88.13l-2-.33c0-.31,5.08-31.92-7.68-43.08l1.32-1.51c5.75,5,8.89,14.15,9.34,27.1A102.68,102.68,0,0,1,185.09,88.13Z"/><path class="cls-11" d="M200.9,91.39,199,90.88c.08-.33,8.48-33.09,0-53.7l1.85-.76c4.56,11.12,4.32,25.49,3.32,35.58A141.62,141.62,0,0,1,200.9,91.39Z"/><path class="cls-11" d="M219.57,95.54l-1.94-.48c.12-.47,11.44-46.7,1.83-59.84L221.08,34C231.24,47.93,220.05,93.6,219.57,95.54Z"/><path class="cls-11" d="M247.76,97.75l-2-.24c0-.13,1.62-13.72,2.09-28.17.78-23.87-2-31.65-4.45-34l1.37-1.45C254.21,42.82,248,95.51,247.76,97.75Z"/><path class="cls-11" d="M272.06,96.91l-1.92-.56c.12-.39,11.45-39.61,3.25-54.4l1.75-1C283.75,56.5,272.54,95.27,272.06,96.91Z"/><path class="cls-11" d="M289.79,99.82l-1.71-1c.16-.25,15.59-25.64,11.54-49.81l2-.33C305.77,73.55,290,99.56,289.79,99.82Z"/><path class="cls-11" d="M311.38,99.64,309.49,99c.1-.25,9.19-25.95,8.78-39l2-.07C320.69,73.33,311.76,98.57,311.38,99.64Z"/></svg>