<svg id="Layer_1" data-name="Layer 1" xmlns="http://www.w3.org/2000/svg" viewBox="0 0 500 500"><defs><style>.cls-1{fill:#eff6f9;}.cls-2{fill:#ffe1cc;}.cls-3{fill:#efd1bd;}.cls-4{fill:#414042;}.cls-5{fill:#58595b;}.cls-6{fill:#ffc7b6;}.cls-7{fill:#5c5d64;}.cls-8{fill:#272223;}.cls-9{fill:#dc9b80;}.cls-10{opacity:0.5;}.cls-11{fill:#fff;}.cls-12{fill:#bcbec0;}.cls-13{fill:#e6e7e8;}</style></defs><title>Tawk_Avatar-Male</title><path class="cls-1" d="M250,466.92A177,177,0,1,1,427,290a177,177,0,0,1-177,177"/><path class="cls-2" d="M294.86,344.77v-32l-44.86,32-44.86-32v32c0,13.86-14.11,13.86-14.11,13.86l59,58.72,59-58.72S294.86,358.63,294.86,344.77Z"/><path class="cls-3" d="M294.86,313.64l-44.86,32-44.86-32v32c0,.45,0,.85-.08,1.27,24.59,11,44.94,12,44.94,12s20.35-.94,44.94-12c0-.42-.08-.82-.08-1.27Z"/><path class="cls-4" d="M250,466.92a176.7,176.7,0,0,0,142.66-72.25L316,361.41h-7.14l-19.05,21.52a53.21,53.21,0,0,1-79.68,0l-19-21.52H184l-77.25,32.4A176.69,176.69,0,0,0,250,466.92"/><polygon class="cls-5" points="250.04 466.92 150.25 408.4 166.24 389.55 131.34 383.49 175.27 365.06 250.04 386.66 250.04 466.92"/><ellipse class="cls-6" cx="136.59" cy="202.84" rx="30.72" ry="35.62"/><ellipse class="cls-6" cx="363.41" cy="202.84" rx="30.72" ry="35.62"/><path class="cls-2" d="M171.8,91a36.68,36.68,0,0,0-36.68,36.68V242.09c0,62.63,51.53,105.74,111.64,110.48,44.48,3.51,115.18-47.85,115.18-110.48V127.72A36.68,36.68,0,0,0,325.26,91Z"/><path class="cls-7" d="M219,203.77a4.07,4.07,0,0,1-2.5-.81c-.82-.65-19.94-15.31-42-.41a4.25,4.25,0,0,1-4.94-.27,2.31,2.31,0,0,1,.34-3.82c27.12-18.31,51.37.51,51.62.7a2.31,2.31,0,0,1-.07,3.84A4.09,4.09,0,0,1,219,203.77Z"/><path class="cls-7" d="M324.84,203.77a4,4,0,0,1-2.5-.81c-.82-.65-19.94-15.31-42-.41a4.24,4.24,0,0,1-4.93-.27,2.31,2.31,0,0,1,.34-3.82c27.12-18.31,51.37.51,51.62.7a2.31,2.31,0,0,1-.07,3.84A4.09,4.09,0,0,1,324.84,203.77Z"/><path class="cls-6" d="M278.73,223.65c0-3.15-4.39-6-9.24-8.11-6.07-2.65-11.14-7-15.49-12-3.14-3.6-6.15-3.17-9.06.56a40.68,40.68,0,0,1-15.18,11.62c-4.52,2.09-8.49,4.86-8.49,7.91a11.79,11.79,0,0,0,11.16,11.77,19.26,19.26,0,0,0,35.14,0A11.79,11.79,0,0,0,278.73,223.65Z"/><path class="cls-8" d="M220.64,166.05a2.64,2.64,0,0,1-1-.06c-.29-.07-30-7.16-47.39,3.52-2,1.23-4.45-.25-5.5-3.28s-.28-6.49,1.7-7.71c19.42-12,50.43-4.53,51.74-4.21,2.24.55,3.94,3.61,3.79,6.83C223.81,163.86,222.42,165.82,220.64,166.05Z"/><path class="cls-8" d="M278.12,166.05a2.62,2.62,0,0,0,1-.06c.3-.07,30-7.16,47.4,3.52,2,1.23,4.45-.25,5.5-3.28s.28-6.49-1.71-7.71c-19.42-12-50.42-4.53-51.74-4.21-2.24.55-3.93,3.61-3.78,6.83C275,163.86,276.35,165.82,278.12,166.05Z"/><path class="cls-9" d="M250.47,291.85a57.6,57.6,0,0,1-31.18-9.46,4,4,0,0,1,4.78-6.49c1.07.78,24.88,17.69,52-.13a4,4,0,0,1,4.42,6.75A54.08,54.08,0,0,1,250.47,291.85Z"/><rect class="cls-6" x="234.67" y="174.47" width="28.66" height="52.29" rx="11.31" ry="11.31"/><path class="cls-2" d="M250,33.08a118.55,118.55,0,0,0-99.39,53.83,119.35,119.35,0,0,1,4.61,15.89C180,118.37,213.33,127.9,250,127.9s70-9.53,94.78-25.1a119.35,119.35,0,0,1,4.61-15.89A118.55,118.55,0,0,0,250,33.08Z"/><path class="cls-8" d="M155.73,102.94a118.55,118.55,0,0,0-4.38-16c-1.95,2.88-3.76,5.86-5.45,8.91a118.91,118.91,0,0,0-8,96.74,118.15,118.15,0,0,0,20.16-64.56A119,119,0,0,0,155.73,102.94Z"/><path class="cls-8" d="M354.71,95.9q-2.46-4.62-5.32-9a118.62,118.62,0,0,0-7.28,41,118.14,118.14,0,0,0,19.27,64.84,118.88,118.88,0,0,0-6.67-96.84Z"/><path class="cls-8" d="M292.28,287.44s-5.66,3.1-7,11.22-5.2,11.12-11.26,12.12c-5.87,1-4.48-5.25-24-6.56v-.11l-1,.06-1-.06v.11c-19.54,1.31-18.15,7.52-24,6.56-6.07-1-10.07-4-11.27-12.12-3.63-24.59-7-11.22-7-11.22-7,14.34-3.43,54.59-3.43,54.59,10.91,10.58,47.48,11.87,47.48,11.87s35.07-1.29,46-11.87C295.71,342,299.28,301.78,292.28,287.44Z"/><path class="cls-8" d="M256.16,256.48a29.4,29.4,0,0,1-12.25,0c-47.3-10.08-38,22.28-38,24a1.25,1.25,0,0,0,.44.94,2.16,2.16,0,0,0,3.51-1.56c2.71-23.53,24.85-15.74,33.15-11.94a17,17,0,0,0,7.06,1.56h0a17,17,0,0,0,7-1.56c8.3-3.8,30.44-11.59,33.15,11.94a2.16,2.16,0,0,0,3.51,1.56,1.25,1.25,0,0,0,.44-.94C294.19,278.76,303.46,246.4,256.16,256.48Z"/><g class="cls-10"><path class="cls-11" d="M166.45,168.11a13.63,13.63,0,0,0-12.7,12.55c-.18,2.38-.27,5.18-.21,8.43.12,6.87.68,14.21,1.24,20.13.63,6.7,6.73,11.77,13.92,11.62l50-1.05C226.09,219.63,232,214,232,207v-24.1s-1.16-13.58-24.87-15.2A318.67,318.67,0,0,0,166.45,168.11Z"/></g><g class="cls-10"><path class="cls-11" d="M331.55,168.11a13.63,13.63,0,0,1,12.7,12.55c.18,2.38.27,5.18.21,8.43-.12,6.87-.68,14.21-1.24,20.13-.63,6.7-6.73,11.77-13.92,11.62l-50-1.05C271.91,219.63,266,214,266,207v-24.1s1.16-13.58,24.87-15.2A318.67,318.67,0,0,1,331.55,168.11Z"/></g><path class="cls-8" d="M231.71,189.43c6.84-1,22.21-2.5,36.12,1a4.53,4.53,0,0,0,5.27-2.5l.11-.25a4.49,4.49,0,0,0-2-5.81c-6.4-3.36-21-8.68-41.79-2.29a4.51,4.51,0,0,0-2.94,5.78l.38,1.09A4.49,4.49,0,0,0,231.71,189.43Z"/><polygon class="cls-12" points="247.6 388.1 250.04 466.92 209.69 410.44 247.6 388.1"/><polygon class="cls-13" points="250.04 386.66 197.09 413.39 175.27 365.06 191.03 348.51 250.04 386.66"/><polygon class="cls-5" points="250.04 466.92 349.82 408.4 333.83 389.55 368.73 383.49 324.8 365.06 250.04 386.66 250.04 466.92"/><polygon class="cls-12" points="252.47 388.1 250.04 466.92 290.38 410.44 252.47 388.1"/><polygon class="cls-13" points="250.04 386.66 302.98 413.39 324.8 365.06 309.04 348.51 250.04 386.66"/></svg>