<svg id="Layer_1" data-name="Layer 1" xmlns="http://www.w3.org/2000/svg" viewBox="0 0 500 500"><defs><style>.cls-1{fill:#eff6f9;}.cls-2{fill:#fae0bb;}.cls-3{fill:#e0bb94;}.cls-4{fill:#231f20;}.cls-5{fill:#6d6e71;}.cls-6{fill:#414042;}.cls-7{fill:#facfaf;}.cls-8{fill:#5c5d64;}.cls-9{fill:#353d42;}.cls-10{fill:#dc9b80;}</style></defs><title>Tawk_Avatar-Male</title><path class="cls-1" d="M250,478.68a177,177,0,1,1,177-177,177,177,0,0,1-177,177"/><path class="cls-2" d="M294.86,356.53v-32l-44.86,32-44.86-32v32c0,13.86-14.11,13.86-14.11,13.86l59,58.72,59-58.72S294.86,370.39,294.86,356.53Z"/><path class="cls-3" d="M294.86,324.53l-44.86,32-44.86-32v32c0,.45,0,.85-.08,1.27,24.59,11,44.94,12,44.94,12s20.35-.94,44.94-12c0-.42-.08-.82-.08-1.27Z"/><path class="cls-4" d="M250,478.68a176.7,176.7,0,0,0,142.66-72.25L316,373.17h-7.14L289.84,394.7a53.21,53.21,0,0,1-79.68,0l-19-21.53H184l-77.25,32.41A176.71,176.71,0,0,0,250,478.68"/><path class="cls-5" d="M250,478.68a177.69,177.69,0,0,0,41.14-4.82,44,44,0,0,0-87.3-1.28A177,177,0,0,0,250,478.68Z"/><path class="cls-6" d="M305.44,366.1l-19,17.87a53.2,53.2,0,0,1-72.92,0l-19-17.87L184,373.17l21.41,21.57a62.86,62.86,0,0,0,89.24,0L316,373.17Z"/><ellipse class="cls-7" cx="138.04" cy="213.23" rx="30.72" ry="35.62"/><ellipse class="cls-7" cx="364.85" cy="213.23" rx="30.72" ry="35.62"/><path class="cls-2" d="M174.71,80.24c-20.25,0-36.67,17.83-36.67,39.83V244.28c0,56.41,51.52,114.86,111.64,120,44.48,3.81,115.17-70.4,115.17-120V120.07c0-40.49.29-39.83-36.67-39.83Z"/><path class="cls-8" d="M220.13,218.09a4,4,0,0,1-4-3.35c-.69-4-5.15-11.61-17.06-11.61-15.07,0-18.14,10.35-18.26,10.79a4,4,0,0,1-7.8-2c1.49-5.81,8.86-16.8,26.06-16.8,15,0,23.48,9.48,25,18.3a4,4,0,0,1-4,4.72Z"/><path class="cls-8" d="M282.76,218.09a4.11,4.11,0,0,1-.69-.06,4,4,0,0,1-3.28-4.66c1.52-8.82,10-18.3,25-18.3,17.19,0,24.56,11,26.06,16.8a4,4,0,0,1-7.81,2c-.14-.52-3.25-10.79-18.25-10.79-11.91,0-16.37,7.6-17.07,11.61A4,4,0,0,1,282.76,218.09Z"/><path class="cls-7" d="M280.18,246.79c0-3.14-4.4-6-9.25-8.11-6.06-2.64-11.14-7-15.49-12-3.14-3.6-6.15-3.16-9.05.56a40.56,40.56,0,0,1-15.18,11.62c-4.52,2.1-8.49,4.87-8.49,7.91a11.79,11.79,0,0,0,11.16,11.77,19.26,19.26,0,0,0,35.14,0A11.8,11.8,0,0,0,280.18,246.79Z"/><path class="cls-9" d="M222.09,176.45a2.84,2.84,0,0,1-1-.07c-.3-.07-30-7.15-47.4,3.52-2,1.23-4.45-.24-5.49-3.28s-.29-6.48,1.7-7.71c19.42-11.94,50.43-4.53,51.74-4.2,2.24.55,3.94,3.6,3.79,6.83C225.26,174.25,223.86,176.22,222.09,176.45Z"/><path class="cls-9" d="M279.57,176.45a2.86,2.86,0,0,0,1-.07c.3-.07,30-7.15,47.39,3.52,2,1.23,4.45-.24,5.5-3.28s.29-6.48-1.7-7.71c-19.42-11.94-50.43-4.53-51.74-4.2-2.24.55-3.94,3.6-3.79,6.83C276.4,174.25,277.79,176.22,279.57,176.45Z"/><path class="cls-10" d="M251.92,302.25a57.57,57.57,0,0,1-31.19-9.47,4,4,0,0,1,4.79-6.49c1.06.78,24.87,17.69,52-.12a4,4,0,1,1,4.43,6.74A54,54,0,0,1,251.92,302.25Z"/><rect class="cls-7" x="236.12" y="197.61" width="28.66" height="52.29" rx="11.31" ry="11.31"/><path class="cls-9" d="M91.84,344.91c-4,4.14-6.85,9.76-8.63,16.34q2.55,7.39,5.69,14.66c7,15,16,28,26,41,9,10,18,18,29,27a191.82,191.82,0,0,0,34.25,19.73c2.38-5.2,3.47-12.52,2.75-22.48-.49-6.9,1.09-45.61-2.28-55.85h0s-10.73-40.15-1-55.36l-13.17-14.73c-2.29-40-4.28-96.1-3.6-110.84,1-21.83,9-35.47,12.07-75.14s70.93-26.48,70.93-26.48c23-15.48,32.42,11.73,32.42,11.73,18.43,53.24,69.58,99.75,70.58,109.27S330,317.7,330,317.7L317.6,330.64s8.1,82.27-1.57,115.6c-4.38,6.74-4.5,14.1-.73,20a178.75,178.75,0,0,0,99.11-98.05c-1.91-9.56-4.1-17.56-5.28-22.72-5-21.84,1.71-16.19-5.29-32.19s-11-67-8.26-100-7.74-153-73.74-181.63-91,11.64-91,11.64c-93-13-113,111-116,128s-6.16,52.53-12,68.79-8,21.21-11,39.44S113.84,321.91,91.84,344.91Z"/></svg>