<svg id="Layer_1" data-name="Layer 1" xmlns="http://www.w3.org/2000/svg" viewBox="0 0 500 500"><defs><style>.cls-1{fill:#eff6f9;}.cls-2{fill:#f4d6b0;}.cls-3{fill:#e0bb94;}.cls-4{fill:#a7a9ac;}.cls-5{fill:#231f20;}.cls-6{fill:#6d6e71;}.cls-7{fill:#e6e7e8;}.cls-8{fill:#facfaf;}.cls-9{fill:#fae0bb;}.cls-10{fill:#414042;}.cls-11{fill:#5c5d64;}.cls-12{fill:#dc9b80;}.cls-13{fill:#fff;}.cls-14{fill:#d1d3d4;}</style></defs><title>Tawk_Avatar-Male</title><path class="cls-1" d="M250,464.83a177,177,0,1,1,177-177,177,177,0,0,1-177,177"/><path class="cls-2" d="M294.86,342.69v-32l-44.86,32-44.86-32v32c0,13.86-14.11,13.86-14.11,13.86l59,58.72,59-58.72S294.86,356.55,294.86,342.69Z"/><path class="cls-3" d="M294.86,310.68l-44.86,32-44.86-32v32c0,.45,0,.84-.08,1.26,24.59,11,44.94,12,44.94,12s20.35-.94,44.94-12c0-.42-.08-.81-.08-1.26Z"/><path class="cls-4" d="M106.72,391.73a177.85,177.85,0,0,0,44,42.63V373.28Z"/><path class="cls-4" d="M392.66,392.58l-44-19.09v61.29A177.87,177.87,0,0,0,392.66,392.58Z"/><path class="cls-5" d="M316,359.32h-7.14l-19.05,21.53c-6.56,7.4-34.27,3.73-39.84,3.73-14.63,0-29.25,8.23-39.84-3.73l-19-21.53H184l-33.26,14v61.08a177,177,0,0,0,198,.42V373.49Z"/><path class="cls-6" d="M233.78,443.47l-35.42-55.19,41.75-3.14s7.17,40.5,7,41.33-3,29.85-3,29.85Z"/><polygon class="cls-4" points="240.71 406.57 233.78 443.47 250.98 464.83 250.98 407.5 240.71 406.57"/><path class="cls-6" d="M266.85,443.47l34.67-55.19-40.87-3.14s-7,40.5-6.86,41.33,2.92,29.85,2.92,29.85Z"/><polygon class="cls-4" points="260.05 406.57 266.85 443.47 250 464.83 250 407.5 260.05 406.57"/><path class="cls-7" d="M251,384.58l43.12,16.6,24.86-43.13s-7.59-16.22-24.06-15.36V363S289,379.36,251,384.58Z"/><path class="cls-1" d="M250,464.83a177,177,0,1,1,177-177,177,177,0,0,1-177,177"/><path class="cls-2" d="M294.86,342.69v-32l-44.86,32-44.86-32v32c0,13.86-14.11,13.86-14.11,13.86l59,58.72,59-58.72S294.86,356.55,294.86,342.69Z"/><path class="cls-3" d="M294.86,310.68l-44.86,32-44.86-32v32c0,.45,0,.84-.08,1.26,24.59,11,44.94,12,44.94,12s20.35-.94,44.94-12c0-.42-.08-.81-.08-1.26Z"/><path class="cls-4" d="M106.72,391.73a177.85,177.85,0,0,0,44,42.63V373.28Z"/><path class="cls-4" d="M392.66,392.58l-44-19.09v61.29A177.87,177.87,0,0,0,392.66,392.58Z"/><path class="cls-5" d="M316,359.32h-7.14l-19.05,21.53c-6.56,7.4-34.27,3.73-39.84,3.73-14.63,0-29.25,8.23-39.84-3.73l-19-21.53H184l-33.26,14v61.08a177,177,0,0,0,198,.42V373.49Z"/><path class="cls-6" d="M233.78,443.47l-35.42-55.19,41.75-3.14s7.17,40.5,7,41.33-3,29.85-3,29.85Z"/><path class="cls-6" d="M266.85,443.47l34.67-55.19-40.87-3.14s-7,40.5-6.86,41.33,2.92,29.85,2.92,29.85Z"/><polygon class="cls-4" points="250.98 463.6 266.85 443.47 260.05 406.57 250.49 407.46 240.71 406.57 233.78 443.47 250 463.62 250 464.83 250.49 464.22 250.98 464.83 250.98 463.6"/><path class="cls-7" d="M249.05,384.58l-43.12,16.6-24.86-43.13s7.59-16.22,24.06-15.36V363S211,379.36,249.05,384.58Z"/><ellipse class="cls-8" cx="137.57" cy="208.62" rx="30.72" ry="35.62"/><ellipse class="cls-8" cx="364.39" cy="208.62" rx="30.72" ry="35.62"/><path class="cls-9" d="M173.25,89.33A36.68,36.68,0,0,0,136.57,126V240.38c0,62.63,71.55,110.65,111.64,110.48,38.91-.16,115.18-47.85,115.18-110.48V126a36.68,36.68,0,0,0-36.68-36.68Z"/><path class="cls-10" d="M169.37,230.12c-8.83,0-16.31-6.44-17.1-14.8-.72-7.66-1.15-14.52-1.25-20.39-.28-15.35,2.64-21.24,3-21.86l.87-1.63,1.84-.19c1.13-.12,27.92-2.88,51.67-1.26,26.4,1.8,28.05,17.72,28.11,18.4v24.39c0,8.78-7.53,16.08-16.78,16.28l-50,1.05ZM159.61,178c-.7,2.43-1.76,7.67-1.59,16.8.1,5.7.51,12.38,1.22,19.86.46,4.85,5,8.56,10.37,8.45l50-1.05c5.48-.11,9.93-4.28,9.93-9.28V188.9c-.17-1.06-2.27-10.61-21.6-11.93S166.49,177.38,159.61,178Z"/><path class="cls-10" d="M330.59,230.12h-.39l-50-1.05c-9.26-.2-16.79-7.5-16.79-16.28V188.39c.06-.68,1.72-16.6,28.12-18.4,23.75-1.62,50.54,1.14,51.66,1.26l1.84.19.88,1.63c.33.62,3.25,6.51,3,21.86-.11,5.87-.53,12.73-1.26,20.39C346.89,223.68,339.42,230.12,330.59,230.12Zm-60.14-41.2v23.86c0,5,4.46,9.17,9.94,9.28l50,1.05c5.4.1,9.9-3.6,10.36-8.45.71-7.48,1.13-14.16,1.23-19.86.16-9.13-.89-14.37-1.59-16.8-6.89-.62-29-2.34-48.29-1C272.9,178.28,270.66,187.67,270.45,188.92Z"/><polygon class="cls-10" points="133.14 185.11 157.08 174.73 154.52 191.12 135.31 194.93 133.14 185.11"/><polygon class="cls-10" points="366.82 185.11 342.88 174.73 345.41 189.81 364.65 194.93 366.82 185.11"/><path class="cls-10" d="M232,184.88a37.08,37.08,0,0,1,.41,10.36c6.6-1,21.88-2.54,35.84.83a22.7,22.7,0,0,1,1.82-9.45C263.08,183.45,249.93,179.8,232,184.88Z"/><path class="cls-11" d="M219.66,213.48a4,4,0,0,1-4-3.35c-.69-4-5.15-11.61-17.06-11.61-15.07,0-18.14,10.35-18.26,10.79a4,4,0,0,1-7.8-2.05c1.49-5.81,8.87-16.8,26.06-16.8,15,0,23.49,9.48,25,18.3a4,4,0,0,1-4,4.72Z"/><path class="cls-11" d="M282.3,213.48a4.23,4.23,0,0,1-.7-.06,4,4,0,0,1-3.28-4.66c1.52-8.82,10-18.3,25-18.3,17.19,0,24.56,11,26.06,16.8a4,4,0,0,1-7.8,2.05c-.15-.52-3.26-10.79-18.26-10.79-11.91,0-16.37,7.59-17.07,11.61A4,4,0,0,1,282.3,213.48Z"/><path class="cls-8" d="M279.71,242.18c0-3.14-4.4-6-9.25-8.11a44.42,44.42,0,0,1-15.48-12c-3.14-3.6-6.15-3.16-9.06.56a40.66,40.66,0,0,1-15.18,11.62c-4.52,2.09-8.49,4.87-8.49,7.91A11.79,11.79,0,0,0,233.41,254a19.26,19.26,0,0,0,35.14,0A11.79,11.79,0,0,0,279.71,242.18Z"/><path class="cls-12" d="M251.45,297.64a57.61,57.61,0,0,1-31.19-9.47,4,4,0,0,1,4.79-6.49c1.07.78,24.87,17.69,52-.12a4,4,0,1,1,4.42,6.74A54,54,0,0,1,251.45,297.64Z"/><rect class="cls-8" x="235.65" y="193" width="28.66" height="52.29" rx="11.31" ry="11.31"/><path class="cls-6" d="M372.15,160.46,252.24,150.8l-122.43,9.66V122.13a55.48,55.48,0,0,1,55.48-55.48H316.67a55.48,55.48,0,0,1,55.48,55.48Z"/><path class="cls-6" d="M268.59,48.18c0,7.19-7.32,13-16.35,13s-16.35-5.83-16.35-13c0-4.14,2.43-7.83,6.22-10.21a19,19,0,0,1,10.13-2.8,20,20,0,0,1,6.37,1C264.47,38.17,268.59,42.79,268.59,48.18Z"/><path class="cls-10" d="M348.86,152.73H155.63V95.83a51,51,0,0,1,51-51h91.27a51,51,0,0,1,51,51Z"/><path class="cls-10" d="M371.76,178.83a8.11,8.11,0,0,1-4.76-1.54l-13.83-9.88a53.54,53.54,0,0,0-31.25-10.09h-142a53.54,53.54,0,0,0-31.48,10.26L135,177.27A8.21,8.21,0,0,1,123.23,175a9.13,9.13,0,0,1,2.16-12.32L138.81,153a69.78,69.78,0,0,1,41.07-13.39h142a69.8,69.8,0,0,1,40.77,13.17l13.84,9.88A9.14,9.14,0,0,1,378.75,175,8.32,8.32,0,0,1,371.76,178.83Z"/><path class="cls-13" d="M279.63,78.41V89H258.75v42.91H245.83V89h-21V78.41Z"/><path class="cls-14" d="M252.88,384.58h-5l-5.57,1.22-10.81,1.94L238.75,405a7.55,7.55,0,0,0,6.93,4.66h8.65a7.53,7.53,0,0,0,6.92-4.66l7.29-17.28Z"/><path class="cls-7" d="M249.05,384.58l-43.12,16.6-24.86-43.13s7.59-16.22,24.06-15.36V363S211,379.36,249.05,384.58Z"/><path class="cls-7" d="M251,384.58l43.12,16.6,24.86-43.13s-7.59-16.22-24.06-15.36V363S289,379.36,251,384.58Z"/></svg>