<svg id="Layer_1" data-name="Layer 1" xmlns="http://www.w3.org/2000/svg" viewBox="0 0 500 500"><defs><style>.cls-1{fill:#eff6f9;}.cls-2{fill:#ae8162;}.cls-3{fill:#9b6b4b;}.cls-4{fill:#e6e7e8;}.cls-5{fill:#9b6c4c;}.cls-6{fill:#272223;}.cls-7{fill:#dc9b80;}.cls-8{fill:#afbdc9;}</style></defs><title>Tawk_Avatar-Male</title><path class="cls-1" d="M250,473.12a177,177,0,1,1,177-177,177,177,0,0,1-177,177"/><path class="cls-2" d="M294.86,351V319L250,351l-44.86-32v32c0,13.86-14.11,13.86-14.11,13.86l59,58.72,59-58.72S294.86,364.83,294.86,351Z"/><path class="cls-3" d="M294.86,319,250,351l-44.86-32v32c0,.45,0,.84-.08,1.27,24.59,11,44.94,12,44.94,12s20.35-.94,44.94-12c0-.43-.08-.82-.08-1.27Z"/><path class="cls-4" d="M250,473.12a176.7,176.7,0,0,0,142.66-72.25L316,367.61h-7.14l-19.05,21.52a53.21,53.21,0,0,1-79.68,0l-19-21.52H184L106.72,400A176.69,176.69,0,0,0,250,473.12"/><path class="cls-4" d="M305.44,360.54l-19,17.87a53.2,53.2,0,0,1-72.92,0l-19-17.87L184,367.61l21.41,21.57a62.87,62.87,0,0,0,89.24,0L316,367.61Z"/><ellipse class="cls-5" cx="136.59" cy="207.17" rx="30.72" ry="35.62"/><ellipse class="cls-5" cx="363.41" cy="207.17" rx="30.72" ry="35.62"/><path class="cls-2" d="M173.27,96.7a36.68,36.68,0,0,0-36.68,36.68V247.74c0,62.64,51.53,105.75,111.64,110.49,44.48,3.51,115.18-47.85,115.18-110.49V133.38A36.68,36.68,0,0,0,326.73,96.7Z"/><path class="cls-6" d="M218.68,212a4,4,0,0,1-4-3.35c-.69-4-5.15-11.61-17.06-11.61-15.06,0-18.14,10.35-18.26,10.79a4,4,0,0,1-7.8-2.05c1.5-5.81,8.87-16.8,26.06-16.8,15,0,23.49,9.48,25,18.29a4,4,0,0,1-3.28,4.67A4.23,4.23,0,0,1,218.68,212Z"/><path class="cls-6" d="M281.32,212a4,4,0,0,1-4-4.73c1.52-8.81,10-18.29,25-18.29,17.19,0,24.56,11,26.06,16.8a4,4,0,0,1-7.8,2.05c-.15-.52-3.26-10.79-18.26-10.79-11.91,0-16.37,7.59-17.06,11.61A4.05,4.05,0,0,1,281.32,212Z"/><path class="cls-3" d="M278.73,228c0-3.14-4.39-6-9.24-8.11-6.07-2.64-11.14-7-15.49-12-3.14-3.6-6.15-3.16-9.06.56a40.58,40.58,0,0,1-15.18,11.62c-4.52,2.09-8.49,4.87-8.49,7.91a11.79,11.79,0,0,0,11.16,11.77,19.26,19.26,0,0,0,35.14,0A11.79,11.79,0,0,0,278.73,228Z"/><path class="cls-6" d="M220.64,170.39a2.86,2.86,0,0,1-1-.07c-.29-.07-30-7.15-47.39,3.52-2,1.23-4.45-.24-5.5-3.28s-.28-6.48,1.7-7.71c19.42-11.94,50.43-4.53,51.74-4.21,2.24.55,3.94,3.61,3.79,6.84C223.81,168.19,222.42,170.16,220.64,170.39Z"/><path class="cls-6" d="M278.12,170.39a2.83,2.83,0,0,0,1-.07c.3-.07,30-7.15,47.4,3.52,2,1.23,4.45-.24,5.5-3.28s.28-6.48-1.71-7.71c-19.42-11.94-50.42-4.53-51.74-4.21-2.24.55-3.93,3.61-3.78,6.84C275,168.19,276.35,170.16,278.12,170.39Z"/><path class="cls-7" d="M250.47,296.19a57.56,57.56,0,0,1-31.18-9.47,4,4,0,0,1,4.78-6.49c1.07.78,24.88,17.69,52-.12a4,4,0,1,1,4.42,6.74A54,54,0,0,1,250.47,296.19Z"/><rect class="cls-3" x="234.67" y="178.8" width="28.66" height="52.29" rx="11.31" ry="11.31"/><path class="cls-2" d="M250,37.42a118.57,118.57,0,0,0-99.39,53.82,119.05,119.05,0,0,1,4.61,15.9c24.77,15.56,58.11,25.1,94.78,25.1s70-9.54,94.78-25.1a119.05,119.05,0,0,1,4.61-15.9A118.57,118.57,0,0,0,250,37.42Z"/><path class="cls-2" d="M155.22,107.14q-5.24-3.28-9.93-6.91a118.88,118.88,0,0,0-6.67,96.84,118.13,118.13,0,0,0,19.27-64.83A119.22,119.22,0,0,0,155.22,107.14Z"/><path class="cls-2" d="M145.29,100.23q4.69,3.63,9.93,6.91a119.05,119.05,0,0,0-4.61-15.9Q147.76,95.61,145.29,100.23Z"/><path class="cls-2" d="M354.71,100.23q-4.69,3.63-9.93,6.91a118.85,118.85,0,0,0,16.6,89.93,118.88,118.88,0,0,0-6.67-96.84Z"/><path class="cls-2" d="M344.78,107.14q5.24-3.28,9.93-6.91-2.46-4.62-5.32-9A119.05,119.05,0,0,0,344.78,107.14Z"/><path class="cls-6" d="M250,308.56v-.12l-1,.06-1-.06v.12c-19.54,1.31-45.72,37.8-45.72,37.8,10.91,10.58,47.48,11.87,47.48,11.87s35.07-1.29,46-11.87C295.71,346.36,269.54,309.87,250,308.56Z"/><rect class="cls-6" x="202.38" y="26.88" width="95.25" height="75.28" rx="19.32" ry="19.32"/><path class="cls-8" d="M263.05,472.6l-6-65.13-7.66-7.15v-.15l-.08.07-.09-.07v.15l-7.66,7.15-6,65.13C235.56,473.29,263.05,473.29,263.05,472.6Z"/><polygon class="cls-8" points="249.36 390.22 249.27 390.22 232.77 390.22 241.56 412.76 249.3 412.76 249.32 412.76 257.06 412.76 265.19 390.22 249.36 390.22"/></svg>