<svg id="Layer_1" data-name="Layer 1" xmlns="http://www.w3.org/2000/svg" viewBox="0 0 500 500"><defs><style>.cls-1{fill:#eff6f9;}.cls-2{fill:#ae8162;}.cls-3{fill:#9b6b4b;}.cls-4{fill:#6d6e71;}.cls-5{fill:#50b648;}.cls-6{fill:#9b6c4c;}.cls-7{fill:#272223;}.cls-8{fill:#dc9b80;}.cls-9{fill:#231f20;}.cls-10{fill:#565556;}.cls-11{fill:#a7a9ac;}</style></defs><title>Tawk_Avatar-Male</title><path class="cls-1" d="M250,469.29a177,177,0,1,1,177-177,177,177,0,0,1-177,177"/><path class="cls-2" d="M294.86,347.14v-32l-44.86,32-44.86-32v32C205.14,361,191,361,191,361l59,58.72L309,361S294.86,361,294.86,347.14Z"/><path class="cls-3" d="M294.86,315.14l-44.86,32-44.86-32v32c0,.45,0,.85-.08,1.27,24.59,11,44.94,12,44.94,12s20.35-.94,44.94-12c0-.42-.08-.82-.08-1.27Z"/><path class="cls-4" d="M250,469.29A176.7,176.7,0,0,0,392.66,397L316,363.78h-7.14L289.84,385.3a53.21,53.21,0,0,1-79.68,0l-19-21.52H184l-77.25,32.41A176.71,176.71,0,0,0,250,469.29"/><path class="cls-5" d="M305.44,356.71l-19,17.87a53.2,53.2,0,0,1-72.92,0l-19-17.87L184,363.78l21.41,21.57a62.86,62.86,0,0,0,89.24,0L316,363.78Z"/><ellipse class="cls-6" cx="138.36" cy="208.52" rx="30.72" ry="35.62"/><ellipse class="cls-6" cx="365.17" cy="208.52" rx="30.72" ry="35.62"/><path class="cls-2" d="M175,98.06a36.67,36.67,0,0,0-36.67,36.67V249.1c0,55.77,63.86,104.18,111.64,104.28,47.5.11,115.17-54.25,115.17-104.28V134.73A36.67,36.67,0,0,0,328.5,98.06Z"/><path class="cls-7" d="M220.45,213.38a4,4,0,0,1-4-3.35c-.69-4-5.15-11.61-17.06-11.61-15.07,0-18.14,10.36-18.26,10.8a4,4,0,0,1-7.8-2.05c1.49-5.81,8.86-16.81,26.06-16.81,15,0,23.48,9.49,25,18.3a4,4,0,0,1-4,4.72Z"/><path class="cls-7" d="M283.08,213.38a4,4,0,0,1-4-4.72c1.53-8.81,10-18.3,25-18.3,17.19,0,24.56,11,26.05,16.81a4,4,0,0,1-7.8,2c-.15-.52-3.25-10.78-18.25-10.79-11.92,0-16.38,7.6-17.07,11.61A4,4,0,0,1,283.08,213.38Z"/><path class="cls-3" d="M280.5,242.08c0-3.14-4.4-6-9.25-8.11-6.06-2.64-11.14-7-15.49-12-3.14-3.6-6.15-3.16-9,.56a40.76,40.76,0,0,1-15.18,11.63C227,236.27,223,239,223,242.08a11.79,11.79,0,0,0,11.15,11.77,19.26,19.26,0,0,0,35.15,0A11.8,11.8,0,0,0,280.5,242.08Z"/><path class="cls-7" d="M222.41,171.74a3.07,3.07,0,0,1-1-.06c-.3-.07-30-7.16-47.4,3.52-2,1.22-4.45-.25-5.5-3.28s-.28-6.49,1.71-7.71c19.42-12,50.43-4.53,51.74-4.21,2.24.55,3.94,3.61,3.78,6.83C225.58,169.54,224.18,171.51,222.41,171.74Z"/><path class="cls-7" d="M279.89,171.74a3.08,3.08,0,0,0,1-.06c.29-.07,30-7.16,47.39,3.52,2,1.22,4.45-.25,5.5-3.28s.29-6.49-1.7-7.71c-19.42-12-50.43-4.53-51.74-4.21-2.24.55-3.94,3.61-3.79,6.83C276.72,169.54,278.11,171.51,279.89,171.74Z"/><path class="cls-8" d="M252.24,297.54a57.48,57.48,0,0,1-31.19-9.47,4,4,0,1,1,4.79-6.48c1.06.77,24.87,17.68,52-.13a4,4,0,1,1,4.42,6.74A54,54,0,0,1,252.24,297.54Z"/><rect class="cls-3" x="236.44" y="192.9" width="28.66" height="52.29" rx="11.31" ry="11.31"/><path class="cls-7" d="M356.48,93.52l-5.33-9a118.66,118.66,0,0,0-198.77,0l-5.33,9a119,119,0,0,0-6.67,96.84,118.1,118.1,0,0,0,19.27-64.83c0-1,0-1.91,0-2.86A12.44,12.44,0,0,1,177,110.88c21.56,9.27,47.22,14.65,74.77,14.65s53.2-5.38,74.76-14.65a12.44,12.44,0,0,1,17.38,11.79c0,1,0,1.9,0,2.86a118.1,118.1,0,0,0,19.27,64.83,119,119,0,0,0-6.67-96.84Z"/><path class="cls-9" d="M362.77,372.52c-3.67-19.48-58.91-34.76-58.91-34.76a24,24,0,0,0-8.72,4.63c-2.31,5.72,2.5,14.32,2.5,14.32,7.51,3.75-11.9,14.72-28.49,22.83a43.24,43.24,0,0,1-38,0c-16.59-8.11-36-19.08-28.49-22.83,0,0,4.81-8.6,2.5-14.32a24,24,0,0,0-8.72-4.63S139.77,353,136.1,372.52s38.59,12.35,54.93,20.35c13.66,6.69,58.07,14.56,59.11,14.4,1,.16,45.45-7.71,59.11-14.4C325.59,384.87,366.43,392,362.77,372.52Z"/><circle class="cls-10" cx="215.68" cy="390.08" r="5.15"/><circle class="cls-10" cx="284.6" cy="390.08" r="5.15"/><path class="cls-11" d="M223,441.19a3,3,0,0,1-3-3V401.44c0-6.58-3.85-8-4.28-8.12a3,3,0,0,1-2.08-3.68,3,3,0,0,1,3.71-2.1c.35.1,8.65,2.49,8.65,13.9v36.75A3,3,0,0,1,223,441.19Z"/><path class="cls-11" d="M277.25,441.19a3,3,0,0,1-3-3V401.44c0-11.41,8.29-13.8,8.65-13.9a3,3,0,0,1,1.62,5.78c-.48.15-4.27,1.58-4.27,8.12v36.75A3,3,0,0,1,277.25,441.19Z"/></svg>