<svg id="Layer_1" data-name="Layer 1" xmlns="http://www.w3.org/2000/svg" xmlns:xlink="http://www.w3.org/1999/xlink" viewBox="0 0 500 500"><defs><style>.cls-1{fill:none;}.cls-2{clip-path:url(#clip-path);}.cls-3{fill:#f28698;}.cls-4{fill:#eff6f9;}.cls-5{fill:#ae8162;}.cls-6{fill:#9b6b4b;}.cls-7{fill:#00a79d;}.cls-8{fill:#bcbec0;}.cls-9{fill:#9b6c4c;}.cls-10{fill:#272223;}.cls-11{fill:#dc9b80;}</style><clipPath id="clip-path"><path class="cls-1" d="M265,563.11H234.92A104.22,104.22,0,0,0,130.7,667.33v41.75q119.25-39.8,238.51,0V667.33A104.22,104.22,0,0,0,265,563.11Z"/></clipPath></defs><title>Tawk_Avatar-Male</title><g class="cls-2"><polygon class="cls-3" points="344.16 741.53 168.81 489.88 171.48 488.41 346.83 740.07 344.16 741.53"/><polygon class="cls-3" points="362.6 728.09 187.24 476.44 189.91 474.97 365.27 726.62 362.6 728.09"/><polygon class="cls-3" points="381.03 714.65 205.68 463 208.35 461.53 383.7 713.18 381.03 714.65"/><polygon class="cls-3" points="399.47 701.21 224.11 449.56 226.78 448.09 402.13 699.74 399.47 701.21"/><polygon class="cls-3" points="417.9 687.77 242.55 436.12 245.22 434.65 420.57 686.3 417.9 687.77"/><polygon class="cls-3" points="134.61 741.53 309.96 489.88 307.29 488.41 131.94 740.07 134.61 741.53"/><polygon class="cls-3" points="116.17 728.09 291.53 476.44 288.86 474.97 113.5 726.62 116.17 728.09"/><polygon class="cls-3" points="97.74 714.65 273.09 463 270.42 461.53 95.07 713.18 97.74 714.65"/><polygon class="cls-3" points="79.31 701.21 254.66 449.56 251.99 448.09 76.64 699.74 79.31 701.21"/><polygon class="cls-3" points="60.87 687.77 236.22 436.12 233.55 434.65 58.2 686.3 60.87 687.77"/></g><path class="cls-4" d="M250,467.93A177,177,0,1,1,427,291a177,177,0,0,1-177,177"/><path class="cls-5" d="M294.86,345.79v-32l-44.86,32-44.86-32v32c0,13.86-14.11,13.86-14.11,13.86l59,58.72,59-58.72S294.86,359.65,294.86,345.79Z"/><path class="cls-6" d="M294.86,313.78l-44.86,32-44.86-32v32c0,.45,0,.84-.08,1.26,24.59,11,44.94,12,44.94,12s20.35-.94,44.94-12c0-.42-.08-.81-.08-1.26Z"/><path class="cls-7" d="M250,467.93a176.68,176.68,0,0,0,142.66-72.25L316,362.42h-7.14L289.84,384a53.21,53.21,0,0,1-79.68,0l-19-21.53H184l-77.25,32.41A176.69,176.69,0,0,0,250,467.93"/><path class="cls-8" d="M305.44,355.36l-19,17.86a53.2,53.2,0,0,1-72.92,0l-19-17.86L184,362.42,205.38,384a62.87,62.87,0,0,0,89.24,0L316,362.42Z"/><ellipse class="cls-9" cx="136.59" cy="201.82" rx="30.72" ry="35.62"/><ellipse class="cls-9" cx="363.41" cy="201.82" rx="30.72" ry="35.62"/><path class="cls-5" d="M173.27,91.35A36.68,36.68,0,0,0,136.59,128V242.39c0,62.63,51.53,105.75,111.64,110.49,44.48,3.51,115.18-47.86,115.18-110.49V128a36.68,36.68,0,0,0-36.68-36.67Z"/><path class="cls-10" d="M218.68,206.67a4,4,0,0,1-4-3.34c-.69-4-5.15-11.61-17.06-11.61-15.06,0-18.14,10.35-18.26,10.79a4,4,0,0,1-7.8-2c1.5-5.81,8.87-16.8,26.06-16.81,15,0,23.49,9.49,25,18.3a4,4,0,0,1-3.28,4.66A4.23,4.23,0,0,1,218.68,206.67Z"/><path class="cls-10" d="M281.32,206.67a4,4,0,0,1-4-4.72c1.52-8.81,10-18.3,25-18.3,17.19,0,24.56,11,26.06,16.81a4,4,0,0,1-7.8,2c-.15-.53-3.26-10.79-18.26-10.79-11.91,0-16.37,7.59-17.06,11.61A4,4,0,0,1,281.32,206.67Z"/><path class="cls-6" d="M278.73,222.63c0-3.14-4.39-6-9.24-8.11-6.07-2.65-11.14-7-15.49-12-3.14-3.6-6.15-3.17-9.06.56a40.68,40.68,0,0,1-15.18,11.62c-4.52,2.09-8.49,4.86-8.49,7.91a11.79,11.79,0,0,0,11.16,11.77,19.26,19.26,0,0,0,35.14,0A11.79,11.79,0,0,0,278.73,222.63Z"/><path class="cls-10" d="M220.64,165a2.64,2.64,0,0,1-1-.06c-.29-.07-30-7.16-47.39,3.52-2,1.23-4.45-.24-5.5-3.28s-.28-6.49,1.7-7.71c19.42-11.95,50.43-4.53,51.74-4.21,2.24.55,3.94,3.61,3.79,6.84C223.81,162.84,222.42,164.8,220.64,165Z"/><path class="cls-10" d="M278.12,165a2.62,2.62,0,0,0,1-.06c.3-.07,30-7.16,47.4,3.52,2,1.23,4.45-.24,5.5-3.28s.28-6.49-1.71-7.71c-19.42-11.95-50.42-4.53-51.74-4.21-2.24.55-3.93,3.61-3.78,6.84C275,162.84,276.35,164.8,278.12,165Z"/><path class="cls-11" d="M250.47,290.83a57.6,57.6,0,0,1-31.18-9.46,4,4,0,0,1,4.78-6.49c1.07.78,24.88,17.69,52-.13a4,4,0,0,1,4.42,6.75A54,54,0,0,1,250.47,290.83Z"/><rect class="cls-6" x="234.67" y="173.45" width="28.66" height="52.29" rx="11.31" ry="11.31"/><path class="cls-5" d="M250,32.07a118.55,118.55,0,0,0-99.39,53.82,119.35,119.35,0,0,1,4.61,15.89C180,117.35,213.33,126.89,250,126.89s70-9.54,94.78-25.11a119.35,119.35,0,0,1,4.61-15.89A118.55,118.55,0,0,0,250,32.07Z"/><path class="cls-10" d="M250,32.07s-29.37,2-38,12,10.75,5.67,10.75,5.67-1.09,8.67,2.58,13.67,23-13.3,27-15.65,7,9.31,5,14.31,21.31-8.92,21.54-17C279,40.53,278.7,32.77,250,32.07Z"/><path class="cls-10" d="M155.22,101.78c-3.49-2.18-6.8-4.49-9.93-6.9a118.88,118.88,0,0,0-6.67,96.84,118.13,118.13,0,0,0,19.27-64.83A119.38,119.38,0,0,0,155.22,101.78Z"/><path class="cls-10" d="M145.29,94.88c3.13,2.41,6.44,4.72,9.93,6.9a119.35,119.35,0,0,0-4.61-15.89Q147.76,90.26,145.29,94.88Z"/><path class="cls-10" d="M354.71,94.88c-3.13,2.41-6.44,4.72-9.93,6.9a119.38,119.38,0,0,0-2.67,25.11,118.13,118.13,0,0,0,19.27,64.83,118.88,118.88,0,0,0-6.67-96.84Z"/><path class="cls-10" d="M344.78,101.78c3.49-2.18,6.8-4.49,9.93-6.9q-2.46-4.62-5.32-9A119.35,119.35,0,0,0,344.78,101.78Z"/><path class="cls-10" d="M292.28,286.42s-5.66,3.1-7,11.22-5.2,11.12-11.26,12.12c-5.87,1-4.48-5.24-24-6.55v-.12l-1,.06-1-.06v.12c-19.54,1.31-18.15,7.52-24,6.55-6.07-1-10.07-4-11.27-12.12-3.63-24.59-7-11.22-7-11.22-7,14.34-3.43,54.59-3.43,54.59,10.91,10.58,47.48,11.87,47.48,11.87s35.07-1.29,46-11.87C295.71,341,299.28,300.76,292.28,286.42Z"/><path class="cls-10" d="M256.16,255.46a29.4,29.4,0,0,1-12.25,0c-47.3-10.07-38,22.28-38,24a1.25,1.25,0,0,0,.44.94,2.16,2.16,0,0,0,3.51-1.56c2.71-23.53,24.85-15.74,33.15-11.94a17,17,0,0,0,7.06,1.56h0a17,17,0,0,0,7-1.56c8.3-3.8,30.44-11.59,33.15,11.94a2.16,2.16,0,0,0,3.51,1.56,1.25,1.25,0,0,0,.44-.94C294.19,277.74,303.46,245.39,256.16,255.46Z"/></svg>