<svg id="Layer_1" data-name="Layer 1" xmlns="http://www.w3.org/2000/svg" viewBox="0 0 500 500"><defs><style>.cls-1{fill:#eff6f9;}.cls-2{fill:#f4d6b0;}.cls-3{fill:#e0bb94;}.cls-4{fill:#a7a9ac;}.cls-5{fill:#231f20;}.cls-6{fill:#6d6e71;}.cls-7{fill:#e6e7e8;}.cls-8{fill:#ffe1cc;}.cls-9{fill:#efd1bd;}.cls-10{fill:#d1d3d4;}.cls-11{fill:#ffc7b6;}.cls-12{fill:#5c5d64;}.cls-13{fill:#dc9b80;}.cls-14{fill:#369fc9;}.cls-15{fill:#fff;}.cls-16{opacity:0.37;}.cls-17{fill:#bbf2ff;}</style></defs><title>Tawk_Avatar-Male</title><path class="cls-1" d="M250,465a177,177,0,1,1,177-177A177,177,0,0,1,250,465"/><path class="cls-2" d="M294.86,342.88v-32l-44.86,32-44.86-32v32c0,13.86-14.11,13.86-14.11,13.86l59,58.72,59-58.72S294.86,356.74,294.86,342.88Z"/><path class="cls-3" d="M294.86,310.88l-44.86,32-44.86-32v32c0,.45,0,.85-.08,1.27,24.59,11,44.94,12,44.94,12s20.35-.94,44.94-12c0-.42-.08-.82-.08-1.27Z"/><path class="cls-4" d="M106.72,391.93a178,178,0,0,0,44,42.63V373.47Z"/><path class="cls-4" d="M392.66,392.78l-44-19.09V435A178.05,178.05,0,0,0,392.66,392.78Z"/><path class="cls-5" d="M316,359.52h-7.14L289.84,381c-6.56,7.41-34.27,3.74-39.84,3.74-14.63,0-29.25,8.22-39.84-3.74l-19-21.52H184l-33.26,14v61.09a177,177,0,0,0,198,.42V373.69Z"/><path class="cls-6" d="M233.78,443.67l-35.42-55.19,41.75-3.14s7.17,40.5,7,41.33-3,29.85-3,29.85Z"/><polygon class="cls-4" points="240.71 406.77 233.78 443.67 250.98 465.03 250.98 407.7 240.71 406.77"/><path class="cls-6" d="M266.85,443.67l34.67-55.19-40.87-3.14s-7,40.5-6.86,41.33,2.92,29.85,2.92,29.85Z"/><polygon class="cls-4" points="260.05 406.77 266.85 443.67 250 465.03 250 407.7 260.05 406.77"/><path class="cls-7" d="M251,384.78l43.12,16.59,24.86-43.12s-7.59-16.22-24.06-15.37v20.29S289,379.56,251,384.78Z"/><path class="cls-1" d="M250,465a177,177,0,1,1,177-177A177,177,0,0,1,250,465"/><path class="cls-8" d="M294.86,342.88v-32l-44.86,32-44.86-32v32c0,13.86-14.11,13.86-14.11,13.86l59,58.72,59-58.72S294.86,356.74,294.86,342.88Z"/><path class="cls-9" d="M294.86,310.88l-44.86,32-44.86-32v32c0,.45,0,.85-.08,1.27,24.59,11,44.94,12,44.94,12s20.35-.94,44.94-12c0-.42-.08-.82-.08-1.27Z"/><path class="cls-4" d="M106.72,391.93a178,178,0,0,0,44,42.63V373.47Z"/><path class="cls-4" d="M392.66,392.78l-44-19.09V435A178.05,178.05,0,0,0,392.66,392.78Z"/><path class="cls-5" d="M316,359.52h-7.14L289.84,381c-6.56,7.41-34.27,3.74-39.84,3.74-14.63,0-29.25,8.22-39.84-3.74l-19-21.52H184l-33.26,14v61.09a177,177,0,0,0,198,.42V373.69Z"/><path class="cls-6" d="M233.78,443.67l-35.42-55.19,41.75-3.14s7.17,40.5,7,41.33-3,29.85-3,29.85Z"/><path class="cls-6" d="M266.85,443.67l34.67-55.19-40.87-3.14s-7,40.5-6.86,41.33,2.92,29.85,2.92,29.85Z"/><polygon class="cls-4" points="250.98 463.8 266.85 443.67 260.05 406.77 250.49 407.65 240.71 406.77 233.78 443.67 250 463.82 250 465.03 250.49 464.42 250.98 465.03 250.98 463.8"/><path class="cls-7" d="M249.05,384.78l-43.12,16.59-24.86-43.12s7.59-16.22,24.06-15.37v20.29S211,379.56,249.05,384.78Z"/><path class="cls-10" d="M252.88,384.78h-5L242.28,386l-10.81,1.94,7.28,17.28a7.55,7.55,0,0,0,6.93,4.66h8.65a7.53,7.53,0,0,0,6.92-4.66l7.29-17.28Z"/><path class="cls-7" d="M249.05,384.78l-43.12,16.59-24.86-43.12s7.59-16.22,24.06-15.37v20.29S211,379.56,249.05,384.78Z"/><path class="cls-7" d="M251,384.78l43.12,16.59,24.86-43.12s-7.59-16.22-24.06-15.37v20.29S289,379.56,251,384.78Z"/><ellipse class="cls-11" cx="137.59" cy="208.42" rx="30.72" ry="35.62"/><ellipse class="cls-11" cx="364.41" cy="208.42" rx="30.72" ry="35.62"/><path class="cls-8" d="M173.27,89.14a36.68,36.68,0,0,0-36.68,36.67V240.18c0,62.63,71.56,110.66,111.64,110.49,38.92-.17,115.18-47.86,115.18-110.49V125.81a36.68,36.68,0,0,0-36.68-36.67Z"/><path class="cls-12" d="M220.91,207.61a3.49,3.49,0,0,1-2.5-1.05c-.82-.83-19.94-19.74-42-.53a3.5,3.5,0,1,1-4.6-5.27c27.12-23.62,51.37.66,51.62.91a3.5,3.5,0,0,1-2.51,5.94Z"/><path class="cls-12" d="M326.72,207.61a3.47,3.47,0,0,1-2.5-1.05c-.82-.83-19.94-19.74-42-.53a3.49,3.49,0,1,1-4.59-5.27c27.12-23.62,51.37.66,51.62.91a3.5,3.5,0,0,1-2.51,5.94Z"/><path class="cls-11" d="M279.73,242c0-3.14-4.39-6-9.24-8.11-6.07-2.64-11.14-7-15.49-12-3.14-3.6-6.15-3.16-9.06.56a40.48,40.48,0,0,1-15.18,11.62c-4.52,2.1-8.49,4.87-8.49,7.91a11.79,11.79,0,0,0,11.16,11.77,19.25,19.25,0,0,0,35.14,0A11.79,11.79,0,0,0,279.73,242Z"/><path class="cls-13" d="M251.47,297.44A57.46,57.46,0,0,1,220.29,288a4,4,0,0,1,4.78-6.49c1.07.78,24.88,17.69,52-.12a4,4,0,1,1,4.42,6.74A54,54,0,0,1,251.47,297.44Z"/><rect class="cls-11" x="235.67" y="192.8" width="28.66" height="52.29" rx="11.31" ry="11.31"/><path class="cls-4" d="M372.17,160.27l-119.9-9.67-122.44,9.67V121.93a55.48,55.48,0,0,1,55.48-55.48H316.69a55.45,55.45,0,0,1,55.48,55.48Z"/><path class="cls-5" d="M268.61,48c0,7.19-7.32,13-16.34,13s-16.35-5.83-16.35-13c0-4.14,2.42-7.82,6.21-10.21A19.1,19.1,0,0,1,252.27,35a20,20,0,0,1,6.36,1C264.5,38,268.61,42.59,268.61,48Z"/><path class="cls-14" d="M347.62,152.53H154.38V95.63a51,51,0,0,1,51-51h91.28a51,51,0,0,1,51,51Z"/><path class="cls-5" d="M371.78,178.64A8.18,8.18,0,0,1,367,177.1l-13.83-9.89A53.53,53.53,0,0,0,322,157.12h-142a53.54,53.54,0,0,0-31.48,10.26L135,177.07a8.21,8.21,0,0,1-11.76-2.27,9.12,9.12,0,0,1,2.17-12.32l13.41-9.69A69.78,69.78,0,0,1,179.9,139.4H322a69.79,69.79,0,0,1,40.76,13.17l13.84,9.89a9.12,9.12,0,0,1,2.22,12.31A8.34,8.34,0,0,1,371.78,178.64Z"/><path class="cls-15" d="M279.65,78.21V88.82H258.77v42.91H245.86V88.82h-21V78.21Z"/><g class="cls-16"><path class="cls-17" d="M164,180.27s-2.64,5.26-2.39,20.14c.12,6.86.63,14.2,1.16,20.12a12.75,12.75,0,0,0,13,11.62l46.73-1.05A12.78,12.78,0,0,0,235,218.32V194.23s-1.08-13.59-23.25-15.21S164,180.27,164,180.27Z"/></g><g class="cls-16"><path class="cls-17" d="M335.88,180.27s2.64,5.26,2.39,20.14c-.11,6.86-.63,14.2-1.16,20.12a12.75,12.75,0,0,1-13,11.62l-46.72-1.05a12.78,12.78,0,0,1-12.5-12.78V194.23S266,180.64,288.13,179,335.88,180.27,335.88,180.27Z"/></g><path class="cls-12" d="M235.44,202.42a2,2,0,0,1-2-2c0-.51-.13-12.39-9.56-16.23-10-4.1-25.8-4.71-34.29-4.71-10.06,0-22.45.91-25.87,2.93l-.53.31-.26.56a2,2,0,0,1-1.82,1.15,1.83,1.83,0,0,1-.4,0,2,2,0,0,1-1.58-2.37,4.79,4.79,0,0,1,2.76-3.18c4-2.16,13.69-3.46,25.82-3.46,15.33,0,30.13,2,37.7,5.08,12,4.91,12.07,19.38,12.07,20a2,2,0,0,1-2,2Z"/><path class="cls-12" d="M263.92,202.42a2,2,0,0,1-2-2c0-.61.05-15.08,12.07-20,7.57-3.08,22.37-5.08,37.7-5.08,12.13,0,21.78,1.3,25.82,3.46a4.79,4.79,0,0,1,2.76,3.18,2,2,0,0,1-1.58,2.37,1.75,1.75,0,0,1-.4,0,2,2,0,0,1-1.82-1.14l-.26-.56-.53-.31c-3.42-2-15.81-2.93-25.87-2.93-8.49,0-24.24.61-34.3,4.71-9.56,3.9-9.56,16.11-9.56,16.23a2,2,0,0,1-.58,1.42,2,2,0,0,1-1.41.6Z"/><path class="cls-12" d="M236.22,196.83a2,2,0,0,1-2-2,1.93,1.93,0,0,1,1.87-2l27.85.26a2,2,0,0,1,2,2,2,2,0,0,1-2,2Z"/></svg>