<svg id="Layer_1" data-name="Layer 1" xmlns="http://www.w3.org/2000/svg" viewBox="0 0 500 500"><defs><style>.cls-1{fill:#eff6f9;}.cls-2{fill:#f4d6b0;}.cls-3{fill:#e0bb94;}.cls-4{fill:#2d456b;}.cls-5{fill:#facfaf;}.cls-6{fill:#fae0bb;}.cls-7{fill:#5c5d64;}.cls-8{fill:#dc9b80;}.cls-9{fill:#78aea4;}.cls-10{fill:#414042;}.cls-11{fill:#e6e7e8;}</style></defs><title>Tawk_Avatar-Male</title><path class="cls-1" d="M250,468.26a177,177,0,1,1,177-177,177,177,0,0,1-177,177"/><path class="cls-2" d="M294.86,346.11v-32l-44.86,32-44.86-32v32C205.14,360,191,360,191,360l59,58.72L309,360S294.86,360,294.86,346.11Z"/><path class="cls-3" d="M294.86,314.11l-44.86,32-44.86-32v32c0,.45,0,.85-.08,1.27,24.59,11,44.94,12,44.94,12s20.35-.94,44.94-12c0-.42-.08-.82-.08-1.27Z"/><path class="cls-4" d="M250,468.26A176.7,176.7,0,0,0,392.66,396L316,362.75h-7.14l-19.05,21.52a53.21,53.21,0,0,1-79.68,0l-19-21.52H184l-77.25,32.41A176.71,176.71,0,0,0,250,468.26"/><ellipse class="cls-5" cx="136.59" cy="203.12" rx="30.72" ry="35.62"/><ellipse class="cls-5" cx="363.41" cy="203.12" rx="30.72" ry="35.62"/><path class="cls-6" d="M173.27,92.66a36.68,36.68,0,0,0-36.68,36.67V243.7c0,17.7,51.53,105.75,111.64,110.49,44.48,3.5,115.18-82.13,115.18-110.49V129.33c0-37.29.29-36.67-36.68-36.67Z"/><path class="cls-7" d="M218.68,208a4,4,0,0,1-4-3.35c-.69-4-5.15-11.6-17.06-11.6-15.06,0-18.14,10.35-18.26,10.79a4,4,0,0,1-7.8-2c1.5-5.81,8.87-16.81,26.06-16.81,15,0,23.49,9.49,25,18.3a4,4,0,0,1-4,4.72Z"/><path class="cls-7" d="M281.32,208a4.23,4.23,0,0,1-.7-.06,4,4,0,0,1-3.28-4.66c1.52-8.81,10-18.3,25-18.3,17.19,0,24.56,11,26.06,16.81a4,4,0,0,1-7.8,2c-.15-.52-3.26-10.78-18.26-10.78-11.91,0-16.37,7.59-17.06,11.6A4,4,0,0,1,281.32,208Z"/><path class="cls-5" d="M278.73,236.68c0-3.14-4.39-6-9.25-8.11a44.42,44.42,0,0,1-15.48-12c-3.14-3.6-6.15-3.16-9.06.57a40.68,40.68,0,0,1-15.18,11.62c-4.52,2.09-8.49,4.86-8.49,7.9a11.79,11.79,0,0,0,11.16,11.77,19.25,19.25,0,0,0,35.14,0A11.79,11.79,0,0,0,278.73,236.68Z"/><path class="cls-8" d="M250.47,292.14a57.55,57.55,0,0,1-31.18-9.46,4,4,0,0,1,4.78-6.49c1.07.77,24.88,17.68,52-.13a4,4,0,1,1,4.42,6.74A54,54,0,0,1,250.47,292.14Z"/><rect class="cls-5" x="234.67" y="187.51" width="28.66" height="52.29" rx="11.31" ry="11.31"/><path class="cls-9" d="M147,73.55l-35.68,35.16A30.88,30.88,0,0,0,133,161.6H365a30.88,30.88,0,0,0,21.68-52.89L351,73.55a145.35,145.35,0,0,0-204,0Z"/><path class="cls-10" d="M182.17,135.31l-39.77,19.6a9.07,9.07,0,0,0,4,17.21H351.58a9.07,9.07,0,0,0,4-17.21l-39.77-19.6a151.22,151.22,0,0,0-133.66,0Z"/><path class="cls-9" d="M250,388h0l-25.55,4.5L235,417.1a11,11,0,0,0,10.07,6.63h9.78A11,11,0,0,0,265,417.1l10.59-24.59Z"/><path class="cls-11" d="M250,388l-63.66,20.72v-57s2-6.47,18.8-5.62V366.4S211.16,382.79,250,388Z"/><path class="cls-11" d="M250,388l63.66,20.72v-57s-2-6.47-18.8-5.62V366.4S288.84,382.79,250,388Z"/></svg>