<svg id="Layer_1" data-name="Layer 1" xmlns="http://www.w3.org/2000/svg" viewBox="0 0 500 500"><defs><style>.cls-1{fill:#eff6f9;}.cls-2{fill:#21409a;}.cls-3{fill:#f4d6b0;}.cls-4{fill:#e0bb94;}.cls-5{fill:#ef4136;}.cls-6{fill:#ff6864;}.cls-7{fill:#ee38ab;}.cls-8{fill:#edcba2;}.cls-9{fill:#fae0bb;}.cls-10{fill:#dc9b80;}.cls-11{fill:#272223;}.cls-12{fill:#f2bd99;}</style></defs><title>Tawk_Avatar-Female</title><path class="cls-1" d="M250,489.24a177,177,0,1,1,177-177,177,177,0,0,1-177,177"/><path class="cls-2" d="M251,45.15h0A134.19,134.19,0,0,1,385.18,179.35v149.9a82.45,82.45,0,0,1-82.45,82.45H199.24a82.45,82.45,0,0,1-82.45-82.45V179.35A134.19,134.19,0,0,1,251,45.15Z"/><path class="cls-3" d="M294.86,367.09v-32l-44.86,32-44.86-32v32C205.14,381,191,381,191,381l59,58.72L309,381S294.86,381,294.86,367.09Z"/><path class="cls-4" d="M294.86,335.08l-44.86,32-44.86-32v32c0,.45,0,.85-.08,1.27,24.59,11,44.94,12,44.94,12s20.35-.93,44.94-12c0-.42-.08-.82-.08-1.27Z"/><path class="cls-5" d="M250,489.24A176.7,176.7,0,0,0,392.66,417L316,383.73h-7.14l-19.05,21.52a53.21,53.21,0,0,1-79.68,0l-19-21.52H184l-77.25,32.41A176.71,176.71,0,0,0,250,489.24"/><path class="cls-6" d="M305.44,376.66l-19,17.87a53.2,53.2,0,0,1-72.92,0l-19-17.87L184,383.73l21.41,21.57a62.87,62.87,0,0,0,89.24,0L316,383.73Z"/><circle class="cls-2" cx="360.42" cy="67.42" r="56.66" transform="translate(236.13 412.39) rotate(-80.78)"/><circle class="cls-2" cx="141.55" cy="67.42" r="56.66" transform="translate(-6.22 119.84) rotate(-45)"/><path class="cls-7" d="M318.71,65.39a136.5,136.5,0,0,1,55,57.11A56,56,0,0,0,386,118,149.09,149.09,0,0,0,325,54a151,151,0,0,0-17-8.13,56.08,56.08,0,0,0-3.54,12.59A138.58,138.58,0,0,1,318.71,65.39Z"/><path class="cls-7" d="M183.26,65.39a139.59,139.59,0,0,1,14.25-6.89,55.67,55.67,0,0,0-3.06-11.38h-3.38A148.83,148.83,0,0,0,116,118a56.05,56.05,0,0,0,12.3,4.52A136.42,136.42,0,0,1,183.26,65.39Z"/><path class="cls-7" d="M194.45,47.12c-.15-.41-.31-.81-.48-1.21-1,.39-1.93.8-2.9,1.21Z"/><ellipse class="cls-8" cx="138.55" cy="224.12" rx="30.72" ry="35.62"/><ellipse class="cls-8" cx="365.37" cy="224.12" rx="30.72" ry="35.62"/><polygon class="cls-7" points="368.31 247.73 360.12 273.78 368.31 299.83 376.51 273.78 368.31 247.73"/><polygon class="cls-7" points="135.6 247.73 127.4 273.78 135.6 299.83 143.8 273.78 135.6 247.73"/><path class="cls-9" d="M138.55,121.48V264.69c0,62.63,51.53,105.75,111.64,110.49,44.48,3.51,115.18-47.86,115.18-110.49V121.48Z"/><path class="cls-10" d="M252.43,308.62a57.52,57.52,0,0,1-31.19-9.47,4,4,0,0,1,4.79-6.49c1.06.78,24.87,17.69,52-.12a4,4,0,1,1,4.43,6.74A54,54,0,0,1,252.43,308.62Z"/><path class="cls-11" d="M222.6,187.33a2.64,2.64,0,0,1-1-.06c-.3-.07-30-7.15-47.39,3.52-2,1.23-4.45-.24-5.5-3.28s-.29-6.48,1.7-7.71c19.42-12,50.43-4.53,51.74-4.21,2.24.55,3.94,3.61,3.79,6.84C225.77,185.14,224.38,187.1,222.6,187.33Z"/><path class="cls-11" d="M280.08,187.33a2.64,2.64,0,0,0,1-.06c.3-.07,30-7.15,47.4,3.52,2,1.23,4.45-.24,5.49-3.28s.29-6.48-1.7-7.71c-19.42-12-50.43-4.53-51.74-4.21-2.24.55-3.94,3.61-3.79,6.84C276.91,185.14,278.31,187.1,280.08,187.33Z"/><path class="cls-2" d="M326.63,121.48l2.52,20.28s31.5,2.09,36.22,46.74L368,117.18Z"/><path class="cls-2" d="M177,121.48l-.55.6.13-.6-39.5-.79,1.5,67.81c4.71-44.65,33.66-46.74,33.66-46.74H316.67l11.12-20.28Z"/><rect class="cls-2" x="165.25" y="97.98" width="173.42" height="23.5"/><path class="cls-11" d="M220.64,228.42a4,4,0,0,1-4-3.34c-.69-4-5.15-11.61-17.06-11.61-15.07,0-18.14,10.35-18.26,10.79a4.06,4.06,0,0,1-4.94,2.83,4,4,0,0,1-2.86-4.88c1.49-5.81,8.87-16.8,26.06-16.81,15,0,23.49,9.49,25,18.3a4,4,0,0,1-4,4.72Z"/><path class="cls-11" d="M193.61,214a4,4,0,0,1-3.9-3.11l-2.25-9.9a4,4,0,0,1,7.8-1.78l2.25,9.9a4,4,0,0,1-3,4.79A3.92,3.92,0,0,1,193.61,214Z"/><path class="cls-11" d="M204.49,213.25a3.92,3.92,0,0,1-.89-.1,4,4,0,0,1-3-4.79l2.25-9.9a4,4,0,1,1,7.8,1.78l-2.25,9.9A4,4,0,0,1,204.49,213.25Z"/><path class="cls-11" d="M283.27,228.42a4,4,0,0,0,4-3.34c.7-4,5.16-11.61,17.07-11.61,15.06,0,18.13,10.35,18.26,10.79a4,4,0,0,0,7.8-2c-1.5-5.81-8.87-16.8-26.06-16.81-15,0-23.49,9.49-25,18.3a4,4,0,0,0,3.28,4.66A4.2,4.2,0,0,0,283.27,228.42Z"/><path class="cls-11" d="M310.31,214a4,4,0,0,0,3.89-3.11l2.26-9.9a4,4,0,1,0-7.8-1.78l-2.26,9.9a4,4,0,0,0,3,4.79A3.86,3.86,0,0,0,310.31,214Z"/><path class="cls-11" d="M299.42,213.25a3.8,3.8,0,0,0,.89-.1,4,4,0,0,0,3-4.79l-2.26-9.9a4,4,0,0,0-7.8,1.78l2.26,9.9A4,4,0,0,0,299.42,213.25Z"/><circle class="cls-8" cx="318.56" cy="259.74" r="12.01"/><circle class="cls-8" cx="185.36" cy="259.74" r="12.01"/><path class="cls-12" d="M275.45,253.69c0-2.57-3.59-4.9-7.56-6.63a36.41,36.41,0,0,1-12.66-9.79c-2.57-3-5-2.59-7.41.45a33.29,33.29,0,0,1-12.41,9.51c-3.7,1.71-6.94,4-6.94,6.46a9.65,9.65,0,0,0,9.12,9.63,15.75,15.75,0,0,0,28.74,0A9.65,9.65,0,0,0,275.45,253.69Z"/><rect class="cls-12" x="240.24" y="212.62" width="23.43" height="42.76" rx="11.31" ry="11.31"/></svg>