<svg id="Layer_1" data-name="Layer 1" xmlns="http://www.w3.org/2000/svg" xmlns:xlink="http://www.w3.org/1999/xlink" viewBox="0 0 500 500"><defs><style>.cls-1{fill:none;}.cls-2{fill:#eff6f9;}.cls-3{fill:#e6c2b9;}.cls-4{fill:#ddafa6;}.cls-5{fill:#72adc1;}.cls-6{fill:#d1d3d4;}.cls-7{fill:#3090c0;}.cls-8{fill:#d6aea5;}.cls-9{fill:#5c5d64;}.cls-10{fill:#756a5b;}.cls-11{fill:#dc9b80;}.cls-12{fill:#acc4dd;}.cls-13{fill:#9097a0;}.cls-14{clip-path:url(#clip-path);}.cls-15{fill:#fff;}</style><clipPath id="clip-path"><path class="cls-1" d="M365.24,162.89C361.71,160.66,326.86,140,250,140s-111.69,20.65-115.22,22.88a2,2,0,0,1-1.71-2V130.52c0-1,0-2,0-2.92a11.56,11.56,0,0,1,8-10.6c19.72-6.54,60.52-17.52,112.21-17.52a354.23,354.23,0,0,1,105.5,15.91,11.52,11.52,0,0,1,8.09,10.71c0,1,0,2.09,0,3.14v31.69A2,2,0,0,1,365.24,162.89Z"/></clipPath></defs><title>Tawk_Avatar-Male</title><path class="cls-2" d="M250,473.38a177,177,0,1,1,177-177,177,177,0,0,1-177,177"/><path class="cls-3" d="M294.86,351.24v-32l-44.86,32-44.86-32v32c0,13.86-14.11,13.86-14.11,13.86l59,58.72,59-58.72S294.86,365.1,294.86,351.24Z"/><path class="cls-4" d="M294.86,319.23l-44.86,32-44.86-32v32c0,.45,0,.84-.08,1.26,24.59,11,44.94,12,44.94,12s20.35-.94,44.94-12c0-.42-.08-.81-.08-1.26Z"/><path class="cls-5" d="M250,473.38a176.68,176.68,0,0,0,142.66-72.25L316,367.87h-7.14L289.84,389.4a53.21,53.21,0,0,1-79.68,0l-19-21.53H184l-77.25,32.41A176.69,176.69,0,0,0,250,473.38"/><path class="cls-6" d="M159.69,379.08a7,7,0,0,0-7-7h0a7,7,0,0,0-7,7v60.28c4.51,3.3,9.18,6.4,14,9.26Z"/><path class="cls-6" d="M346.69,372.08h0a7,7,0,0,0-7,7v69.61c0,.1,0,.19,0,.29q7.23-4.26,14-9.16V379.08A7,7,0,0,0,346.69,372.08Z"/><path class="cls-7" d="M305.44,360.81l-19,17.86a53.2,53.2,0,0,1-72.92,0l-19-17.86L184,367.87l21.41,21.58a62.87,62.87,0,0,0,89.24,0L316,367.87Z"/><ellipse class="cls-8" cx="137.62" cy="209.65" rx="30.72" ry="35.62"/><ellipse class="cls-8" cx="364.43" cy="209.65" rx="30.72" ry="35.62"/><path class="cls-3" d="M174.29,99.18a36.68,36.68,0,0,0-36.67,36.68V250.22c0,55.78,64,106.74,111.64,110.49,36.71,2.9,115.17-60.46,115.17-110.49V135.86a36.68,36.68,0,0,0-36.67-36.68Z"/><path class="cls-9" d="M219.71,214.51a4,4,0,0,1-4-3.35c-.69-4-5.15-11.61-17.06-11.61-15.07,0-18.14,10.35-18.26,10.79a4,4,0,0,1-7.8-2.05c1.49-5.81,8.87-16.8,26.06-16.8,15,0,23.49,9.48,25,18.3a4,4,0,0,1-4,4.72Z"/><path class="cls-9" d="M282.34,214.51a4.11,4.11,0,0,1-.69-.06,4,4,0,0,1-3.28-4.66c1.52-8.82,10-18.3,25-18.3,17.19,0,24.56,11,26.06,16.8a4,4,0,0,1-7.81,2.05c-.14-.52-3.25-10.79-18.25-10.79-11.91,0-16.37,7.59-17.07,11.61A4,4,0,0,1,282.34,214.51Z"/><path class="cls-4" d="M279.76,243.21c0-3.14-4.4-6-9.25-8.11a44.42,44.42,0,0,1-15.48-12c-3.14-3.6-6.15-3.16-9.06.56a40.66,40.66,0,0,1-15.18,11.62c-4.52,2.09-8.49,4.87-8.49,7.91A11.79,11.79,0,0,0,233.46,255a19.26,19.26,0,0,0,35.14,0A11.79,11.79,0,0,0,279.76,243.21Z"/><path class="cls-10" d="M221.67,172.87a2.86,2.86,0,0,1-1-.07c-.3-.07-30-7.15-47.4,3.52-2,1.23-4.45-.24-5.49-3.28s-.29-6.48,1.7-7.71c19.42-11.94,50.43-4.53,51.74-4.21,2.24.55,3.94,3.61,3.79,6.84C224.84,170.67,223.45,172.64,221.67,172.87Z"/><path class="cls-10" d="M279.15,172.87a2.86,2.86,0,0,0,1-.07c.3-.07,30-7.15,47.39,3.52,2,1.23,4.45-.24,5.5-3.28s.29-6.48-1.7-7.71C312,153.39,281,160.8,279.64,161.12c-2.24.55-3.94,3.61-3.79,6.84C276,170.67,277.37,172.64,279.15,172.87Z"/><path class="cls-11" d="M251.5,298.67a57.61,57.61,0,0,1-31.19-9.47,4,4,0,0,1,4.79-6.49c1.06.78,24.87,17.69,52-.12a4,4,0,1,1,4.43,6.74A54,54,0,0,1,251.5,298.67Z"/><rect class="cls-4" x="235.7" y="194.03" width="28.66" height="52.29" rx="11.31" ry="11.31"/><path class="cls-12" d="M363.85,129.45c-5.91-57.8,0-99.19-93.81-102.65-97.85-3.61-128.29,46.34-133.89,104.4C160,122.33,254.54,92.43,363.85,129.45Z"/><path class="cls-13" d="M140.8,116.05a12.56,12.56,0,0,0-8.67,11.52c0,1,0,2,0,3v30.4a3,3,0,0,0,3,3S168.6,141,250,141,365,163.91,365,163.91a3,3,0,0,0,3-3V129.24c0-1.06,0-2.12,0-3.17a12.55,12.55,0,0,0-8.79-11.64C259.81,83.51,173.58,105.17,140.8,116.05Z"/><g class="cls-14"><rect class="cls-15" x="139.21" y="92.92" width="1" height="73.33"/><rect class="cls-15" x="148.76" y="92.92" width="1" height="73.33"/><rect class="cls-15" x="158.32" y="92.92" width="1" height="73.33"/><rect class="cls-15" x="167.88" y="92.92" width="1" height="73.33"/><rect class="cls-15" x="177.44" y="92.92" width="1" height="73.33"/><rect class="cls-15" x="187" y="92.92" width="1" height="73.33"/><rect class="cls-15" x="196.55" y="92.92" width="1" height="73.33"/><rect class="cls-15" x="206.11" y="92.92" width="1" height="73.33"/><rect class="cls-15" x="215.67" y="92.92" width="1" height="73.33"/><rect class="cls-15" x="225.23" y="92.92" width="1" height="73.33"/><rect class="cls-15" x="234.79" y="92.92" width="1" height="73.33"/><rect class="cls-15" x="244.34" y="92.92" width="1" height="73.33"/><rect class="cls-15" x="253.9" y="92.92" width="1" height="73.33"/><rect class="cls-15" x="263.46" y="92.92" width="1" height="73.33"/><rect class="cls-15" x="273.02" y="92.92" width="1" height="73.33"/><rect class="cls-15" x="282.58" y="92.92" width="1" height="73.33"/><rect class="cls-15" x="292.13" y="92.92" width="1" height="73.33"/><rect class="cls-15" x="301.69" y="92.92" width="1" height="73.33"/><rect class="cls-15" x="311.25" y="92.92" width="1" height="73.33"/><rect class="cls-15" x="320.81" y="92.92" width="1" height="73.33"/><rect class="cls-15" x="330.37" y="92.92" width="1" height="73.33"/><rect class="cls-15" x="339.92" y="92.92" width="1" height="73.33"/><rect class="cls-15" x="349.48" y="92.92" width="1" height="73.33"/><rect class="cls-15" x="359.04" y="92.92" width="1" height="73.33"/></g></svg>